<?xml version="1.0" encoding="UTF-8"?>
<svg version="1.1" xmlns="http://www.w3.org/2000/svg" width="980" height="758">
<path d="M0 0 C6.72962994 -0.00781215 13.45925351 -0.01792175 20.18887818 -0.02938645 C21.16900696 -0.03105453 22.14913574 -0.0327226 23.15896539 -0.03444123 C25.15899669 -0.03785069 27.15902799 -0.04126221 29.15905928 -0.04467575 C55.93937509 -0.08992178 82.71970446 -0.12079677 109.50004304 -0.14883797 C110.59733042 -0.14999296 111.69461781 -0.15114795 112.82515632 -0.15233794 C156.3730457 -0.19809817 199.92094152 -0.2375652 243.4688469 -0.26436288 C254.211749 -0.27098447 264.95465093 -0.27785829 275.6975528 -0.2848243 C277.47778329 -0.28596908 277.47778329 -0.28596908 279.29397804 -0.28713699 C317.85483712 -0.31213268 356.41558908 -0.36570528 394.97639236 -0.43484257 C434.7013972 -0.50593696 474.42634426 -0.55101965 514.15141343 -0.56234365 C519.76016757 -0.56394836 525.36892157 -0.56583589 530.97767556 -0.56788819 C532.63317101 -0.56847752 532.63317101 -0.56847752 534.3221108 -0.56907875 C552.06156052 -0.57612841 569.80085833 -0.61030139 587.5402499 -0.6545492 C605.35372084 -0.69836266 623.16702628 -0.7128264 640.98054611 -0.69745594 C651.55531861 -0.6892041 662.12951307 -0.70315006 672.70419158 -0.74917527 C679.77329301 -0.77773205 686.84200733 -0.77703443 693.9111241 -0.7529104 C697.93435551 -0.74000389 701.95648958 -0.73944517 705.97961199 -0.77467596 C722.31956641 -0.90917839 736.4359663 -0.92247468 750.53519929 8.23006828 C751.84557889 9.01525209 753.15900178 9.79537825 754.4753452 10.57052232 C761.90578644 14.96094049 768.34061598 20.22557146 774.53519929 26.23006828 C775.14621491 26.76760734 775.75723054 27.3051464 776.38676179 27.85897453 C790.57151887 40.78070529 797.91267114 60.27381566 798.94479752 79.02083213 C799.02312646 81.00328155 799.09196868 82.98612416 799.15226281 84.96920402 C799.18988396 86.04864516 799.2275051 87.1280863 799.26626628 88.24023778 C799.63322567 99.62780315 799.67478392 111.01153013 799.66218293 122.4038964 C799.66333879 124.72579352 799.6649294 127.04769045 799.66691017 129.36958701 C799.67103972 135.67252741 799.66904202 141.97545245 799.66592396 148.27839286 C799.66387881 154.40230927 799.6665682 160.52622216 799.66907132 166.65013809 C799.67430823 179.92978548 799.67389225 193.20942802 799.67099241 206.48907585 C799.66846732 218.11099246 799.66782457 229.73290731 799.66901505 241.35482414 C799.66912963 242.51549456 799.66912963 242.51549456 799.66924652 243.69961287 C799.66955791 246.84139337 799.66987632 249.98317388 799.67020629 253.12495438 C799.67325872 282.53980207 799.67050227 311.9546467 799.66510939 341.36949391 C799.66036452 367.44802034 799.66078918 393.52654189 799.66557038 419.60506828 C799.67093613 448.96941077 799.67304216 478.33375057 799.66995812 507.69809348 C799.66963745 510.83383313 799.6693246 513.96957277 799.66901505 517.10531242 C799.66893598 517.8772949 799.6688569 518.64927739 799.66877542 519.44465328 C799.66764253 531.05338286 799.66895964 542.66211046 799.67149461 554.27083976 C799.67436553 567.4831574 799.67361432 580.69546948 799.66821386 593.90778644 C799.66555256 600.63899653 799.66453308 607.37019552 799.66786301 614.10140617 C799.67087301 620.27966906 799.66915603 626.45791306 799.66388546 632.63617427 C799.66278113 634.85456487 799.66330751 637.07295711 799.66576125 639.29134662 C799.6773963 650.69785483 799.5495893 662.09068002 799.15226281 673.49093253 C799.12189675 674.48967509 799.09153069 675.48841765 799.06024445 676.51742513 C798.6722815 686.33648994 797.66502508 696.09703497 793.53519929 705.10506828 C793.2332364 705.77433341 792.93127351 706.44359855 792.62016023 707.13314445 C782.57080068 728.45156809 764.74908156 743.91352669 743.24223054 752.97616203 C732.61219339 756.57178049 722.58409432 757.7430112 711.42073834 757.9096318 C709.87287869 757.9422767 708.32503606 757.97573811 706.77721055 758.0099634 C691.41427795 758.32810892 676.0488966 758.37275251 660.68325226 758.35853583 C656.62537928 758.35593662 652.56750965 758.359283 648.50963718 758.36177916 C641.43876014 758.36534768 634.36789077 758.36530839 627.29701341 758.362732 C616.78244781 758.35891144 606.26788856 758.36090265 595.75332299 758.36394031 C576.96746116 758.36917659 558.18160276 758.36876175 539.39574061 758.3658614 C522.96694762 758.3633376 506.53815587 758.36269299 490.10936272 758.36388404 C488.46947457 758.36399862 488.46947457 758.36399862 486.79645737 758.36411551 C482.35785101 758.36442688 477.91924465 758.36474529 473.48063829 758.36507528 C431.93493765 758.36812714 390.38923919 758.36537143 348.84353889 758.35997838 C311.96186789 758.35522721 275.08020034 758.35566354 238.19852937 758.36043937 C196.69610369 758.36579568 155.19367993 758.36791696 113.69125396 758.36482711 C109.26701475 758.36450641 104.84277553 758.36419357 100.41853631 758.36388404 C98.78466296 758.36376543 98.78466296 758.36376543 97.11778207 758.36364441 C80.6892765 758.36250826 64.26077231 758.36383462 47.83226693 758.3663636 C29.16210474 758.36922344 10.49194648 758.36850643 -8.17821522 758.36308285 C-18.6196442 758.36014954 -29.06106464 758.35995069 -39.50249339 758.36372903 C-46.48163868 758.36597565 -53.46077716 758.36456819 -60.43992145 758.36022426 C-64.41235537 758.35785211 -68.38477239 758.35701834 -72.35720577 758.36063024 C-115.49430795 758.39661238 -115.49430795 758.39661238 -125.21480071 753.16756828 C-126.01281097 752.76199699 -126.81082122 752.3564257 -127.6330136 751.93856437 C-150.82612123 739.91389868 -169.64369812 721.44462075 -177.77339446 696.14413078 C-179.48107183 688.9468013 -179.72965597 681.60223233 -180.01936423 674.23858268 C-180.0614971 673.18787837 -180.10362996 672.13717406 -180.14703958 671.05463023 C-180.5680262 659.73376932 -180.60424515 648.42108496 -180.59178435 637.09383781 C-180.59293998 634.76384145 -180.59453044 632.43384528 -180.5965116 630.10384948 C-180.60064433 623.77391599 -180.59864195 617.44399779 -180.59552538 611.11406429 C-180.59298579 604.96552993 -180.59616895 598.81699695 -180.59867275 592.668463 C-180.60391147 579.33423851 -180.60349294 566.00001884 -180.60059383 552.66579391 C-180.59806937 540.9961578 -180.59742571 529.32652345 -180.59861648 517.65688712 C-180.59869286 516.88012029 -180.59876925 516.10335345 -180.59884795 515.30304822 C-180.59915933 512.14919126 -180.59947774 508.99533431 -180.59980771 505.84147735 C-180.60286058 476.30976544 -180.600103 446.77805658 -180.59471081 417.24634514 C-180.5899659 391.06057934 -180.59039055 364.87481841 -180.59517181 338.68905265 C-180.60053682 309.20826462 -180.60264399 279.72747928 -180.59955954 250.24669082 C-180.59923887 247.09887702 -180.59892602 243.95106323 -180.59861648 240.80324943 C-180.5985374 240.02828672 -180.59845832 239.25332401 -180.59837685 238.45487758 C-180.59724366 226.79809226 -180.59856163 215.14130889 -180.60109603 203.48452384 C-180.60396612 190.21835461 -180.60321751 176.95219091 -180.59781529 163.68602235 C-180.59515285 156.92658944 -180.5941364 150.16716694 -180.59746444 143.40773399 C-180.60047213 137.20481125 -180.59876112 131.00190733 -180.59348689 124.79898627 C-180.5923816 122.57048942 -180.59291117 120.34199095 -180.59536267 118.11349518 C-180.66288258 51.56377066 -180.66288258 51.56377066 -155.33980071 25.54256828 C-137.69158669 8.1870235 -118.31744853 1.2712815 -93.90130889 0.68259818 C-92.64509378 0.65134207 -92.64509378 0.65134207 -91.36350058 0.61945452 C-60.91822325 -0.10900371 -30.45207219 0.0348556 0 0 Z M-35.50654876 90.61300475 C-36.37718617 90.64337081 -37.24782357 90.67373687 -38.14484393 90.70502311 C-42.03004068 90.89145089 -44.16557658 91.03058552 -47.46480071 93.23006828 C-39.66606531 102.5501479 -31.5422899 111.48769374 -23.17573821 120.30038078 C-19.48684937 124.18997491 -15.90802164 128.16363224 -12.34370696 132.16756828 C-10.02116708 134.71705073 -7.58127875 137.12707166 -5.12105071 139.54256828 C-3.44217237 141.25312357 -1.89186936 143.02910516 -0.33980071 144.85506828 C3.42959032 149.23847776 7.52048616 153.2730425 11.65287507 157.31063468 C14.46995831 160.08304323 17.15294625 162.90848067 19.72234834 165.91303642 C23.57955356 170.34099569 27.66525842 174.50091768 31.82206452 178.64632804 C32.61978272 179.44579856 33.41750092 180.24526908 34.2393924 181.06896598 C36.85503071 183.6889754 39.47427435 186.3053452 42.09379304 188.92147453 C43.92564988 190.75400577 45.75735832 192.58668537 47.58892548 194.41950614 C51.41941004 198.25146126 55.25163892 202.08165937 59.08524812 205.9104882 C63.49907286 210.31887212 67.90928398 214.73084655 72.31763608 219.14470256 C76.58202274 223.41419743 80.84924314 227.68084738 85.11764443 231.94632919 C86.92319316 233.75121344 88.72800656 235.55683361 90.53205407 237.36321838 C93.05859606 239.89231539 95.5883483 242.41815849 98.11893952 244.94320304 C99.22346719 246.05076705 99.22346719 246.05076705 100.35030854 247.18070609 C104.36503744 251.17924517 108.47035569 255.00659701 112.77590764 258.69108112 C116.00776642 261.51823554 118.9641949 264.61590443 121.95707429 267.69100578 C125.31291546 271.10097342 128.82464389 274.26151893 132.44242585 277.39120109 C136.02010498 280.53481742 139.45721798 283.82586162 142.91019929 287.10506828 C149.04314819 292.90258514 155.20818295 298.6439479 161.53519929 304.23006828 C162.14621491 304.77018546 162.75723054 305.31030265 163.38676179 305.86678703 C165.42980813 307.66205967 167.48147424 309.44701539 169.53519929 311.23006828 C170.31806306 311.91045158 170.31806306 311.91045158 171.11674226 312.60458 C175.58394531 316.48624574 180.05729313 320.36075535 184.53519929 324.23006828 C185.46187409 325.03081779 185.46187409 325.03081779 186.4072696 325.84774406 C194.02562291 332.42352143 201.70299618 338.90896958 209.53519929 345.23006828 C210.06629304 345.66222648 210.59738679 346.09438468 211.14457429 346.53963859 C256.44272212 386.30193925 256.44272212 386.30193925 311.53519929 405.23006828 C338.90178109 402.41668136 366.62252527 378.58674578 387.53519929 362.23006828 C388.70565018 361.32366069 389.87622316 360.41741072 391.04691804 359.51131828 C404.24487321 349.25217903 417.16369687 338.6600815 429.80424226 327.72274406 C431.57460777 326.19608471 433.35248398 324.67863658 435.13285554 323.16366203 C441.55458166 317.69562315 447.88124656 312.15415137 454.09769929 306.45272453 C456.17792654 304.55585064 458.28076827 302.69613885 460.41019929 300.85506828 C465.09766135 296.77984616 469.63625379 292.54535711 474.19144929 288.32381828 C477.20914529 285.52760455 480.24558943 282.75245969 483.28519929 279.98006828 C494.3231299 269.87809166 505.26973136 259.68163946 515.72660554 248.97616203 C517.7324475 247.01495633 519.70905885 245.22004421 521.84330476 243.41756828 C528.33392538 237.75627943 534.33264797 231.57629355 540.41410554 225.48397453 C541.75339164 224.14536341 543.09282605 222.80690065 544.43240083 221.46857841 C547.22862925 218.67381778 550.02305787 215.87727341 552.81620515 213.07943351 C556.37887946 209.5110625 559.94602526 205.94720064 563.51453984 202.38467128 C566.27801929 199.62482229 569.03909171 196.86257506 571.79946435 194.09961898 C573.11311836 192.78530257 574.42750262 191.47171558 575.74265969 190.15890319 C584.68623727 181.239452 584.68623727 181.239452 593.13369477 171.85395439 C595.23324265 169.42126395 597.49815267 167.17304523 599.78519929 164.91756828 C600.47790925 164.23053825 600.47790925 164.23053825 601.18461335 163.52962882 C603.11659494 161.61364911 605.05464713 159.70385663 606.99223054 157.79354484 C612.18465452 152.66760068 617.27399866 147.51615342 622.01957429 141.96834953 C625.04680744 138.49639398 628.3973612 135.35289841 631.69144929 132.13631828 C634.50309984 129.32914964 637.07922077 126.33859241 639.67875398 123.33602531 C642.8229193 119.7692749 646.12685019 116.35566538 649.41019929 112.91756828 C655.42944187 106.57606514 661.1648797 100.13689597 666.53519929 93.23006828 C662.61780746 90.61847372 659.13918236 90.77212621 654.57694733 90.61300475 C653.64968433 90.57538361 652.72242133 90.53776246 651.76705945 90.49900128 C639.47108536 90.05012449 627.16948449 90.09174699 614.86723054 90.10308463 C612.11695511 90.10248417 609.36668126 90.1003813 606.61640656 90.09835739 C600.67176255 90.09477233 594.72712764 90.0948387 588.78248322 90.09740455 C579.94211515 90.10120977 571.10175467 90.09924157 562.26138664 90.09619624 C546.46632144 90.09094714 530.6712603 90.09138024 514.87619472 90.09427516 C501.05321925 90.09679602 487.23024526 90.09744494 473.4072696 90.09625251 C472.0290459 90.09613793 472.0290459 90.09613793 470.62297929 90.09602104 C466.89270604 90.09570968 463.16243279 90.09539127 459.43215955 90.09506128 C424.47747048 90.09200595 389.522784 90.09476991 354.56809533 90.10015817 C323.5493161 90.10490337 292.53054098 90.10447872 261.51176179 90.09969718 C226.61881681 90.09433635 191.72587411 90.09222268 156.83292878 90.09530945 C153.10966218 90.09563014 149.38639558 90.09594298 145.66312898 90.09625251 C144.28810023 90.09637113 144.28810023 90.09637113 142.88529313 90.09649214 C129.07490966 90.09762705 115.26452784 90.09630412 101.4541446 90.09377296 C85.74271802 90.09090764 70.03129612 90.09164143 54.31987012 90.0970537 C45.53923701 90.09997912 36.75861404 90.10019746 27.97798121 90.09640753 C22.09899749 90.09415101 16.22002184 90.095586 10.3410393 90.0999123 C7.00081642 90.1022711 3.6606298 90.10258464 0.32040513 90.09950631 C-11.62774454 90.08934559 -23.56665975 90.1285766 -35.50654876 90.61300475 Z M-90.46480071 183.23006828 C-90.48769963 233.18503368 -90.5053155 283.13999854 -90.51586604 333.09496816 C-90.51711672 338.99530753 -90.51841104 344.89564689 -90.51973235 350.79598625 C-90.51999466 351.97061612 -90.52025697 353.14524599 -90.52052723 354.35547071 C-90.52487615 373.36406871 -90.53275943 392.37266368 -90.54195351 411.38125988 C-90.55131168 430.8921214 -90.55686091 450.40298134 -90.55888921 469.91384501 C-90.56025993 481.94884756 -90.56458618 493.98384153 -90.57271718 506.01884144 C-90.57801132 514.27654415 -90.57959893 522.53424245 -90.57830209 530.79194673 C-90.57766288 535.55306347 -90.57862891 540.31416525 -90.58400619 545.07527931 C-90.58890156 549.44178428 -90.58909938 553.80826437 -90.58569961 558.17477053 C-90.58527992 559.74701509 -90.58652361 561.31926126 -90.58968389 562.8915027 C-90.60764551 572.38639986 -90.28407586 581.7685068 -89.46480071 591.23006828 C-85.82747091 587.72241155 -82.61307571 584.04728811 -79.52730071 580.04256828 C-79.06202972 579.44452384 -78.59675872 578.84647941 -78.1173886 578.23031242 C-77.10446292 576.92764713 -76.09304491 575.62380841 -75.08296477 574.31893546 C-73.38904327 572.13227397 -71.68927501 569.95026097 -69.98823821 567.76913078 C-64.7292913 561.02292838 -59.48361555 554.26698415 -54.27730071 547.48006828 C-49.51481275 541.27793935 -44.68740609 535.12880629 -39.84712493 528.9873925 C-38.48823452 527.25985926 -37.13396363 525.52881362 -35.78120696 523.79647453 C-30.3663747 516.868602 -24.86968557 510.01467565 -19.31001556 503.20248039 C-15.73118254 498.81008275 -12.20358559 494.38175875 -8.71480071 489.91756828 C-4.05012308 483.95009013 0.71945148 478.0765247 5.53519929 472.23006828 C6.9936427 470.43849121 8.45197446 468.64682325 9.91019929 466.85506828 C13.7258784 462.18702106 17.61512925 457.58611014 21.52128327 452.99398429 C24.22832042 449.80241541 26.87773036 446.57665758 29.47269929 443.29256828 C34.14479521 437.40249215 39.06369516 431.73034605 43.97514069 426.04012687 C45.98709911 423.70575133 47.99029461 421.36395309 49.9932071 419.02181632 C51.9886885 416.68947396 53.98785759 414.3603127 55.98783601 412.03182609 C57.03689395 410.81029759 58.08537855 409.58827651 59.13334382 408.36581046 C65.44027087 401.01436378 71.8248981 393.75969815 78.42216218 386.66708 C83.98962698 380.68142383 89.33379303 374.53480313 94.53519929 368.23006828 C92.96289459 364.18564594 90.08359956 361.72480698 86.91019929 358.91756828 C86.41391023 358.46961906 85.91762116 358.02166984 85.40629304 357.5601464 C82.55986195 354.99980698 79.67651796 352.48315384 76.7871219 349.97152336 C60.90994897 336.0737771 46.12831302 320.97381271 31.22403586 306.05323036 C28.12591546 302.95253675 25.02530903 299.85433048 21.92512238 296.75570304 C16.73443476 291.56682044 11.54582722 286.37586494 6.35844148 281.18368156 C0.38039619 275.20017093 -5.60127752 269.22030573 -11.5847969 263.24226959 C-16.75733017 258.07428442 -21.92789986 252.90434077 -27.09685301 247.7327748 C-30.16925911 244.65881858 -33.24231586 241.58552099 -36.31716048 238.51400382 C-39.20060272 235.63346603 -42.08155763 232.75046277 -44.9606713 229.86559875 C-46.01149091 228.8134664 -47.06314468 227.76216636 -48.11573112 226.7118016 C-53.23231677 221.60501522 -58.27416936 216.47815464 -62.95352256 210.96165092 C-65.78469213 207.71777151 -68.89195478 204.74267777 -71.96480071 201.73006828 C-76.52907818 197.22001432 -81.00382791 192.71952262 -85.07026946 187.74569328 C-86.70327991 185.9708808 -88.52464363 184.65540895 -90.46480071 183.23006828 Z M707.53519929 183.23006828 C705.77961053 185.25314604 704.05922597 187.29517296 702.34769929 189.35506828 C697.34908899 195.29239547 692.08760358 200.85160363 686.52079499 206.25790031 C683.74386073 208.96668644 681.09728539 211.705889 678.59306062 214.67000968 C673.97956925 219.96824965 668.99145724 224.88599546 664.00846589 229.83196647 C662.24767429 231.5798175 660.49018065 233.33092799 658.73344148 235.08285148 C654.37261338 239.43041778 650.00631815 243.77247976 645.64017976 248.11471183 C641.93932857 251.79572508 638.24060673 255.47885385 634.5445987 259.16473014 C632.82575884 260.87715998 631.10390117 262.5865134 629.38187898 264.29574211 C624.39708539 269.25742522 619.48248154 274.23423032 614.93142426 279.6043206 C612.61859532 282.29735098 610.11672534 284.7939392 607.59769929 287.29256828 C607.12396882 287.77016593 606.65023835 288.24776359 606.16215241 288.7398339 C603.49874092 291.39615242 600.76172769 293.91459941 597.90214265 296.35873039 C593.22688957 300.43650085 588.86593202 304.79082354 584.50394929 309.19881828 C583.6685965 310.03795768 582.83324372 310.87709709 581.97257722 311.74166496 C579.32432843 314.40203728 576.67935522 317.06562841 574.03519929 319.73006828 C570.54857328 323.24344101 567.05855003 326.75338798 563.56644929 330.26131828 C562.77975861 331.05630729 561.99306794 331.8512963 561.18253816 332.67037589 C557.02483782 336.84628157 552.79195786 340.86013435 548.3155948 344.69369132 C545.31019177 347.28717795 542.43037831 350.01496628 539.53519929 352.73006828 C534.61444008 357.32422842 529.65532911 361.8572866 524.53519929 366.23006828 C525.92948826 370.56700027 527.93642858 372.92740508 531.22269929 376.04256828 C534.89995658 379.60935003 538.37116042 383.2222834 541.69926179 387.11288078 C543.88726098 389.63606283 546.14813042 392.08561347 548.41019929 394.54256828 C552.55445893 399.08181788 556.46098327 403.76465124 560.32035554 408.54647453 C562.49152755 411.17715385 564.73761286 413.70949252 567.03519929 416.23006828 C570.87711868 420.45020772 574.4963515 424.81034012 578.08598054 429.24569328 C580.85331063 432.61768721 583.68681695 435.92658978 586.53519929 439.23006828 C590.7861421 444.16658274 594.96646327 449.14973802 599.07426179 454.20663078 C601.53385206 457.22841312 604.00975299 460.2361006 606.48954499 463.24129875 C616.23434686 475.05165413 625.95510694 486.87731205 635.37626374 498.94833 C638.82921854 503.36178764 642.36049233 507.7067378 645.91019929 512.04256828 C650.98180661 518.24537794 655.88645573 524.55836306 660.72782624 530.94198234 C664.2808759 535.61797776 667.90748514 540.2242483 671.59769929 544.79256828 C676.15453465 550.44110663 680.54894699 556.19185313 684.8772403 562.01693351 C689.42660975 568.12612925 694.10311893 574.13228294 698.81596101 580.11605461 C701.28484019 583.26517892 703.6956777 586.39810007 705.87894929 589.75350578 C706.69879304 590.97940421 706.69879304 590.97940421 707.53519929 592.23006828 C707.86519929 592.23006828 708.19519929 592.23006828 708.53519929 592.23006828 C709.51563101 528.14266227 709.69348659 464.06357329 709.6637677 399.9694571 C709.65999863 390.890715 709.66135884 381.81198381 709.66557038 372.73324211 C709.69419444 309.55839495 709.48700941 246.39838968 708.53519929 183.23006828 C708.20519929 183.23006828 707.87519929 183.23006828 707.53519929 183.23006828 Z M161.03519929 429.54256828 C157.04235976 433.57796027 153.50336473 437.88419602 149.95316804 442.30819328 C147.40921875 445.38230324 144.75399697 448.31178206 142.03519929 451.23006828 C138.56080428 454.96313736 135.23449452 458.75380134 132.03519929 462.73006828 C128.83586016 466.70638977 125.5091055 470.49650361 122.03519929 474.23006828 C117.80118413 478.78595909 113.80587887 483.48278455 109.90629304 488.32772453 C107.21689634 491.61968787 104.44374334 494.83034337 101.66019929 498.04256828 C97.17274691 503.23378159 92.8887085 508.54680426 88.68681062 513.97054679 C84.87233159 518.86665167 80.86314925 523.57313179 76.80253327 528.26571281 C73.34406143 532.26789174 69.99463805 536.33715823 66.71488679 540.48788078 C63.91484711 544.01051134 61.06707507 547.49321468 58.22269929 550.98006828 C53.63290686 556.61527674 49.10017493 562.29014746 44.62528718 568.01693351 C41.33825422 572.22056009 38.00601429 576.3856466 34.66019929 580.54256828 C30.38849218 585.85554727 26.21878524 591.23708237 22.09769929 596.66756828 C17.76245136 602.38026222 13.33109792 607.99606699 8.78519929 613.54256828 C4.42745514 618.86400739 0.19936667 624.24797322 -3.89448821 629.77694328 C-7.3515469 634.441546 -10.88199468 639.05064688 -14.40230071 643.66756828 C-15.09299651 644.57434318 -15.78369231 645.48111808 -16.49531829 646.41537101 C-19.55744703 650.43225951 -22.62458867 654.4447829 -25.71870696 658.43709953 C-26.42555633 659.34987663 -26.42555633 659.34987663 -27.14668548 660.28109367 C-28.37540644 661.86484421 -29.60747349 663.44599717 -30.83980071 665.02694328 C-32.5637321 666.90793185 -32.5637321 666.90793185 -32.46480071 668.23006828 C24.78393209 668.24724069 82.03266515 668.26315391 139.28139985 668.27241142 C140.55872123 668.2726185 140.55872123 668.2726185 141.86184708 668.27282977 C160.38220737 668.27582486 178.90256769 668.27859473 197.42292804 668.28113361 C206.50942406 668.2823806 215.59592008 668.2836772 224.68241608 668.28499992 C225.58648108 668.28513068 226.49054607 668.28526144 227.42200697 668.28539616 C256.5603392 668.28963371 285.69866945 668.29712685 314.83700049 668.3063655 C344.85899764 668.3158667 374.8809937 668.32196942 404.90299233 668.32398327 C409.17389784 668.32427129 413.44480335 668.32459692 417.71570886 668.32494552 C418.55602677 668.32501294 419.39634468 668.32508037 420.26212676 668.32514983 C432.79930477 668.32624556 445.33647964 668.33023975 457.8736564 668.33579833 C476.71144038 668.3439952 495.54922034 668.34783343 514.38700593 668.34359367 C515.12183562 668.34343728 515.85666531 668.34328089 516.61376257 668.34311976 C560.92608924 668.33286383 605.231317 668.17487468 649.53519929 667.23006828 C648.90648927 666.12153999 648.27777924 665.0130117 647.6300174 663.87089164 C647.09954332 662.9355709 647.09954332 662.9355709 646.55835259 661.98135478 C645.34330771 659.90161591 644.00549012 657.95981761 642.57426179 656.02303703 C642.02769929 655.28110099 641.48113679 654.53916496 640.91801179 653.77474601 C640.0478946 652.60794303 640.0478946 652.60794303 639.16019929 651.41756828 C638.54660554 650.59007072 637.93301179 649.76257316 637.30082429 648.90999992 C631.41737131 641.00861262 625.3783235 633.23214159 619.29838288 625.48153312 C616.90123348 622.4205373 614.51692105 619.34965345 612.1326114 616.27865226 C609.27052307 612.59289633 606.40328674 608.9111569 603.53519929 605.23006828 C603.04954499 604.60648429 602.56389069 603.98290031 602.0635196 603.34041984 C596.23129998 595.85934317 590.30091676 588.46709109 584.30058015 581.120205 C580.97682252 577.03891686 577.72713711 572.91528335 574.53519929 568.73006828 C568.70496295 561.09142261 562.61756902 553.66839155 556.53519929 546.23006828 C554.3247853 543.52342572 552.116513 540.81505415 549.91019929 538.10506828 C549.36975983 537.44160392 548.82932038 536.77813957 548.27250398 536.09457023 C544.78707529 531.80412335 541.36593885 527.46859292 537.97269929 523.10506828 C533.75677042 517.69150219 529.3648957 512.45627858 524.8747989 507.2686425 C521.8723397 503.7986791 518.9262184 500.29426693 516.03519929 496.73006828 C511.16085513 490.73155106 506.1241722 484.87877602 501.0791446 479.02401359 C499.07447122 476.69473781 497.0768939 474.35943636 495.07938874 472.02401359 C493.08298953 469.69109825 491.08321351 467.36109568 489.08256257 465.03182609 C488.03350463 463.81029759 486.98502002 462.58827651 485.93705476 461.36581046 C470.66548353 443.3883311 470.66548353 443.3883311 453.53519929 427.23006828 C448.80241918 428.8016403 445.256729 431.43966494 441.28519929 434.35506828 C422.13812396 448.11280007 401.8859711 460.34947683 381.53519929 472.23006828 C380.80655671 472.65787589 380.07791413 473.08568351 379.32719148 473.526455 C362.32852265 483.40910594 343.49884703 489.35983775 324.53519929 494.23006828 C323.71535554 494.44147453 322.89551179 494.65288078 322.05082429 494.87069328 C295.26277086 498.69755805 268.82306709 488.74729383 245.54545319 476.29403312 C243.43484931 475.17695615 241.30637288 474.10159142 239.17191804 473.03084953 C221.11370588 463.88530715 204.08685323 452.98547297 187.66801179 441.17147453 C183.02460488 437.84003949 178.28840204 434.65216115 173.53519929 431.48006828 C172.35788239 430.69079948 172.35788239 430.69079948 171.15678132 429.88558586 C170.43603425 429.4062963 169.71528718 428.92700675 168.97269929 428.43319328 C168.33203523 428.00683586 167.69137116 427.58047843 167.03129304 427.14120109 C164.080925 425.34440385 163.28471974 427.3153645 161.03519929 429.54256828 Z " fill="#FCFCFC" transform="translate(180.46480071218684,-0.23006827710196376)"/>
</svg>
