<?xml version="1.0" encoding="UTF-8"?>
<svg version="1.1" xmlns="http://www.w3.org/2000/svg" width="761" height="328">
<path d="M0 0 C1.01829391 -0.00262848 1.01829391 -0.00262848 2.05715942 -0.00531006 C4.30448971 -0.00971258 6.55174114 -0.00679062 8.79907227 -0.00341797 C10.37972529 -0.00409279 11.96037821 -0.00506429 13.54103088 -0.00631714 C16.86574281 -0.00779304 20.19042791 -0.00564786 23.51513672 -0.00097656 C27.71297486 0.0046425 31.91074862 0.00138676 36.1085844 -0.00440216 C83.5522341 -0.06053381 83.5522341 -0.06053381 98.99047852 2.87939453 C100.42762207 3.14598877 100.42762207 3.14598877 101.89379883 3.41796875 C120.8897865 7.08916784 139.5493976 14.04526538 154.17797852 27.12939453 C154.96946289 27.78037109 155.76094727 28.43134766 156.57641602 29.10205078 C172.37132513 42.49127374 182.25348382 60.2017761 187.17797852 80.12939453 C187.52860352 81.16064453 187.87922852 82.19189453 188.24047852 83.25439453 C189.05004996 85.73708031 189.50471014 87.85847505 189.74047852 90.44189453 C189.76812443 93.92583119 189.76812443 93.92583119 191.17797852 95.12939453 C192.66341315 105.14664701 192.42067469 115.46186886 192.42797852 125.56689453 C192.42865326 126.40877319 192.429328 127.25065186 192.43002319 128.11804199 C192.38509226 163.46650997 184.88708932 197.2421382 159.36547852 223.25439453 C146.44580186 236.12939453 146.44580186 236.12939453 140.17797852 236.12939453 C140.17797852 236.78939453 140.17797852 237.44939453 140.17797852 238.12939453 C113.24430781 251.38610905 86.68041873 255.25358794 56.91235352 255.36767578 C56.00660835 255.37175131 55.10086319 255.37582684 54.1676712 255.38002586 C49.38627869 255.40073254 44.60491369 255.41510788 39.82348633 255.42456055 C34.90545745 255.43568038 29.98787404 255.47018795 25.07000351 255.50973225 C21.26433492 255.5359081 17.45877345 255.54425252 13.65302277 255.54784203 C11.83981517 255.55269399 10.02661191 255.56426806 8.21349335 255.58288002 C5.67752979 255.6073259 3.14273566 255.60629859 0.60668945 255.59936523 C-0.50008148 255.61858032 -0.50008148 255.61858032 -1.62921143 255.63818359 C-7.03260379 255.58461736 -11.33861486 254.20504346 -15.82202148 251.12939453 C-20.54913675 244.41994061 -19.97058988 235.62146432 -19.96246338 227.71055603 C-19.9654345 226.79394386 -19.96840562 225.8773317 -19.97146678 224.9329434 C-19.98010014 221.87854466 -19.98165743 218.82418535 -19.9831543 215.76977539 C-19.98778605 213.57308367 -19.99281119 211.37639275 -19.99819946 209.17970276 C-20.01128582 203.22535123 -20.01776035 197.27101095 -20.02221012 191.31664729 C-20.02514523 187.59582223 -20.02925074 183.87500023 -20.03371429 180.15417671 C-20.04815957 167.84129494 -20.05749901 155.52842159 -20.06158081 143.21553212 C-20.06180357 142.5528074 -20.06202634 141.89008268 -20.06225586 141.20727539 C-20.06247729 140.54373787 -20.06269872 139.88020034 -20.06292686 139.19655562 C-20.06687846 128.43499541 -20.08434861 117.67350274 -20.10761538 106.91196864 C-20.13133802 95.84998681 -20.14353359 84.78804062 -20.1449573 73.72603327 C-20.14600574 67.5202723 -20.1519227 61.31460688 -20.16977692 55.10886955 C-20.18623535 49.27543699 -20.18842388 43.44217208 -20.17963791 37.60872459 C-20.17886651 35.46856487 -20.18322379 33.32839621 -20.19309616 31.18825912 C-20.20578712 28.26572233 -20.19995432 25.34378199 -20.18951416 22.42124939 C-20.19757056 21.57552382 -20.20562697 20.72979825 -20.21392751 19.85844463 C-20.1647684 13.97051862 -19.27412161 9.04575895 -15.35717773 4.38720703 C-10.0614057 0.31353623 -6.59553372 0.00428491 0 0 Z M34.17797852 42.12939453 C32.73331476 45.01872204 33.05198022 47.51152392 33.05099487 50.74110413 C33.04943488 51.42814421 33.04787489 52.11518429 33.04626763 52.82304376 C33.04226375 55.13620108 33.0454449 57.44929331 33.04858398 59.76245117 C33.04722969 61.41627542 33.04544959 63.07009936 33.04327393 64.72392273 C33.03870336 69.22373542 33.04048752 73.72352526 33.04365301 78.22333837 C33.04617812 82.92342393 33.04383869 87.6235075 33.04226685 92.32359314 C33.04044577 100.21662753 33.04285002 108.10965257 33.04760742 116.00268555 C33.0530518 125.14129798 33.05128586 134.27988811 33.04578102 143.41850001 C33.04125036 151.2520387 33.04059905 159.08557066 33.04321969 166.91911024 C33.04478248 171.60337053 33.04497612 176.28762033 33.0416832 180.97187996 C33.03880511 185.37374102 33.04077902 189.77557318 33.04657745 194.17743111 C33.04790531 195.79763236 33.04751051 197.41783603 33.04531479 199.03803635 C33.04260431 201.24028049 33.0459831 203.44243052 33.05099487 205.64466858 C33.0513719 206.88003892 33.05174892 208.11540926 33.05213737 209.38821507 C32.86539633 212.04145747 32.86539633 212.04145747 34.17797852 213.12939453 C36.91302935 213.26835121 39.62073814 213.34272163 42.35766602 213.36767578 C43.19903107 213.37574753 44.04039612 213.38381927 44.90725708 213.39213562 C46.70467047 213.40601634 48.50211066 213.4167205 50.29956055 213.42456055 C52.10302683 213.43591417 53.9064642 213.45609053 55.7097168 213.48608398 C78.38907932 213.86316051 99.17864939 210.68493489 116.09985352 194.35205078 C119.11315104 191.12918181 121.73402027 187.7990015 124.17797852 184.12939453 C124.61754883 183.50548828 125.05711914 182.88158203 125.51000977 182.23876953 C140.5883932 159.82618751 140.35899967 125.7800755 135.81958008 100.10205078 C132.29920763 82.58080777 123.30964542 65.28527688 108.59985352 54.68408203 C90.38399265 42.99067457 71.04908281 41.94624746 49.99047852 42.06689453 C48.45076644 42.07192256 46.91105276 42.07648315 45.37133789 42.08056641 C41.64018423 42.09146189 37.90909198 42.10865371 34.17797852 42.12939453 Z " fill="#F7F7F7" transform="translate(303.822021484375,30.87060546875)"/>
<path d="M0 0 C1.10829598 -0.00339833 1.10829598 -0.00339833 2.23898178 -0.00686532 C4.72167928 -0.01320954 7.20432225 -0.01237569 9.68702698 -0.0115509 C11.46420869 -0.01454211 13.24138975 -0.01794455 15.01856995 -0.02172852 C19.85115485 -0.03057611 24.68372205 -0.03290693 29.51631427 -0.0335443 C33.5472921 -0.03449282 37.57826578 -0.03817041 41.60924202 -0.0417164 C51.11710606 -0.04986366 60.62496063 -0.05230036 70.13282776 -0.05158997 C79.94908511 -0.05098893 89.76528754 -0.06154532 99.58153099 -0.07733363 C108.00281834 -0.09039693 116.42408772 -0.09577438 124.84538513 -0.09513456 C129.87794521 -0.09487923 134.9104565 -0.0977493 139.94300652 -0.10831261 C144.67486217 -0.11797337 149.40662217 -0.1180867 154.13848114 -0.11079597 C155.87675427 -0.10974765 157.61503329 -0.11212767 159.35329628 -0.11815643 C161.72311177 -0.1258443 164.09259431 -0.12125299 166.46240234 -0.11352539 C167.15296626 -0.11866895 167.84353018 -0.12381252 168.55502027 -0.12911195 C172.11900388 -0.10336609 174.83481545 0.05104122 177.79469299 2.13371277 C181.6340851 8.41081415 181.27668934 14.88303082 181.23219299 22.07121277 C181.25217346 23.21267761 181.27215393 24.35414246 181.29273987 25.53019714 C181.28877182 32.39888404 180.9703962 38.95800956 175.79469299 44.13371277 C173.76975068 44.22780756 171.74149429 44.25114398 169.71437073 44.24723816 C167.76246071 44.24712486 167.76246071 44.24712486 165.77111816 44.24700928 C164.34017397 44.24190186 162.90923017 44.23668585 161.47828674 44.23136902 C160.02240039 44.2295048 158.56651342 44.22808091 157.11062622 44.2270813 C153.2718992 44.22325642 149.4332098 44.21342641 145.59449768 44.20237732 C141.68011484 44.19216254 137.76572594 44.18758354 133.85133362 44.18254089 C126.16576956 44.1718041 118.48023654 44.15472806 110.79469299 44.13371277 C110.7969136 45.04789474 110.79913422 45.96207672 110.80142212 46.90396118 C110.87060323 76.98065216 110.85924803 107.05701876 110.79469299 137.13371277 C110.79215263 138.38382645 110.78961227 139.63394012 110.78699493 140.92193604 C110.75457779 156.52866868 110.70310725 172.13511851 110.6091814 187.74161243 C110.57095198 194.10611917 110.53924577 200.47049126 110.52397156 206.83509827 C110.50906104 212.86313997 110.47509559 218.89077533 110.42644691 224.91863632 C110.41164657 227.15085267 110.40364954 229.38312553 110.40279198 231.61539078 C110.40044932 234.6715149 110.37365727 237.72647083 110.34059143 240.78239441 C110.34813745 242.12691004 110.34813745 242.12691004 110.35583591 243.49858761 C110.253977 249.51430483 110.253977 249.51430483 107.93530273 252.64135742 C101.39481372 257.20114876 93.78993626 256.50603624 86.16456604 256.50431824 C83.99815067 256.50868064 81.83379428 256.54502126 79.66773987 256.58293152 C64.2049562 256.71334778 64.2049562 256.71334778 58.79469299 252.13371277 C56.53286046 247.81395464 56.51547354 243.67888933 56.54745483 238.91516113 C56.54504042 238.09150612 56.542626 237.2678511 56.54013842 236.41923684 C56.53450637 233.66162777 56.54316076 230.90425085 56.55177307 228.14665222 C56.55070009 226.16888873 56.54876117 224.19112554 56.54602051 222.21336365 C56.54117254 216.84383093 56.54882662 211.4743813 56.55897355 206.10485864 C56.56775188 200.49103911 56.56599667 194.87722221 56.56561279 189.26339722 C56.56654934 179.83888863 56.57523327 170.41441224 56.58888245 160.98991394 C56.60462152 150.08182221 56.60988008 139.17376571 56.60914689 128.26566344 C56.60853738 117.78288998 56.61363496 107.30012803 56.62193871 96.81735802 C56.62547614 92.35048012 56.62730261 87.8836063 56.62783241 83.41672707 C56.62883413 78.1628553 56.63491669 72.90901332 56.64499855 67.65515137 C56.64792851 65.72253285 56.64914792 63.78991092 56.64857101 61.85729027 C56.6480831 59.22859928 56.65370843 56.59999274 56.66098022 53.97131348 C56.65943162 53.19846915 56.65788302 52.42562482 56.65628749 51.62936097 C56.68051376 46.36207124 56.68051376 46.36207124 57.79469299 44.13371277 C56.97672241 44.14259521 56.15875183 44.15147766 55.31599426 44.16062927 C47.60601394 44.24078962 39.89623576 44.30168416 32.18594742 44.34096146 C28.22201506 44.36183329 24.25842712 44.39014276 20.29469299 44.43547058 C16.46916572 44.47894396 12.64396965 44.50285292 8.81821442 44.51322174 C7.35893795 44.52061055 5.89967953 44.53503941 4.44054413 44.556633 C2.39576099 44.58568901 0.35234479 44.58966818 -1.69261169 44.58781433 C-3.43801239 44.601138 -3.43801239 44.601138 -5.21867371 44.61473083 C-8.83644902 44.03206296 -9.97596082 42.9785126 -12.20530701 40.13371277 C-14.56468517 34.30767973 -14.515616 27.7679617 -14.45530701 21.57121277 C-14.46304138 20.77263855 -14.47077576 19.97406433 -14.47874451 19.15129089 C-14.46139656 13.82980688 -13.68131942 9.2470415 -12.20530701 4.13371277 C-11.54530701 4.13371277 -10.88530701 4.13371277 -10.20530701 4.13371277 C-10.20530701 3.14371277 -10.20530701 2.15371277 -10.20530701 1.13371277 C-6.72650588 -0.02588761 -3.61776623 -0.00808678 0 0 Z " fill="#F5F5F5" transform="translate(75.20530700683594,30.866287231445313)"/>
<path d="M0 0 C0.74294754 -0.00311998 1.48589508 -0.00623996 2.25135618 -0.00945449 C4.74793748 -0.01744989 7.24427676 -0.01110488 9.74085999 -0.00482178 C11.52789452 -0.00753098 13.31492794 -0.01109151 15.10195923 -0.01544189 C19.96142704 -0.02457724 24.82081015 -0.02101675 29.68027949 -0.01468372 C34.76066111 -0.00962887 39.84103535 -0.01431381 44.92141724 -0.01745605 C53.45499476 -0.02109753 61.98853771 -0.01629218 70.52210999 -0.0067749 C80.39290418 0.00410651 90.26361575 0.00058707 100.13440794 -0.01042771 C108.6024086 -0.01949956 117.07038436 -0.02078626 125.53838831 -0.01555037 C130.59888823 -0.01242967 135.65934929 -0.01202404 140.71984673 -0.01862335 C145.47797583 -0.02439456 150.23599827 -0.02040401 154.99411583 -0.00883484 C156.74206108 -0.0061869 158.49001529 -0.00695562 160.237957 -0.01136017 C162.620918 -0.01681188 165.00353558 -0.0099861 167.38647461 0 C168.08092947 -0.00446144 168.77538434 -0.00892289 169.49088329 -0.01351953 C173.05617405 0.0155306 175.79071452 0.17213219 178.75672913 2.25396729 C181.98545402 8.71141708 181.93957657 14.93207496 181.94422913 22.00396729 C181.95647522 22.96818604 181.96872131 23.93240479 181.9813385 24.92584229 C182.00798321 37.99951487 182.00798321 37.99951487 178.58319092 42.95045471 C175.86037252 44.8936807 173.67532948 44.61350214 170.3575592 44.59454346 C169.71338547 44.59498154 169.06921173 44.59541962 168.40551758 44.59587097 C166.27878892 44.59378287 164.15285111 44.57045242 162.02626038 44.54693604 C160.55081615 44.54134012 159.07536635 44.53707 157.59991455 44.53407288 C153.71833379 44.52262365 149.83709029 44.49315615 145.9556427 44.45996094 C141.9942023 44.42926152 138.03270735 44.41556784 134.07118225 44.40045166 C126.29954419 44.36828623 118.52818393 44.31708933 110.75672913 44.25396729 C110.75857271 45.30679523 110.7604163 46.35962318 110.76231575 47.44435501 C110.80667902 73.04048203 110.83956361 98.63660407 110.86035347 124.23276138 C110.87067404 136.61077489 110.88474928 148.98876303 110.90760803 161.36676025 C110.92751802 172.15312617 110.94043988 182.93947372 110.94490612 193.7258575 C110.94751755 199.43922241 110.95367176 205.15253477 110.96818924 210.86588287 C110.98173537 216.2403551 110.98595778 221.61475297 110.98294449 226.98924065 C110.98349598 228.96455985 110.98749105 230.93988146 110.99514008 232.91518593 C111.00505484 235.60700159 111.0027107 238.29853457 110.99723816 240.99035645 C111.00306384 241.77634948 111.00888952 242.56234251 111.01489174 243.37215352 C110.97756725 250.14007938 110.97756725 250.14007938 108.75672913 253.25396729 C101.64050522 257.11708628 93.10395703 256.6755778 85.25672913 256.56646729 C83.51842834 256.57130127 83.51842834 256.57130127 81.74501038 256.57623291 C64.79720864 256.47090759 64.79720864 256.47090759 59.65532303 252.72174454 C56.99801786 249.26780042 57.21403741 246.13345004 57.27571106 241.95239258 C57.27229336 241.10776309 57.26887566 240.26313361 57.26535439 239.39290929 C57.25875735 236.55816584 57.28078152 233.72436592 57.30262756 230.88970947 C57.30375565 228.85958885 57.30312295 226.8294666 57.30085754 224.79934692 C57.29970795 219.28308837 57.32325719 213.76717637 57.35115337 208.2509985 C57.37612602 202.4881102 57.37850576 196.72521433 57.383255 190.96228027 C57.39569694 180.04713558 57.4285351 169.13215077 57.46865296 158.21707654 C57.51333273 145.79160791 57.53534818 133.36613172 57.5554347 120.94060278 C57.5972666 95.37830224 57.66764239 69.81614371 57.75672913 44.25396729 C56.95128662 44.26284973 56.14584412 44.27173218 55.31599426 44.28088379 C47.72374367 44.36104733 40.1316984 44.42194026 32.53913498 44.46121597 C28.63573395 44.48208698 24.73268273 44.51039485 20.82948303 44.5557251 C17.06230992 44.59920156 13.29547318 44.62310806 9.52806854 44.63347626 C8.09111994 44.64086452 6.65418966 44.65529235 5.21738434 44.67688751 C3.20431487 44.70593931 1.1909066 44.70760133 -0.82237244 44.70806885 C-1.96820801 44.71695129 -3.11404358 44.72583374 -4.29460144 44.73498535 C-7.89536529 44.14759077 -9.01337595 43.07827749 -11.24327087 40.25396729 C-14.00425476 34.84697207 -13.57378644 29.44189909 -13.55577087 23.50396729 C-13.57188416 22.45724854 -13.58799744 21.41052979 -13.604599 20.33209229 C-13.6085431 14.02153171 -13.30817167 7.91641736 -10.24327087 2.25396729 C-6.66355736 -0.13250839 -4.13087505 -0.02645335 0 0 Z " fill="#F6F6F6" transform="translate(519.2432708740234,30.74603271484375)"/>
<path d="M0 0 C1.32 0.33 2.64 0.66 4 1 C2.35 2.98 0.7 4.96 -1 7 C-1.625 5.1875 -1.625 5.1875 -2 3 C-1.34 2.01 -0.68 1.02 0 0 Z " fill="#8A8A8A" transform="translate(510,32)"/>
</svg>
