<?xml version="1.0" encoding="UTF-8"?>
<svg version="1.1" xmlns="http://www.w3.org/2000/svg" width="753" height="331">
<path d="M0 0 C0.83039291 -0.00511093 1.66078583 -0.01022186 2.51634216 -0.01548767 C5.25787625 -0.02936293 7.99915762 -0.02842537 10.74072266 -0.02612305 C12.67005504 -0.03001723 14.59938658 -0.03435338 16.52871704 -0.03910828 C20.5821611 -0.0465706 24.63551814 -0.04628358 28.68896484 -0.04101562 C32.80073073 -0.03641733 36.91219866 -0.04317082 41.02392578 -0.06152344 C85.07372546 -0.25662952 85.07372546 -0.25662952 104.52978516 3.2746582 C105.4896785 3.44208023 106.44957184 3.60950226 107.43855286 3.78199768 C128.0447551 7.42567177 146.52107861 15.81997227 162.52978516 29.2746582 C163.23103516 29.84055664 163.93228516 30.40645508 164.65478516 30.98950195 C170.07695332 35.49032514 174.33408703 40.63065424 178.52978516 46.2746582 C179.04283203 46.94883789 179.55587891 47.62301758 180.08447266 48.31762695 C198.97952976 74.71963917 202.15587751 107.83682927 201.52978516 139.2746582 C201.51093262 140.42321289 201.51093262 140.42321289 201.49169922 141.5949707 C201.23443963 154.15343895 199.48521773 166.07101813 196.52978516 178.2746582 C196.34931641 179.01989746 196.16884766 179.76513672 195.98291016 180.53295898 C192.20836552 195.60080635 186.21602947 210.02320089 176.52978516 222.2746582 C175.81822266 223.19891602 175.10666016 224.12317383 174.37353516 225.07543945 C154.87074868 249.75447919 124.89058351 261.8375284 94.34106445 265.87207031 C75.95498305 267.94630793 57.41329692 267.61427184 38.9387207 267.59033203 C34.02990643 267.58447205 29.12146153 267.60167247 24.21270847 267.6246767 C20.39936646 267.63941074 16.58611438 267.64028753 12.77274895 267.63716698 C10.96152945 267.63767778 9.1503046 267.64286996 7.33911324 267.6529789 C4.81851903 267.66535499 2.29865912 267.65855108 -0.22192383 267.64697266 C-0.95700668 267.65461639 -1.69208954 267.66226013 -2.44944763 267.6701355 C-7.58178105 267.61819016 -10.99517972 266.612773 -15.47021484 264.2746582 C-18.85997546 260.61728491 -20.59333301 258.15840519 -20.60164261 253.20344925 C-20.60740433 251.91765343 -20.60740433 251.91765343 -20.61328244 250.60588193 C-20.61241596 249.65862705 -20.61154948 248.71137217 -20.61065674 247.7354126 C-20.61362786 246.73338326 -20.61659898 245.73135393 -20.61966014 244.69896007 C-20.62837657 241.31956207 -20.62985787 237.94019938 -20.63134766 234.56079102 C-20.63597377 232.14661584 -20.64099815 229.7324414 -20.64639282 227.31826782 C-20.65953926 220.74381373 -20.66600268 214.16936702 -20.67040348 207.59490299 C-20.67316454 203.49052107 -20.67740168 199.3861415 -20.68190765 195.28176117 C-20.69410244 183.92051466 -20.70440085 172.55927004 -20.70778275 161.19801712 C-20.70800231 160.47056437 -20.70822188 159.74311161 -20.7084481 158.99361484 C-20.70866637 158.26440659 -20.70888465 157.53519834 -20.70910954 156.78389287 C-20.70955301 155.30620527 -20.70999958 153.82851767 -20.71044922 152.35083008 C-20.71067065 151.61784371 -20.71089208 150.88485734 -20.71112022 150.12965927 C-20.71506753 138.25480234 -20.73251855 126.38000681 -20.75580874 114.50517359 C-20.77952116 102.3167651 -20.79198457 90.12838741 -20.79315066 77.93995547 C-20.79406757 71.09530467 -20.79982358 64.25073383 -20.81797028 57.40610504 C-20.83497916 50.96786297 -20.83662465 44.52973221 -20.82783127 38.09147263 C-20.82705886 35.72675292 -20.83143023 33.36202518 -20.84128952 30.9973259 C-20.85394967 27.77198106 -20.84816417 24.54717907 -20.83770752 21.32183838 C-20.84576392 20.38350639 -20.85382033 19.44517439 -20.86212087 18.4784081 C-20.81668527 12.49629257 -19.83066165 8.42192061 -16.15771484 3.5246582 C-11.35349768 -0.03402118 -5.74116376 -0.01840153 0 0 Z M33.52978516 44.2746582 C33.43217176 46.60232834 33.39980751 48.90027839 33.40953064 51.22840881 C33.40867621 51.96430266 33.40782179 52.70019651 33.40694147 53.45839018 C33.40528448 55.94282466 33.41081159 58.42719275 33.41625977 60.91162109 C33.41654162 62.68514504 33.41638395 64.45866911 33.41581726 66.23219299 C33.4155292 71.06256837 33.42142725 75.89291914 33.42839122 80.72328877 C33.43462339 85.76551137 33.43522845 90.80773447 33.43641663 95.84996033 C33.43953035 105.40516047 33.44774428 114.96034923 33.45776612 124.51554435 C33.46892599 135.39081254 33.47443739 146.26608125 33.47946155 157.14135373 C33.48992686 179.51912821 33.50752709 201.89689257 33.52978516 224.2746582 C37.59624784 224.29188489 41.66269585 224.30423834 45.72918701 224.31242371 C47.10736461 224.31584258 48.4855398 224.32050431 49.8637085 224.32652283 C71.09742467 224.41680716 94.60455277 224.22065937 112.52978516 211.2746582 C113.50818359 210.62303711 113.50818359 210.62303711 114.50634766 209.95825195 C121.86571962 204.96327396 126.65700244 198.62473094 131.52978516 191.2746582 C132.58166016 189.6968457 132.58166016 189.6968457 133.65478516 188.0871582 C141.46514202 173.80727827 144.01868021 156.24668763 144.52978516 140.2746582 C144.56265625 139.27112305 144.56265625 139.27112305 144.59619141 138.24731445 C145.31504979 112.89557545 141.62720417 85.46894096 124.27978516 65.7121582 C110.92355711 53.87368335 95.05550994 44.46934216 76.66357422 44.0534668 C75.72620422 44.03029388 74.78883423 44.00712097 73.82305908 43.98324585 C72.82393494 43.9633963 71.82481079 43.94354675 70.79541016 43.9230957 C69.24475861 43.88836655 69.24475861 43.88836655 67.66278076 43.85293579 C65.48421882 43.80541827 63.30560636 43.76016992 61.12695312 43.71704102 C57.77796214 43.6496215 54.4293127 43.57195965 51.08056641 43.4934082 C48.96469397 43.44852121 46.84880881 43.40422952 44.73291016 43.3605957 C43.72568909 43.33669769 42.71846802 43.31279968 41.6807251 43.28817749 C40.75596375 43.2713089 39.83120239 43.25444031 38.87841797 43.23706055 C38.06076965 43.22009125 37.24312134 43.20312195 36.4006958 43.18563843 C34.51508763 43.06512209 34.51508763 43.06512209 33.52978516 44.2746582 Z " fill="#7233A1" transform="translate(324.47021484375,46.725341796875)"/>
<path d="M0 0 C0.78872104 -0.00623996 1.57744208 -0.01247993 2.39006376 -0.01890898 C5.03577695 -0.03487757 7.68057375 -0.02221999 10.32629395 -0.00964355 C12.22185301 -0.01506297 14.11740786 -0.02218461 16.01295471 -0.03088379 C21.16375336 -0.04914157 26.31423205 -0.04203945 31.46503639 -0.02936745 C36.85104877 -0.01925251 42.23703344 -0.02862893 47.62304688 -0.03491211 C56.66854785 -0.0421929 65.71391826 -0.03258945 74.75939941 -0.0135498 C85.22275553 0.00821972 95.6857999 0.00116866 106.14914846 -0.02085543 C115.12673918 -0.03899709 124.10423596 -0.04157378 133.08183908 -0.03110075 C138.44641131 -0.02485904 143.81083693 -0.02404882 149.17539978 -0.0372467 C154.21846067 -0.0487866 159.26111896 -0.04081347 164.30413628 -0.01766968 C166.1568936 -0.01237264 168.0096847 -0.01391331 169.86242867 -0.02272034 C172.38799395 -0.03362035 174.91226196 -0.01998034 177.43774414 0 C178.54260391 -0.01338433 178.54260391 -0.01338433 179.66978407 -0.02703905 C183.06452913 0.02520487 184.8965238 0.2615253 187.62828827 2.34973907 C192.08569634 8.39780647 191.55459482 15.69317211 191.53137207 22.88293457 C191.54748535 23.87293457 191.56359863 24.86293457 191.5802002 25.88293457 C191.58426921 32.05155473 191.17988941 37.96806607 188.21887207 43.50793457 C184.57505919 45.93714316 182.88274762 45.75079022 178.54431152 45.73498535 C177.87087708 45.7352774 177.19744263 45.73556946 176.50360107 45.73587036 C174.27965368 45.73447801 172.05604212 45.7189216 169.83215332 45.70324707 C168.28944583 45.6995166 166.74673597 45.69666979 165.20402527 45.69467163 C161.14498343 45.68703787 157.08608487 45.66739163 153.02709961 45.64526367 C148.88466327 45.62479969 144.74220377 45.61566874 140.59973145 45.60559082 C132.47271259 45.58414545 124.34581016 45.55001265 116.21887207 45.50793457 C116.22071566 46.6235291 116.22255924 47.73912363 116.22445869 48.88852406 C116.26881018 76.0031274 116.30170093 103.11772605 116.32249641 130.23235798 C116.33281962 143.34465637 116.34689986 156.45693083 116.36975098 169.56921387 C116.38965293 180.99464867 116.4025809 192.42006616 116.40704906 203.84551781 C116.40966186 209.89811006 116.4158247 215.95065274 116.43033218 222.00322914 C116.44386565 227.6953374 116.44810332 233.38737547 116.44508743 239.07949829 C116.4456395 241.17295398 116.44964206 243.26641192 116.45728302 245.35985374 C116.467178 248.20966049 116.46486094 251.05919938 116.4593811 253.90901184 C116.46520679 254.7446091 116.47103247 255.58020635 116.47703469 256.44112474 C116.45674791 260.32246842 116.42260696 262.20233224 114.21887207 265.50793457 C106.14328426 269.12539031 97.32760326 268.96368064 88.65637207 268.88293457 C86.78175293 268.90033691 86.78175293 268.90033691 84.8692627 268.91809082 C68.2784532 268.86578138 68.2784532 268.86578138 62.61863726 264.18431443 C60.18653636 261.27159378 60.82016839 257.53693196 60.85810852 253.90901184 C60.85554525 253.0203177 60.85298197 252.13162357 60.85034102 251.21599931 C60.84538396 248.22629612 60.86192775 245.2370935 60.8782959 242.24743652 C60.87914176 240.10909029 60.87866784 237.97074319 60.87696838 235.83239746 C60.87610539 230.01656904 60.89378038 224.20092513 60.91469026 218.3851397 C60.93340642 212.31126855 60.9352035 206.23739347 60.93876648 200.16349792 C60.94810184 188.65690913 60.9727358 177.15040554 61.00281495 165.64385432 C61.03631258 152.54610154 61.0528333 139.44834476 61.06790125 126.35055983 C61.09928405 99.40297078 61.15207351 72.45545744 61.21887207 45.50793457 C59.95100105 45.51126549 59.95100105 45.51126549 58.65751648 45.5146637 C50.69701846 45.53468973 42.73652888 45.54992054 34.77601147 45.55974674 C30.68330499 45.56496828 26.59061931 45.57205274 22.4979248 45.58337402 C18.54924121 45.59422875 14.60057763 45.60021691 10.65188026 45.60281181 C9.14437864 45.60466139 7.63687812 45.60827307 6.12938499 45.61366463 C4.02011104 45.62090934 1.91092011 45.62192406 -0.19836426 45.62145996 C-1.39971512 45.62368057 -2.60106598 45.62590118 -3.83882141 45.62818909 C-6.78112793 45.50793457 -6.78112793 45.50793457 -9.78112793 44.50793457 C-15.55017108 33.19173455 -14.95442415 18.75712312 -12.60925293 6.48840332 C-10.08452965 0.45050379 -5.98665217 -0.07252262 0 0 Z " fill="#7233A1" transform="translate(81.7811279296875,46.4920654296875)"/>
<path d="M0 0 C0.74628981 0.00241508 1.49257962 0.00483017 2.26148427 0.00731844 C3.44812788 -0.00053658 3.44812788 -0.00053658 4.6587441 -0.00855029 C7.32423624 -0.02361831 9.98953757 -0.02425692 12.65506947 -0.02492338 C14.56018347 -0.03254031 16.46529439 -0.04096699 18.3704015 -0.05014616 C23.55634254 -0.07214419 28.74222461 -0.08089717 33.92820704 -0.08597261 C37.16554894 -0.08960993 40.40287525 -0.09584671 43.64021122 -0.102974 C54.92674644 -0.12748693 66.21323556 -0.14052437 77.49979603 -0.14406401 C88.03243126 -0.14770071 98.56477532 -0.17760105 109.09732151 -0.21946859 C118.13005619 -0.25411985 127.16269416 -0.26961155 136.19549489 -0.27031004 C141.59481911 -0.27110463 146.993847 -0.27992619 152.39310277 -0.30830771 C157.47063024 -0.33439992 162.54761385 -0.33674318 167.6251775 -0.32065207 C169.49085241 -0.3188305 171.35655796 -0.32559172 173.22216618 -0.34147078 C175.76554554 -0.36180214 178.30699876 -0.35145748 180.85035145 -0.33325773 C181.59217982 -0.3464577 182.33400818 -0.35965767 183.09831619 -0.37325764 C186.84724607 -0.3118 188.37389878 -0.01783905 191.10993588 2.63239378 C194.50942793 8.3575819 193.90420357 14.08165604 193.92313588 20.56833833 C193.93281656 22.57635337 193.96401441 24.58422692 193.9954015 26.59201998 C194.00313588 28.50531099 194.00313588 28.50531099 194.0110265 30.45725435 C194.0203722 31.62168062 194.02971791 32.78610689 194.03934681 33.9858188 C193.63508643 37.72356597 192.65218273 40.09364865 190.6829015 43.2814731 C187.05860704 45.69766941 185.41151788 45.52446244 181.10013783 45.50852388 C180.43645695 45.50881593 179.77277607 45.50910799 179.08898365 45.50940889 C176.89749989 45.50801667 174.70635705 45.49246089 172.51493275 45.4767856 C170.99464554 45.47305508 169.47435592 45.47020829 167.95406544 45.46821016 C163.95420636 45.46057676 159.95449271 45.44093084 155.95469105 45.4188022 C151.87257809 45.39833744 147.79044161 45.3892071 143.70829213 45.37912935 C135.69976188 45.35768462 127.69134978 45.32355227 119.6829015 45.2814731 C119.68981495 46.95348221 119.68981495 46.95348221 119.69686806 48.65926927 C119.80777048 75.75749113 119.88998485 102.85568362 119.94196236 129.95408434 C119.96776517 143.05857582 120.00295556 156.16291756 120.06009877 169.26731294 C120.10986992 180.68653224 120.14217739 192.10564311 120.15334398 203.52496785 C120.15987333 209.57379426 120.17526265 215.62231045 120.21155179 221.67103761 C120.24541166 227.36078404 120.2559746 233.05009154 120.24843991 238.73992914 C120.24981893 240.8313726 120.25981062 242.92283027 120.27892888 245.0141868 C120.30371028 247.86410082 120.29786119 250.71234534 120.28417408 253.56229585 C120.3060204 254.81132248 120.3060204 254.81132248 120.32830805 256.08558196 C120.27631489 260.07499258 120.09541835 261.85539502 117.26839936 264.77535051 C109.56273621 269.26410818 100.47384396 268.61704536 91.8079015 268.5939731 C90.00385853 268.61814302 90.00385853 268.61814302 88.16337025 268.64280123 C80.67500042 268.64686657 73.69911723 268.0832396 66.6829015 265.2814731 C64.07626056 262.67483216 64.44325722 260.86750942 64.42473888 257.31757146 C64.43347741 256.05396989 64.43347741 256.05396989 64.44239247 254.76484102 C64.44068362 253.87291776 64.43897477 252.98099449 64.43721414 252.06204325 C64.43390423 249.05551649 64.44494754 246.04920998 64.45585072 243.04270357 C64.45641451 240.89465268 64.45609891 238.7466014 64.45496571 236.59855074 C64.45438994 230.75171471 64.46618046 224.90496011 64.48011363 219.05814308 C64.4925837 212.95356429 64.49378854 206.8489838 64.49616444 200.74439424 C64.50239019 189.17758785 64.51881577 177.61081909 64.53886342 166.0440293 C64.56118842 152.87857963 64.57220729 139.71312821 64.58225429 126.54766434 C64.60318108 99.45891303 64.63837826 72.37019517 64.6829015 45.2814731 C63.82734669 45.29035555 62.97179188 45.29923799 62.09031117 45.3083896 C54.02716566 45.38854069 45.96415396 45.44944005 37.90070164 45.48872179 C33.7551748 45.50959598 29.60997716 45.53790995 25.46463978 45.58323091 C21.46404993 45.62669559 17.46377669 45.65061148 13.46296895 45.66098207 C11.93670873 45.66837241 10.41046582 45.68280421 8.88434041 45.70439333 C6.74617536 45.73343734 4.60931804 45.73742895 2.47098744 45.73557466 C0.64564473 45.74889833 0.64564473 45.74889833 -1.2165736 45.76249117 C-4.93751053 45.18522185 -6.05887411 44.23508749 -8.3170985 41.2814731 C-10.75022346 35.27204065 -10.65032856 29.32450029 -10.6295985 22.9064731 C-10.64571178 21.9164731 -10.66182506 20.9264731 -10.67842662 19.9064731 C-10.68257549 13.61679283 -10.06181271 8.01324631 -7.3170985 2.2814731 C-4.83496003 -0.20066537 -3.38785613 0.03534241 0 0 Z " fill="#7233A1" transform="translate(547.3170984983444,46.718526899814606)"/>
</svg>
