<?xml version="1.0" encoding="UTF-8"?>
<svg version="1.1" xmlns="http://www.w3.org/2000/svg" width="1048" height="1048">
<path d="M0 0 C1.31195847 -0.00701431 2.62391693 -0.01402863 3.97563171 -0.02125549 C8.18558237 -0.0406485 12.39547792 -0.04568933 16.60546875 -0.046875 C17.32262054 -0.04731686 18.03977234 -0.04775871 18.77865601 -0.04821396 C40.26178153 -0.05515664 61.47271136 0.23621889 82.79296875 3.203125 C84.06092285 3.36941406 85.32887695 3.53570312 86.63525391 3.70703125 C117.5539627 7.82596618 148.12317925 14.56414235 177.79296875 24.203125 C178.96375977 24.58194824 180.13455078 24.96077148 181.34082031 25.35107422 C244.44126541 45.97064403 302.97204654 78.47563517 353.79296875 121.203125 C354.31391113 121.63915039 354.83485352 122.07517578 355.37158203 122.52441406 C368.77643345 133.76870505 381.40049016 145.7309177 393.79296875 158.078125 C394.67734619 158.95782959 395.56172363 159.83753418 396.47290039 160.74389648 C401.45421184 165.73751097 406.20824752 170.84534924 410.79296875 176.203125 C411.81438004 177.35986524 412.83777875 178.514854 413.86328125 179.66796875 C421.96578854 188.84993487 429.47459042 198.38862781 436.79296875 208.203125 C437.50815674 209.15421143 437.50815674 209.15421143 438.23779297 210.12451172 C495.35160665 286.109673 529.89122235 376.84606574 539.79296875 471.203125 C539.9101123 472.27643066 540.02725586 473.34973633 540.14794922 474.45556641 C549.73908068 566.16274465 532.59580558 661.32738697 430.81811523 847.48608398 C428.16773478 850.74582843 425.48561835 853.97826705 422.79296875 857.203125 C422.31085937 857.78433105 421.82875 858.36553711 421.33203125 858.96435547 C415.16906568 866.38928187 408.79789062 873.58738156 402.22851562 880.65429688 C400.71750919 882.2845392 399.21539179 883.92262881 397.71484375 885.5625 C390.48841485 893.45143649 383.23967516 901.1849242 375.11328125 908.1640625 C372.75257531 910.23862227 370.45353612 912.36781164 368.15722656 914.51293945 C361.9052576 920.34889942 355.49692074 925.88588089 348.79296875 931.203125 C347.73816091 932.05063149 346.6834785 932.89829412 345.62890625 933.74609375 C331.57374979 944.98037867 316.93141806 955.47840214 301.79296875 965.203125 C300.65166504 965.93716553 300.65166504 965.93716553 299.48730469 966.68603516 C229.6859104 1011.3161182 150.97743599 1037.47436544 68.79296875 1046.203125 C67.66971191 1046.32316895 66.54645508 1046.44321289 65.38916016 1046.56689453 C32.60606249 1049.88927159 -1.4481178 1049.60829087 -34.20703125 1046.203125 C-35.40618164 1046.07953613 -36.60533203 1045.95594727 -37.84082031 1045.82861328 C-101.9367672 1038.94151297 -163.69058395 1020.170577 -221.20703125 991.203125 C-222.17753418 990.7184375 -223.14803711 990.23375 -224.14794922 989.734375 C-258.26342774 972.63108365 -290.08298608 950.82618137 -319.20703125 926.203125 C-319.71685547 925.77676758 -320.22667969 925.35041016 -320.75195312 924.91113281 C-333.83041086 913.9662044 -346.18547299 902.29411221 -358.26953125 890.265625 C-358.95958252 889.58024658 -359.64963379 888.89486816 -360.3605957 888.1887207 C-364.28823573 884.24865598 -368.03003927 880.19948979 -371.66381836 875.98706055 C-373.54914689 873.80764343 -375.50188342 871.69491891 -377.45703125 869.578125 C-382.00186406 864.54112755 -386.16804316 859.26150106 -390.3203125 853.90234375 C-392.24553637 851.42049191 -394.20039006 848.96773104 -396.1875 846.53515625 C-403.36859494 837.73627817 -409.92801125 828.66422463 -416.20703125 819.203125 C-416.7081543 818.45466309 -417.20927734 817.70620117 -417.72558594 816.93505859 C-471.61912121 736.29622684 -506.03083796 638.60916998 -506.41015625 540.90625 C-506.41717056 539.68603653 -506.42418488 538.46582306 -506.43141174 537.20863342 C-506.44881683 533.29009258 -506.45526474 529.37170309 -506.45703125 525.453125 C-506.45769403 524.44972391 -506.45769403 524.44972391 -506.45837021 523.42605209 C-506.46571905 502.19341998 -505.97650276 481.27673155 -503.20703125 460.203125 C-503.03866215 458.86805173 -502.8707014 457.53292691 -502.703125 456.19775391 C-491.70440546 369.84283773 -458.75508823 287.78853502 -386.20703125 189.203125 C-385.7884082 188.69813477 -385.36978516 188.19314453 -384.93847656 187.67285156 C-374.18095857 174.71438845 -362.705549 162.52947813 -350.77832031 150.64404297 C-348.94087365 148.81201505 -347.10891475 146.97461895 -345.27734375 145.13671875 C-339.42413817 139.27990998 -333.55420872 133.52998764 -327.20703125 128.203125 C-326.19697817 127.32660113 -325.18781642 126.44904875 -324.1796875 125.5703125 C-315.45058965 118.09492401 -306.40379178 111.09215616 -297.20703125 104.203125 C-296.55412109 103.71279785 -295.90121094 103.2224707 -295.22851562 102.71728516 C-286.10199387 95.88171613 -276.79853075 89.36987807 -267.20703125 83.203125 C-266.44181152 82.71086426 -265.6765918 82.21860352 -264.88818359 81.71142578 C-232.98086113 61.31082849 -198.83872361 44.07091874 -163.20703125 31.203125 C-162.26434387 30.86214783 -162.26434387 30.86214783 -161.3026123 30.51428223 C-109.95297945 12.00494323 -54.73062412 0.19672603 0 0 Z " fill="#E31E24" transform="translate(506.20703125,-0.203125)"/>
<path d="M0 0 C1.31195847 -0.00701431 2.62391693 -0.01402863 3.97563171 -0.02125549 C8.18558237 -0.0406485 12.39547792 -0.04568933 16.60546875 -0.046875 C17.32262054 -0.04731686 18.03977234 -0.04775871 18.77865601 -0.04821396 C40.26178153 -0.05515664 61.47271136 0.23621889 82.79296875 3.203125 C84.06092285 3.36941406 85.32887695 3.53570312 86.63525391 3.70703125 C117.5539627 7.82596618 148.12317925 14.56414235 177.79296875 24.203125 C178.96375977 24.58194824 180.13455078 24.96077148 181.34082031 25.35107422 C244.44126541 45.97064403 302.97204654 78.47563517 353.79296875 121.203125 C354.31391113 121.63915039 354.83485352 122.07517578 355.37158203 122.52441406 C368.77643345 133.76870505 381.40049016 145.7309177 393.79296875 158.078125 C394.67734619 158.95782959 395.56172363 159.83753418 396.47290039 160.74389648 C401.45421184 165.73751097 406.20824752 170.84534924 410.79296875 176.203125 C411.81438004 177.35986524 412.83777875 178.514854 413.86328125 179.66796875 C421.96578854 188.84993487 429.47459042 198.38862781 436.79296875 208.203125 C437.50815674 209.15421143 437.50815674 209.15421143 438.23779297 210.12451172 C495.35160665 286.109673 529.89122235 376.84606574 539.79296875 471.203125 C539.9101123 472.27643066 540.02725586 473.34973633 540.14794922 474.45556641 C549.73908068 566.16274465 532.59580558 661.32738697 430.81811523 847.48608398 C428.16773478 850.74582843 425.48561835 853.97826705 422.79296875 857.203125 C422.31085937 857.78433105 421.82875 858.36553711 421.33203125 858.96435547 C415.16906568 866.38928187 408.79789062 873.58738156 402.22851562 880.65429688 C400.71750919 882.2845392 399.21539179 883.92262881 397.71484375 885.5625 C390.48841485 893.45143649 383.23967516 901.1849242 375.11328125 908.1640625 C372.75257531 910.23862227 370.45353612 912.36781164 368.15722656 914.51293945 C361.9052576 920.34889942 355.49692074 925.88588089 348.79296875 931.203125 C347.73816091 932.05063149 346.6834785 932.89829412 345.62890625 933.74609375 C331.57374979 944.98037867 316.93141806 955.47840214 301.79296875 965.203125 C300.65166504 965.93716553 300.65166504 965.93716553 299.48730469 966.68603516 C229.6859104 1011.3161182 150.97743599 1037.47436544 68.79296875 1046.203125 C67.66971191 1046.32316895 66.54645508 1046.44321289 65.38916016 1046.56689453 C32.60606249 1049.88927159 -1.4481178 1049.60829087 -34.20703125 1046.203125 C-35.40618164 1046.07953613 -36.60533203 1045.95594727 -37.84082031 1045.82861328 C-101.9367672 1038.94151297 -163.69058395 1020.170577 -221.20703125 991.203125 C-222.17753418 990.7184375 -223.14803711 990.23375 -224.14794922 989.734375 C-258.26342774 972.63108365 -290.08298608 950.82618137 -319.20703125 926.203125 C-319.71685547 925.77676758 -320.22667969 925.35041016 -320.75195312 924.91113281 C-333.83041086 913.9662044 -346.18547299 902.29411221 -358.26953125 890.265625 C-358.95958252 889.58024658 -359.64963379 888.89486816 -360.3605957 888.1887207 C-364.28823573 884.24865598 -368.03003927 880.19948979 -371.66381836 875.98706055 C-373.54914689 873.80764343 -375.50188342 871.69491891 -377.45703125 869.578125 C-382.00186406 864.54112755 -386.16804316 859.26150106 -390.3203125 853.90234375 C-392.24553637 851.42049191 -394.20039006 848.96773104 -396.1875 846.53515625 C-403.36859494 837.73627817 -409.92801125 828.66422463 -416.20703125 819.203125 C-416.7081543 818.45466309 -417.20927734 817.70620117 -417.72558594 816.93505859 C-471.61912121 736.29622684 -506.03083796 638.60916998 -506.41015625 540.90625 C-506.41717056 539.68603653 -506.42418488 538.46582306 -506.43141174 537.20863342 C-506.44881683 533.29009258 -506.45526474 529.37170309 -506.45703125 525.453125 C-506.45769403 524.44972391 -506.45769403 524.44972391 -506.45837021 523.42605209 C-506.46571905 502.19341998 -505.97650276 481.27673155 -503.20703125 460.203125 C-503.03866215 458.86805173 -502.8707014 457.53292691 -502.703125 456.19775391 C-491.70440546 369.84283773 -458.75508823 287.78853502 -386.20703125 189.203125 C-385.7884082 188.69813477 -385.36978516 188.19314453 -384.93847656 187.67285156 C-374.18095857 174.71438845 -362.705549 162.52947813 -350.77832031 150.64404297 C-348.94087365 148.81201505 -347.10891475 146.97461895 -345.27734375 145.13671875 C-339.42413817 139.27990998 -333.55420872 133.52998764 -327.20703125 128.203125 C-326.19697817 127.32660113 -325.18781642 126.44904875 -324.1796875 125.5703125 C-315.45058965 118.09492401 -306.40379178 111.09215616 -297.20703125 104.203125 C-296.55412109 103.71279785 -295.90121094 103.2224707 -295.22851562 102.71728516 C-286.10199387 95.88171613 -276.79853075 89.36987807 -267.20703125 83.203125 C-266.44181152 82.71086426 -265.6765918 82.21860352 -264.88818359 81.71142578 C-232.98086113 61.31082849 -198.83872361 44.07091874 -163.20703125 31.203125 C-162.26434387 30.86214783 -162.26434387 30.86214783 -161.3026123 30.51428223 C-109.95297945 12.00494323 -54.73062412 0.19672603 0 0 Z M-31.20703125 61.203125 C-32.3760498 61.33734863 -33.54506836 61.47157227 -34.74951172 61.60986328 C-50.50399934 63.43914222 -65.98059324 65.85502206 -81.40722656 69.54541016 C-84.23743181 70.21026653 -87.07501578 70.82576674 -89.91796875 71.43359375 C-165.63049426 88.03815109 -236.72928671 127.04526275 -293.84375 179.05859375 C-295.35448615 180.42949316 -296.87693726 181.78766246 -298.4140625 183.12890625 C-304.29557578 188.28900734 -309.85377537 193.7433907 -315.39453125 199.265625 C-316.15507812 200.02157959 -316.915625 200.77753418 -317.69921875 201.55639648 C-322.40714784 206.27716352 -326.87369585 211.1380425 -331.20703125 216.203125 C-332.19199678 217.33265213 -333.17764515 218.46158427 -334.1640625 219.58984375 C-340.80799406 227.24772245 -347.164968 235.06014128 -353.20703125 243.203125 C-353.6978418 243.8626416 -354.18865234 244.5221582 -354.69433594 245.20166016 C-368.19090701 263.41151975 -380.31576597 282.3257822 -391.20703125 302.203125 C-391.72765137 303.14720215 -392.24827148 304.0912793 -392.78466797 305.06396484 C-411.11625252 338.53345868 -425.36622683 375.05019809 -434.20703125 412.203125 C-434.6239624 413.93344971 -434.6239624 413.93344971 -435.04931641 415.69873047 C-439.01589433 432.44049941 -441.96837865 449.18906922 -444.08203125 466.265625 C-444.18548859 467.09753357 -444.28894592 467.92944214 -444.39553833 468.78656006 C-446.54745238 486.33808864 -447.38961905 503.71400992 -447.33203125 521.390625 C-447.32981567 522.29786316 -447.3276001 523.20510132 -447.32531738 524.13983154 C-447.19034421 571.29011402 -441.00931798 618.68108533 -426.08447266 663.56103516 C-425.47381056 665.39981791 -424.86981081 667.24082109 -424.27099609 669.08349609 C-407.33631493 721.05717715 -381.17865872 769.38253065 -347.20703125 812.203125 C-346.56942871 813.0084668 -346.56942871 813.0084668 -345.91894531 813.83007812 C-341.32271288 819.60798588 -336.52407044 825.17241738 -331.54296875 830.62109375 C-330.29998451 831.99502783 -329.06217384 833.37445917 -327.8659668 834.78930664 C-322.30770288 841.32450389 -316.22784047 847.33325761 -310.15551758 853.38500977 C-308.27374851 855.26141975 -306.39738387 857.14311469 -304.52148438 859.02539062 C-298.58894634 864.96186124 -292.65864665 870.82485049 -286.20703125 876.203125 C-285.27008423 877.00012817 -285.27008423 877.00012817 -284.31420898 877.81323242 C-215.76615739 935.91898986 -131.67307149 973.53540268 -42.58203125 985.390625 C-40.725177 985.64138794 -40.725177 985.64138794 -38.83081055 985.8972168 C22.81051824 993.73821681 89.64718324 989.18698494 149.10546875 970.578125 C150.19593506 970.23821533 151.28640137 969.89830566 152.40991211 969.5480957 C173.1409058 963.00076714 193.32488495 955.51466477 213.08642578 946.44335938 C215.49081376 945.34158317 217.90314064 944.26083098 220.3203125 943.1875 C246.68843936 931.32632992 271.71867357 915.55260117 294.79296875 898.203125 C295.40640137 897.74276855 296.01983398 897.28241211 296.65185547 896.80810547 C306.84958309 889.12519568 316.78508801 881.15603874 326.2109375 872.5390625 C327.5867642 871.29436603 328.96801134 870.05481569 330.38354492 868.85546875 C336.86321669 863.33660853 342.85086523 857.33132269 348.86499023 851.31640625 C350.71774343 849.46583533 352.57835581 847.62342424 354.43945312 845.78125 C360.57519394 839.67430009 366.3964625 833.51072534 371.77905273 826.71435547 C373.75244077 824.25366092 375.80976001 821.90879436 377.92578125 819.5703125 C381.73964939 815.31949749 385.24997265 810.90147995 388.66796875 806.328125 C389.6130127 805.06367554 389.6130127 805.06367554 390.57714844 803.77368164 C403.42973449 786.36822505 415.47143005 768.2260056 425.79296875 749.203125 C426.26895508 748.3280127 426.74494141 747.45290039 427.23535156 746.55126953 C439.14221184 724.51313341 449.25169591 702.04898759 457.63720703 678.44238281 C458.42512152 676.23409185 459.22614397 674.03044445 460.03857422 671.83105469 C463.19093365 663.23327005 465.83146167 654.55207922 468.16796875 645.703125 C468.45344574 644.62695923 468.45344574 644.62695923 468.74468994 643.52905273 C475.65658239 617.25941187 480.5105863 590.27805366 482.79296875 563.203125 C482.93436279 561.60561401 482.93436279 561.60561401 483.07861328 559.97583008 C483.91773651 549.275159 483.94538445 538.59796511 483.92333984 527.86987305 C483.91798415 524.77452688 483.92331394 521.67932614 483.9296875 518.58398438 C483.93824549 500.76900313 482.76584856 483.31343108 480.54296875 465.640625 C480.43381134 464.76460632 480.32465393 463.88858765 480.21218872 462.98602295 C478.57914043 449.99766114 476.49734316 437.25970995 473.35302734 424.54101562 C472.81993447 422.31568986 472.34997417 420.08841219 471.90625 417.84375 C459.27125253 354.60363382 428.07741178 292.92830056 388.79296875 242.203125 C388.17953613 241.40261719 388.17953613 241.40261719 387.55371094 240.5859375 C370.70299401 218.60784239 351.87860654 196.7484114 330.69140625 178.82421875 C328.46396842 176.9221885 326.32273904 174.9370478 324.16796875 172.953125 C317.96347709 167.3690825 311.41355404 162.27620308 304.79296875 157.203125 C304.04724609 156.62755859 303.30152344 156.05199219 302.53320312 155.45898438 C282.92268956 140.3529366 262.31889219 127.4023435 240.79296875 115.203125 C240.08865723 114.80254883 239.3843457 114.40197266 238.65869141 113.98925781 C217.7084669 102.16559405 195.34235096 93.42920882 172.79296875 85.203125 C171.36911865 84.6769458 171.36911865 84.6769458 169.91650391 84.14013672 C140.60906666 73.32836952 110.3432242 67.22679396 79.48046875 62.890625 C78.56971588 62.76147705 77.65896301 62.6323291 76.72061157 62.49926758 C57.38555377 59.78091955 38.37025998 58.99564039 18.85546875 59.015625 C17.76559662 59.01622925 16.67572449 59.0168335 15.55282593 59.01745605 C-0.13387331 59.04107822 -15.61917997 59.30278967 -31.20703125 61.203125 Z " fill="#E31E24" transform="translate(506.20703125,-0.203125)"/>
<path d="M0 0 C0.63321167 0.08247986 1.26642334 0.16495972 1.91882324 0.24993896 C19.37833581 2.54219035 36.82133873 5.08958045 54 9 C55.29768311 9.28665527 55.29768311 9.28665527 56.62158203 9.57910156 C134.30394425 26.93967198 206.42259452 66.53215014 265 120 C265.91007813 120.81726563 266.82015625 121.63453125 267.7578125 122.4765625 C278.73180551 132.39705218 289.45354512 142.68493874 299 154 C299.98124971 155.12008943 300.96453822 156.2383942 301.94921875 157.35546875 C308.96926996 165.33732715 315.67877223 173.44802178 322 182 C322.74999268 183.01102783 322.74999268 183.01102783 323.51513672 184.04248047 C331.4397812 194.76207405 338.93629946 205.69473932 346 217 C346.37543945 217.59780273 346.75087891 218.19560547 347.13769531 218.81152344 C382.40676718 275.27366987 404.70565626 339.06099431 412.875 405.0625 C413.030186 406.31036285 413.030186 406.31036285 413.18850708 407.58343506 C415.45536806 426.07249842 416.20578074 444.38411228 416.1875 463 C416.18709213 464.56220779 416.18709213 464.56220779 416.18667603 466.15597534 C416.16859921 481.20528737 415.86944386 496.05030024 414 511 C413.90348145 511.84401367 413.80696289 512.68802734 413.70751953 513.55761719 C410.25727479 543.61837023 404.43036709 573.631661 394.87744141 602.35791016 C394.26677931 604.19669291 393.66277956 606.03769609 393.06396484 607.88037109 C376.12928368 659.85405215 349.97162747 708.17940565 316 751 C315.57493164 751.53689453 315.14986328 752.07378906 314.71191406 752.62695312 C310.11568163 758.40486088 305.31703919 763.96929238 300.3359375 769.41796875 C299.09295326 770.79190283 297.85514259 772.17133417 296.65893555 773.58618164 C291.10067163 780.12137889 285.02080922 786.13013261 278.94848633 792.18188477 C277.06671726 794.05829475 275.19035262 795.93998969 273.31445312 797.82226562 C267.38191509 803.75873624 261.4516154 809.62172549 255 815 C254.37536865 815.53133545 253.7507373 816.0626709 253.10717773 816.61010742 C208.06379636 854.79178774 156.65519423 883.45722014 101 903 C100.03803711 903.33902344 99.07607422 903.67804687 98.08496094 904.02734375 C51.93752714 920.17165146 2.81379258 927.4727957 -45.98901367 927.20581055 C-49.46084899 927.18737602 -52.93241724 927.18530335 -56.40429688 927.18554688 C-75.23227729 927.15776186 -93.77553081 926.49652876 -112.4375 923.9375 C-113.60531509 923.77951935 -113.60531509 923.77951935 -114.79672241 923.61834717 C-159.17009703 917.53290058 -202.31661087 904.69601842 -243 886 C-244.41224854 885.35659668 -244.41224854 885.35659668 -245.85302734 884.70019531 C-280.95310164 868.63028178 -313.57377806 848.08032338 -343.26464844 823.43115234 C-344.80160365 822.16361837 -346.35658166 820.91800793 -347.9140625 819.67578125 C-360.10850804 809.94540509 -371.15438704 798.94406701 -382.21160889 787.96362305 C-383.30388003 786.87940777 -384.39762591 785.79667577 -385.49298096 784.71557617 C-391.68048649 778.60014838 -397.49130621 772.39640653 -402.91796875 765.5793457 C-404.91871244 763.10070392 -406.99633144 760.72911224 -409.1328125 758.3671875 C-412.94668064 754.11637249 -416.4570039 749.69835495 -419.875 745.125 C-420.5050293 744.28203369 -421.13505859 743.43906738 -421.78417969 742.57055664 C-434.63676574 725.16510005 -446.6784613 707.0228806 -457 688 C-457.47598633 687.1248877 -457.95197266 686.24977539 -458.44238281 685.34814453 C-470.34924309 663.31000841 -480.45872716 640.84586259 -488.84423828 617.23925781 C-489.63215277 615.03096685 -490.43317522 612.82731945 -491.24560547 610.62792969 C-494.3979649 602.03014505 -497.03849292 593.34895422 -499.375 584.5 C-499.56531799 583.78255615 -499.75563599 583.0651123 -499.95172119 582.32592773 C-506.86148501 556.06437703 -511.74915099 529.06777916 -514 502 C-514.06912598 501.18660156 -514.13825195 500.37320312 -514.20947266 499.53515625 C-516.42949228 471.37195215 -516.17803415 442.0520169 -513 414 C-512.86577637 412.80375 -512.73155273 411.6075 -512.59326172 410.375 C-510.76163503 394.53741284 -508.24725768 379.01250597 -504.57617188 363.49902344 C-504.04742956 361.20571565 -503.56623982 358.91009833 -503.109375 356.6015625 C-490.44462954 293.46718734 -459.38048659 231.581096 -420 181 C-419.15607033 179.89987739 -418.31233009 178.79960944 -417.46875 177.69921875 C-404.49577628 160.8808282 -390.2273981 145.17080292 -375.25 130.125 C-374.55293945 129.4232666 -373.85587891 128.7215332 -373.13769531 127.99853516 C-369.18478733 124.05781015 -365.13491364 120.28828031 -360.90722656 116.64404297 C-359.13352105 115.11509611 -357.3841479 113.56317628 -355.640625 112 C-345.5522918 103.03605389 -334.88578679 94.96566062 -324 87 C-322.76040669 86.08334683 -321.52082234 85.16668153 -320.28125 84.25 C-304.34238751 72.56440828 -287.27727829 62.55566145 -270 53 C-269.16807129 52.5373877 -268.33614258 52.07477539 -267.47900391 51.59814453 C-215.62928983 22.96441692 -157.56628016 6.89670909 -99 0 C-98.0109668 -0.12149414 -97.02193359 -0.24298828 -96.00292969 -0.36816406 C-64.8149279 -4.06394779 -31.14678988 -4.06158722 0 0 Z M-226 83 C-226.87817383 83.39429199 -227.75634766 83.78858398 -228.66113281 84.19482422 C-254.71642042 95.96739636 -279.15082985 110.84487226 -302 128 C-302.60279785 128.44972168 -303.2055957 128.89944336 -303.82666016 129.36279297 C-315.93631117 138.42016718 -327.33571963 148.21923388 -338.39941406 158.51708984 C-340.1304258 160.12083684 -341.8730624 161.71130991 -343.6171875 163.30078125 C-351.78449694 170.76136143 -351.78449694 170.76136143 -359.23828125 178.921875 C-361.07923175 181.09346184 -362.99918765 183.18091517 -364.93774414 185.26538086 C-370.55181512 191.30858925 -375.92623443 197.49178588 -381 204 C-381.53077148 204.67998047 -382.06154297 205.35996094 -382.60839844 206.06054688 C-446.9036954 288.95542725 -478.28858055 392.2992789 -467.78540039 517.63012695 C-455.57368118 611.10620378 -410.82731078 695.01363118 -344.75 761.375 C-343.63310791 762.49890137 -343.63310791 762.49890137 -342.49365234 763.64550781 C-337.82431308 768.30135488 -333.01106578 772.71579077 -328 777 C-326.97896227 777.88908824 -325.95811355 778.77839361 -324.9375 779.66796875 C-302.89112206 798.57742855 -278.4789413 815.07389077 -253 829 C-252.21093262 829.43828125 -251.42186523 829.8765625 -250.60888672 830.328125 C-189.94520964 863.89753009 -120.21745515 880.26493299 -51.125 880.1875 C-50.12800079 880.18689575 -49.13100159 880.1862915 -48.10379028 880.18566895 C-32.97619951 880.16080425 -18.03238972 879.84274464 -3 878 C-1.91654297 877.87109375 -0.83308594 877.7421875 0.28320312 877.609375 C78.32569995 868.06937539 152.82982426 837.59952459 214 788 C214.95003906 787.24332031 215.90007813 786.48664062 216.87890625 785.70703125 C222.83433852 780.92065965 228.49899745 775.88398818 234.09375 770.6875 C236.72175172 768.25730486 239.38360092 765.87370804 242.0625 763.5 C249.5601308 756.76177553 256.73065349 749.67849886 263.2734375 742.00390625 C265.21741046 739.74766614 267.23323518 737.56636107 269.25 735.375 C335.28325306 661.97993156 370.72384299 561.88324533 371 453 C370.96422852 451.82147461 370.92845703 450.64294922 370.89160156 449.42871094 C369.02203604 394.85650285 357.02947397 341.10125735 334.12597656 291.44580078 C333.08245961 289.17911543 332.06512144 286.90266822 331.0546875 284.62109375 C310.66286835 239.19810328 279.28246904 199.3960453 244.4375 164.25 C243.57527832 163.37472656 242.71305664 162.49945313 241.82470703 161.59765625 C236.61248477 156.37852516 231.22126445 151.57317858 225.44824219 146.98071289 C223.15400374 145.12459437 220.97576749 143.19344898 218.8125 141.1875 C193.82845908 118.87718978 163.74357466 102.03199099 134 87 C132.87924072 86.43152344 132.87924072 86.43152344 131.73583984 85.8515625 C84.94917839 62.34223179 32.10424043 49.63163946 -20 46 C-20.76957031 45.94360352 -21.53914063 45.88720703 -22.33203125 45.82910156 C-92.32151207 40.85926028 -162.19716417 54.14725661 -226 83 Z " fill="#FDFCFC" transform="translate(574,61)"/>
<path d="M0 0 C0.83819158 1.62249941 1.6704116 3.24808497 2.5 4.875 C3.19609375 6.23238281 3.19609375 6.23238281 3.90625 7.6171875 C5 10 5 10 5 12 C5.66 12 6.32 12 7 12 C7.50660156 13.17369141 7.50660156 13.17369141 8.0234375 14.37109375 C8.46945312 15.38300781 8.91546875 16.39492188 9.375 17.4375 C10.03628906 18.95150391 10.03628906 18.95150391 10.7109375 20.49609375 C11.75076286 23.12143547 11.75076286 23.12143547 14 24 C14.85047257 25.51002273 15.63229042 27.05916006 16.375 28.625 C20.0748853 36.34246656 20.0748853 36.34246656 24.94140625 43.34765625 C27.01649221 46.02124898 28.4203475 48.57598261 29.875 51.625 C32.38271781 56.79396936 35.07180825 61.81935306 37.8984375 66.8203125 C39 69 39 69 39 71 C39.66 71 40.32 71 41 71 C42.40252962 73.5635981 43.80249665 76.12854397 45.19921875 78.6953125 C46.44676424 80.98473437 47.69927213 83.27091091 48.95703125 85.5546875 C49.58996094 86.71226562 50.22289062 87.86984375 50.875 89.0625 C51.76832031 90.68865234 51.76832031 90.68865234 52.6796875 92.34765625 C54 95 54 95 54 97 C54.66 97 55.32 97 56 97 C56.83819158 98.62249941 57.6704116 100.24808497 58.5 101.875 C58.9640625 102.77992188 59.428125 103.68484375 59.90625 104.6171875 C61 107 61 107 61 109 C61.66 109 62.32 109 63 109 C64.00484204 110.95585325 65.00373805 112.91476237 66 114.875 C66.556875 115.96554687 67.11375 117.05609375 67.6875 118.1796875 C69 121 69 121 69 123 C69.66 123 70.32 123 71 123 C71.83819158 124.62249941 72.6704116 126.24808497 73.5 127.875 C73.9640625 128.77992188 74.428125 129.68484375 74.90625 130.6171875 C76 133 76 133 76 135 C76.66 135 77.32 135 78 135 C78.83819158 136.62249941 79.6704116 138.24808497 80.5 139.875 C80.9640625 140.77992188 81.428125 141.68484375 81.90625 142.6171875 C83 145 83 145 83 147 C83.66 147 84.32 147 85 147 C85.33 148.65 85.66 150.3 86 152 C85.27554688 152.556875 84.55109375 153.11375 83.8046875 153.6875 C73.48207703 161.83548053 65.87064754 170.7888479 63 184 C62.34 184 61.68 184 61 184 C58.39003654 208.24628289 57.05444359 234.30148106 65.5625 257.6875 C66.74996842 261.1059697 67.5381617 264.39766128 68 268 C68.66 268 69.32 268 70 268 C70.38671875 269.2065625 70.7734375 270.413125 71.171875 271.65625 C71.69758813 273.27094033 72.2236484 274.88551768 72.75 276.5 C73.00265625 277.29148437 73.2553125 278.08296875 73.515625 278.8984375 C75.05052518 283.57988306 76.82765912 287.94491269 79.1171875 292.30932617 C80.8590154 295.64510001 82 298.22339973 82 302 C82.66 302 83.32 302 84 302 C84.83790789 303.78953185 85.67019396 305.58169695 86.5 307.375 C86.9640625 308.37273437 87.428125 309.37046875 87.90625 310.3984375 C89 313 89 313 89 315 C89.66 315 90.32 315 91 315 C91.37511719 315.71285156 91.75023437 316.42570312 92.13671875 317.16015625 C95.60576607 323.67536915 95.60576607 323.67536915 99.6875 329.8125 C102 333 102 333 103.5625 336.1875 C104.81821716 339.00160237 104.81821716 339.00160237 106.78125 340.77734375 C109.44422738 343.44500947 111.66188201 346.38164227 113.9375 349.375 C118.03169703 354.6711373 122.32178641 359.71772727 126.875 364.625 C127.40988037 365.20427246 127.94476074 365.78354492 128.49584961 366.38037109 C131.48041895 369.55612115 134.56023284 372.30948906 138 375 C138.97453125 375.98613281 138.97453125 375.98613281 139.96875 376.9921875 C142.31824624 379.31457417 144.82300796 381.19079971 147.5 383.125 C148.4384375 383.80820312 149.376875 384.49140625 150.34375 385.1953125 C152.52504219 386.67730808 154.60876198 387.90589581 157 389 C157 389.66 157 390.32 157 391 C158.175625 391.37125 158.175625 391.37125 159.375 391.75 C163.98401329 393.33931493 168.48547716 395.16207173 173 397 C173 397.66 173 398.32 173 399 C173.73605469 399.13277344 174.47210937 399.26554687 175.23046875 399.40234375 C176.20628906 399.57894531 177.18210937 399.75554687 178.1875 399.9375 C179.63189453 400.19853516 179.63189453 400.19853516 181.10546875 400.46484375 C182.85996509 400.78922431 184.60994943 401.14208473 186.34765625 401.546875 C199.21563574 403.74523379 211.62418277 401.50909248 224 398 C224 397.34 224 396.68 224 396 C226.2109375 396.01953125 226.2109375 396.01953125 229 397 C230.9168004 399.357649 232.24033384 401.99217571 233.625 404.6875 C234.0065625 405.39583984 234.388125 406.10417969 234.78125 406.83398438 C235.87625917 408.87863081 236.94174228 410.93614183 238 413 C238.58523438 414.12019531 239.17046875 415.24039062 239.7734375 416.39453125 C241 419 241 419 241 421 C241.66 421 242.32 421 243 421 C243.83819158 422.62249941 244.6704116 424.24808497 245.5 425.875 C245.9640625 426.77992188 246.428125 427.68484375 246.90625 428.6171875 C248 431 248 431 248 433 C248.66 433 249.32 433 250 433 C250.268125 433.48726562 250.53625 433.97453125 250.8125 434.4765625 C253.42006592 439.19419821 256.07103323 443.88502402 258.75 448.5625 C261.78627955 453.86630672 264.8086062 459.17777649 267.8125 464.5 C268.37179199 465.48722046 268.37179199 465.48722046 268.94238281 466.49438477 C275 477.24624338 275 477.24624338 275 480 C275.99 480.33 276.98 480.66 278 481 C279.38671875 483.1796875 279.38671875 483.1796875 280.6875 485.875 C281.12449219 486.75929688 281.56148437 487.64359375 282.01171875 488.5546875 C283 491 283 491 283 494 C283.99 494.33 284.98 494.66 286 495 C286.95744727 496.77811636 287.89780323 498.56754599 288.75 500.3984375 C290.85293345 504.77516774 293.26269231 508.99252263 295.609375 513.2421875 C297 516 297 516 297 518 C297.66 518 298.32 518 299 518 C299.83819158 519.62249941 300.6704116 521.24808497 301.5 522.875 C301.9640625 523.77992188 302.428125 524.68484375 302.90625 525.6171875 C304 528 304 528 304 530 C304.66 530 305.32 530 306 530 C306.39832031 530.73605469 306.79664063 531.47210937 307.20703125 532.23046875 C307.73683594 533.20628906 308.26664063 534.18210937 308.8125 535.1875 C309.33457031 536.15042969 309.85664062 537.11335937 310.39453125 538.10546875 C311.44170877 539.99344574 312.54185688 541.85326887 313.69921875 543.67578125 C315 546 315 546 315 549 C313.04414675 550.00484204 311.08523763 551.00373805 309.125 552 C308.03445313 552.556875 306.94390625 553.11375 305.8203125 553.6875 C303 555 303 555 301 555 C301 555.66 301 556.32 301 557 C299.06532058 557.83986084 297.12714871 558.67168027 295.1875 559.5 C294.10855469 559.9640625 293.02960938 560.428125 291.91796875 560.90625 C289 562 289 562 286 562 C286 562.66 286 563.32 286 564 C284.56445975 564.50559908 283.1264798 565.0042749 281.6875 565.5 C280.88699219 565.7784375 280.08648438 566.056875 279.26171875 566.34375 C277 567 277 567 274 567 C274 567.66 274 568.32 274 569 C263.46903896 571.78176329 253.41898763 573.38868294 242.5 573.375 C241.52289062 573.37628906 240.54578125 573.37757813 239.5390625 573.37890625 C232.85937527 573.27934452 226.5306015 572.38416895 220 571 C220 570.34 220 569.68 220 569 C218.49759766 568.83757812 218.49759766 568.83757812 216.96484375 568.671875 C212.94471686 568.09367219 209.30391889 566.79529525 205.5625 565.25 C204.90870361 564.98485596 204.25490723 564.71971191 203.58129883 564.4465332 C198.67193557 562.40284675 194.37374734 560.00159131 190 557 C189.34 556.67 188.68 556.34 188 556 C188 555.34 188 554.68 188 554 C187.21625 553.814375 186.4325 553.62875 185.625 553.4375 C180.50796907 551.40833256 176.43494478 548.21623637 172 545 C170.85907269 544.24255765 169.71418434 543.49098394 168.5625 542.75 C166.39443993 541.26937361 164.83560258 539.83560258 163 538 C162.030625 537.360625 161.06125 536.72125 160.0625 536.0625 C157.29657563 534.19973461 155.34096766 532.34096766 153 530 C151.34614767 528.65080468 149.678298 527.31866272 148 526 C143.1564505 522.08118692 138.73995342 517.90452641 134.41210938 513.42578125 C131.74118193 510.67618693 128.9967462 508.10190246 126.0859375 505.60546875 C122.05294552 502.11628852 118.41946756 498.36008331 114.8125 494.4375 C114.17175537 493.74640137 113.53101074 493.05530273 112.87084961 492.34326172 C111.55374153 490.92238936 110.23805972 489.50019353 108.92382812 488.07666016 C107.09986897 486.10780272 105.26379558 484.15126528 103.421875 482.19921875 C97.9295672 476.36541216 92.62473113 470.4978201 87.69921875 464.16796875 C86.14338585 462.18294057 84.53452943 460.27343341 82.875 458.375 C80.36017577 455.47017629 78.04915206 452.45595831 75.765625 449.3671875 C73.54249012 446.38661287 71.27127171 443.44389814 69 440.5 C68.13528717 439.37509953 67.27070131 438.25010145 66.40625 437.125 C64.97488924 435.26608993 63.53905223 433.41059138 62.09375 431.5625 C59.41344733 428.09387302 57.6143201 425.09788948 56 421 C55.01 420.67 54.02 420.34 53 420 C51.00603743 417.33916031 49 414.38757675 49 411 C48.34 411 47.68 411 47 411 C45.61702098 408.98240724 44.35721995 406.98214192 43.125 404.875 C42.4412482 403.725881 41.75635552 402.57744008 41.0703125 401.4296875 C40.73290039 400.86088867 40.39548828 400.29208984 40.04785156 399.70605469 C38.99735334 397.99569085 37.88193912 396.34719921 36.7421875 394.6953125 C35 392 35 392 35 390 C34.34 390 33.68 390 33 390 C31.2734375 387.4453125 31.2734375 387.4453125 29.375 384.125 C28.74335938 383.03445313 28.11171875 381.94390625 27.4609375 380.8203125 C26 378 26 378 26 376 C25.34 376 24.68 376 24 376 C23.32845067 374.71086513 22.66291141 373.41859796 22 372.125 C21.62875 371.40570312 21.2575 370.68640625 20.875 369.9453125 C20 368 20 368 20 366 C19.34 366 18.68 366 18 366 C17.32845067 364.71086513 16.66291141 363.41859796 16 362.125 C15.62875 361.40570312 15.2575 360.68640625 14.875 359.9453125 C14 358 14 358 14 356 C13.34 356 12.68 356 12 356 C10.99515796 354.04414675 9.99626195 352.08523763 9 350.125 C8.443125 349.03445313 7.88625 347.94390625 7.3125 346.8203125 C6 344 6 344 6 342 C5.01 341.67 4.02 341.34 3 341 C1.83203125 338.78515625 1.83203125 338.78515625 0.8125 336.0625 C0.46832031 335.16660156 0.12414062 334.27070312 -0.23046875 333.34765625 C-1 331 -1 331 -1 329 C-1.66 329 -2.32 329 -3 329 C-3.84026396 327.23244474 -4.67198722 325.46082737 -5.5 323.6875 C-5.9640625 322.70136719 -6.428125 321.71523438 -6.90625 320.69921875 C-8 318 -8 318 -8 315 C-8.66 315 -9.32 315 -10 315 C-12.34205919 309.75824848 -14.25192871 304.46737191 -16 299 C-16.66 299 -17.32 299 -18 299 C-18.83986084 297.06532058 -19.67168027 295.12714871 -20.5 293.1875 C-20.9640625 292.10855469 -21.428125 291.02960938 -21.90625 289.91796875 C-23 287 -23 287 -23 284 C-23.66 284 -24.32 284 -25 284 C-25.38671875 282.94941406 -25.7734375 281.89882813 -26.171875 280.81640625 C-28.90409184 273.43643188 -31.70256753 266.14972136 -35 259 C-36.33885261 255.92063899 -37 254.36246468 -37 251 C-37.66 251 -38.32 251 -39 251 C-39.84080019 248.58570231 -40.67281402 246.16896007 -41.5 243.75 C-41.73847656 243.06808594 -41.97695313 242.38617188 -42.22265625 241.68359375 C-43.39421287 238.23586997 -44 235.68297096 -44 232 C-44.66 232 -45.32 232 -46 232 C-47.00906461 228.75274421 -48.00565122 225.50178926 -49 222.25 C-49.28617187 221.32960938 -49.57234375 220.40921875 -49.8671875 219.4609375 C-50.13789063 218.57148438 -50.40859375 217.68203125 -50.6875 216.765625 C-50.93886719 215.94868164 -51.19023437 215.13173828 -51.44921875 214.29003906 C-52 212 -52 212 -52 208 C-52.66 208 -53.32 208 -54 208 C-54.84311119 204.77330584 -55.67273868 201.54329082 -56.5 198.3125 C-56.73847656 197.40048828 -56.97695313 196.48847656 -57.22265625 195.54882812 C-57.44824219 194.66259766 -57.67382812 193.77636719 -57.90625 192.86328125 C-58.11572266 192.05157471 -58.32519531 191.23986816 -58.54101562 190.40356445 C-59.02272289 187.881007 -59.07974843 185.56191817 -59 183 C-59.66 183 -60.32 183 -61 183 C-61.19577637 181.96782349 -61.19577637 181.96782349 -61.39550781 180.91479492 C-62.01174526 177.67199377 -62.63079953 174.42973666 -63.25 171.1875 C-63.58898315 169.40303467 -63.58898315 169.40303467 -63.93481445 167.58251953 C-65.08754387 161.56140387 -66.30088044 155.56984742 -67.68164062 149.59716797 C-74.21220127 120.909348 -75.61675543 87.36036461 -67 59 C-66.34 59 -65.68 59 -65 59 C-64.80664062 58.39671875 -64.61328125 57.7934375 -64.4140625 57.171875 C-64.15367187 56.37265625 -63.89328125 55.5734375 -63.625 54.75 C-63.36976563 53.96109375 -63.11453125 53.1721875 -62.8515625 52.359375 C-62.04826333 50.13372042 -61.10288338 48.09068328 -60 46 C-59.34 46 -58.68 46 -58 46 C-57.62875 44.948125 -57.62875 44.948125 -57.25 43.875 C-54.82103804 38.2883875 -51.42512159 34.13011348 -47 30 C-46.43152344 29.44957031 -45.86304688 28.89914062 -45.27734375 28.33203125 C-40.33097423 23.70970135 -35.01133251 19.72468005 -29.5 15.8125 C-28.80036133 15.31355225 -28.10072266 14.81460449 -27.37988281 14.30053711 C-14.08854167 5 -14.08854167 5 -10 5 C-10 4.34 -10 3.68 -10 3 C-6.27034861 0.96564469 -4.33094958 0 0 0 Z " fill="#FDFDFD" transform="translate(358,266)"/>
<path d="M0 0 C6.30154139 5.58446944 10.98776575 12.12883512 14 20 C14 20.66 14 21.32 14 22 C14.66 22 15.32 22 16 22 C17.00484204 23.95585325 18.00373805 25.91476237 19 27.875 C19.556875 28.96554687 20.11375 30.05609375 20.6875 31.1796875 C22 34 22 34 22 36 C22.66 36 23.32 36 24 36 C24.4021875 36.73089844 24.4021875 36.73089844 24.8125 37.4765625 C27.12768813 41.66522523 29.47323731 45.83417765 31.859375 49.98291016 C34.9592226 55.37634692 38.02271545 60.78779838 41 66.25 C41.5775 67.30703125 42.155 68.3640625 42.75 69.453125 C44 72 44 72 44 74 C44.66 74 45.32 74 46 74 C49.16395963 79.61298607 52.25223705 85.26745241 55.3125 90.9375 C55.67408203 91.60015869 56.03566406 92.26281738 56.40820312 92.94555664 C59 97.77035317 59 97.77035317 59 100 C59.66 100 60.32 100 61 100 C61.83819158 101.62249941 62.6704116 103.24808497 63.5 104.875 C63.9640625 105.77992188 64.428125 106.68484375 64.90625 107.6171875 C66 110 66 110 66 112 C66.66 112 67.32 112 68 112 C68.83819158 113.62249941 69.6704116 115.24808497 70.5 116.875 C70.9640625 117.77992188 71.428125 118.68484375 71.90625 119.6171875 C73 122 73 122 73 124 C73.66 124 74.32 124 75 124 C75.67408308 125.26691507 76.33900497 126.53870749 77 127.8125 C77.37125 128.52019531 77.7425 129.22789062 78.125 129.95703125 C79 132 79 132 79 135 C79.99 135.33 80.98 135.66 82 136 C83.02734375 137.63671875 83.02734375 137.63671875 83.9375 139.6875 C85.20135266 142.39921451 86.4497129 144.67456936 88.125 147.1875 C92.23486265 153.35229397 92.64744105 158.74239468 92 166 C90.31049676 172.06233516 87.17210561 175.61024791 82 179 C80.01132287 179.69971973 78.01391949 180.37664397 76 181 C75.67 181.99 75.34 182.98 75 184 C72.56640625 185.38671875 72.56640625 185.38671875 69.5625 186.6875 C68.57378906 187.12449219 67.58507812 187.56148437 66.56640625 188.01171875 C64 189 64 189 62 189 C62 189.66 62 190.32 62 191 C60.71086513 191.67154933 59.41859796 192.33708859 58.125 193 C57.40570312 193.37125 56.68640625 193.7425 55.9453125 194.125 C54 195 54 195 52 195 C52 195.66 52 196.32 52 197 C50.37750059 197.83819158 48.75191503 198.6704116 47.125 199.5 C46.22007812 199.9640625 45.31515625 200.428125 44.3828125 200.90625 C42 202 42 202 40 202 C40 202.66 40 203.32 40 204 C36.14179079 205.8009722 33.11943571 206.24600726 28.875 206.1875 C27.32425781 206.17783203 27.32425781 206.17783203 25.7421875 206.16796875 C23 206 23 206 20 205 C20 204.34 20 203.68 20 203 C19.278125 202.835 18.55625 202.67 17.8125 202.5 C13.78229342 200.35055649 11.98066087 197.04560517 10 193 C10 192.34 10 191.68 10 191 C9.34 191 8.68 191 8 191 C7.46890625 189.99839844 6.9378125 188.99679687 6.390625 187.96484375 C5.67714013 186.62236564 4.96359525 185.27991943 4.25 183.9375 C3.90195312 183.28072266 3.55390625 182.62394531 3.1953125 181.94726562 C1.4335959 178.63589091 -0.36425594 175.36240733 -2.265625 172.12890625 C-4 169 -4 169 -4 167 C-4.66 167 -5.32 167 -6 167 C-6.4846875 166.07960938 -6.969375 165.15921875 -7.46875 164.2109375 C-12.14332161 155.37033493 -17.00760303 146.66484251 -22 138 C-23.00497497 136.25285223 -24.00573611 134.50326533 -25 132.75 C-25.391875 132.06421875 -25.78375 131.3784375 -26.1875 130.671875 C-27 129 -27 129 -27 127 C-27.66 127 -28.32 127 -29 127 C-29.32613281 126.24074219 -29.65226563 125.48148438 -29.98828125 124.69921875 C-30.42527344 123.70535156 -30.86226562 122.71148438 -31.3125 121.6875 C-31.74175781 120.70136719 -32.17101562 119.71523438 -32.61328125 118.69921875 C-33.90213878 116.1904848 -35.02333049 114.92465189 -37 113 C-37.86543829 111.42376286 -38.67460536 109.81584232 -39.4375 108.1875 C-41.35745182 104.2153841 -43.532562 100.66135962 -46 97 C-47.03693699 95.02778651 -48.0141958 93.03315074 -48.984375 91.02734375 C-49.99672594 89.00653553 -51.10110383 87.07084175 -52.25 85.125 C-54 82 -54 82 -54 80 C-54.66 80 -55.32 80 -56 80 C-56.83819158 78.37750059 -57.6704116 76.75191503 -58.5 75.125 C-58.9640625 74.22007812 -59.428125 73.31515625 -59.90625 72.3828125 C-61 70 -61 70 -61 68 C-61.66 68 -62.32 68 -63 68 C-63.83819158 66.37750059 -64.6704116 64.75191503 -65.5 63.125 C-65.9640625 62.22007812 -66.428125 61.31515625 -66.90625 60.3828125 C-68 58 -68 58 -68 56 C-68.66 56 -69.32 56 -70 56 C-73.4647186 49.3180427 -75.44344534 44.08195253 -73.33984375 36.67578125 C-71.11065155 30.83742074 -68.39522042 28.09725616 -63 25 C-62.34 25 -61.68 25 -61 25 C-61 24.34 -61 23.68 -61 23 C-55.25 20 -55.25 20 -53 20 C-53 19.34 -53 18.68 -53 18 C-52.28199219 17.62230469 -51.56398438 17.24460937 -50.82421875 16.85546875 C-45.54238888 14.04682447 -40.30399998 11.19916567 -35.15234375 8.15625 C-34.32065674 7.66616455 -33.48896973 7.1760791 -32.63208008 6.67114258 C-30.98858649 5.69855415 -29.3489334 4.71943999 -27.71362305 3.7331543 C-18.94215315 -1.45144868 -9.87502609 -4.42673583 0 0 Z " fill="#FDFCFC" transform="translate(669,603)"/>
<path d="M0 0 C4 4.1 4 4.1 4 7 C4.66 7 5.32 7 6 7 C9.16395963 12.61298607 12.25223705 18.26745241 15.3125 23.9375 C15.67408203 24.60015869 16.03566406 25.26281738 16.40820312 25.94555664 C19 30.77035317 19 30.77035317 19 33 C19.66 33 20.32 33 21 33 C21.83819158 34.62249941 22.6704116 36.24808497 23.5 37.875 C24.19609375 39.23238281 24.19609375 39.23238281 24.90625 40.6171875 C26 43 26 43 26 45 C26.66 45 27.32 45 28 45 C28.32613281 45.75925781 28.65226562 46.51851563 28.98828125 47.30078125 C29.42527344 48.29464844 29.86226563 49.28851563 30.3125 50.3125 C30.74175781 51.29863281 31.17101562 52.28476562 31.61328125 53.30078125 C32.89741554 55.80032152 33.99789487 57.10912293 36 59 C36.81821446 60.30479382 37.58605499 61.64197222 38.3125 63 C38.7353125 63.78632813 39.158125 64.57265625 39.59375 65.3828125 C40.0578125 66.24648438 40.521875 67.11015625 41 68 C41.5465625 68.96679688 42.093125 69.93359375 42.65625 70.9296875 C43.2028125 71.90164063 43.749375 72.87359375 44.3125 73.875 C44.82425781 74.77992188 45.33601563 75.68484375 45.86328125 76.6171875 C47 79 47 79 47 82 C47.66 82 48.32 82 49 82 C49.44730469 82.83402344 49.89460938 83.66804688 50.35546875 84.52734375 C50.96003906 85.65269531 51.56460938 86.77804687 52.1875 87.9375 C52.50340088 88.52635986 52.81930176 89.11521973 53.14477539 89.72192383 C55.41807615 93.94919305 57.75364737 98.13574255 60.15234375 102.29296875 C61 104 61 104 61 106 C61.66 106 62.32 106 63 106 C63.268125 106.48726563 63.53625 106.97453125 63.8125 107.4765625 C66.14590729 111.69818753 68.50945025 115.90068416 70.91015625 120.08447266 C73.80159003 125.12386794 76.68008159 130.17014697 79.5 135.25 C79.9846875 136.12140625 80.469375 136.9928125 80.96875 137.890625 C82 140 82 140 82 142 C82.66 142 83.32 142 84 142 C88.76585291 151.17710367 91.96155154 158.04352966 88.9375 168.1875 C87.05781727 172.62958042 84.01832552 175.42284608 80 178 C76.5625 179.375 76.5625 179.375 74 180 C74 180.66 74 181.32 74 182 C72.71086513 182.67154933 71.41859796 183.33708859 70.125 184 C69.40570312 184.37125 68.68640625 184.7425 67.9453125 185.125 C66 186 66 186 64 186 C64 186.66 64 187.32 64 188 C62.87722656 188.59167969 61.75445312 189.18335938 60.59765625 189.79296875 C59.08584761 190.59097556 57.574135 191.38916433 56.0625 192.1875 C55.28575928 192.59734131 54.50901855 193.00718262 53.70874023 193.42944336 C48.94761839 195.94822076 44.22391196 198.51565195 39.56640625 201.22265625 C38 202 38 202 36 202 C36 202.66 36 203.32 36 204 C33.16239474 205.41880263 30.72317025 205.1320472 27.5625 205.125 C26.40878906 205.12757813 25.25507813 205.13015625 24.06640625 205.1328125 C21 205 21 205 18 204 C18 203.34 18 202.68 18 202 C17.13375 201.62875 17.13375 201.62875 16.25 201.25 C11.59454907 198.66363837 9.14017835 194.86659685 6.5625 190.3125 C5.95664062 189.24773437 5.35078125 188.18296875 4.7265625 187.0859375 C4.15679687 186.06757813 3.58703125 185.04921875 3 184 C2.55398438 183.20851563 2.10796875 182.41703125 1.6484375 181.6015625 C0.42060503 179.40730705 -0.78968889 177.20396159 -2 175 C-2.54140625 174.03320312 -3.0828125 173.06640625 -3.640625 172.0703125 C-4.19234375 171.07773437 -4.7440625 170.08515625 -5.3125 169.0625 C-5.82425781 168.14597656 -6.33601563 167.22945312 -6.86328125 166.28515625 C-8 164 -8 164 -8 162 C-8.66 162 -9.32 162 -10 162 C-10.83819158 160.37750059 -11.6704116 158.75191503 -12.5 157.125 C-12.9640625 156.22007812 -13.428125 155.31515625 -13.90625 154.3828125 C-15 152 -15 152 -15 150 C-15.66 150 -16.32 150 -17 150 C-17.83819158 148.37750059 -18.6704116 146.75191503 -19.5 145.125 C-19.9640625 144.22007812 -20.428125 143.31515625 -20.90625 142.3828125 C-22 140 -22 140 -22 138 C-22.66 138 -23.32 138 -24 138 C-24.77923828 136.53240234 -24.77923828 136.53240234 -25.57421875 135.03515625 C-26.27852137 133.7108713 -26.9829573 132.38665724 -27.6875 131.0625 C-28.05037109 130.37969971 -28.41324219 129.69689941 -28.78710938 128.9934082 C-31.18203158 124.49867521 -33.63517679 120.04451376 -36.1875 115.63671875 C-37 114 -37 114 -37 112 C-37.66 112 -38.32 112 -39 112 C-39.83819158 110.37750059 -40.6704116 108.75191503 -41.5 107.125 C-41.9640625 106.22007812 -42.428125 105.31515625 -42.90625 104.3828125 C-44 102 -44 102 -44 100 C-44.66 100 -45.32 100 -46 100 C-47.00484204 98.04414675 -48.00373805 96.08523763 -49 94.125 C-49.556875 93.03445313 -50.11375 91.94390625 -50.6875 90.8203125 C-52 88 -52 88 -52 86 C-52.66 86 -53.32 86 -54 86 C-54.50789063 85.04480469 -55.01578125 84.08960938 -55.5390625 83.10546875 C-57.68771429 79.06763885 -59.84260827 75.0331659 -62 71 C-62.83724609 69.43378906 -62.83724609 69.43378906 -63.69140625 67.8359375 C-66.31666391 62.96927186 -69.02624507 58.24406392 -72.1171875 53.65625 C-73 52 -73 52 -73 49 C-73.66 49 -74.32 49 -75 49 C-76.72924649 43.81226052 -76.71534484 38.85989659 -74.75 33.75 C-73.88375 32.38875 -73.88375 32.38875 -73 31 C-72.484375 30.175 -71.96875 29.35 -71.4375 28.5 C-65.90053806 22.82106467 -58.13642314 19.31333931 -51 16 C-50.34 16 -49.68 16 -49 16 C-49 15.34 -49 14.68 -49 14 C-47.37750059 13.16180842 -45.75191503 12.3295884 -44.125 11.5 C-43.22007812 11.0359375 -42.31515625 10.571875 -41.3828125 10.09375 C-39 9 -39 9 -37 9 C-37 8.34 -37 7.68 -37 7 C-31.375 4 -31.375 4 -28 4 C-27.67 3.01 -27.34 2.02 -27 1 C-18.20463707 -3.62181637 -8.90872031 -5.00622778 0 0 Z " fill="#FDFCFC" transform="translate(444,211)"/>
<path d="M0 0 C-1.4615836 3.36997254 -3.3380888 5.60745127 -5.9375 8.1875 C-6.97197266 9.22970703 -6.97197266 9.22970703 -8.02734375 10.29296875 C-10 12 -10 12 -13 13 C-11.74615087 9.23845262 -9.85799698 7.72808802 -7 5 C-6.113125 4.071875 -5.22625 3.14375 -4.3125 2.1875 C-2 0 -2 0 0 0 Z " fill="#F6D7D7" transform="translate(318,291)"/>
<path d="M0 0 C0.66 0.33 1.32 0.66 2 1 C-1.3 4.3 -4.6 7.6 -8 11 C-8 7.0234755 -6.61988497 5.9109833 -4 3 C-1.75 1.1875 -1.75 1.1875 0 0 Z " fill="#F3CACB" transform="translate(379,234)"/>
</svg>
