<?xml version="1.0" encoding="UTF-8"?>
<svg version="1.1" xmlns="http://www.w3.org/2000/svg" width="500" height="500">
<path d="M0 0 C13.00635982 -0.29417875 25.98578552 0.56689584 38.96875 1.2421875 C41.49734991 1.37201975 44.02595515 1.50174819 46.55456543 1.63137817 C51.83647053 1.90306701 57.11822857 2.17747073 62.39990234 2.45361328 C68.47136274 2.77096106 74.54317107 3.08088972 80.61519003 3.3873471 C86.50105615 3.68477425 92.38652059 3.98960734 98.27186584 4.29715347 C100.7562421 4.42604105 103.24072895 4.55281632 105.72532654 4.67736435 C139.049414 6.35432658 139.049414 6.35432658 148.1875 11.0625 C149.25355469 11.58972656 150.31960938 12.11695312 151.41796875 12.66015625 C162.86118102 19.55859914 172.3070319 31.14561096 181.69311523 40.51611328 C183.36439745 42.18112022 185.03586554 43.8459406 186.70750427 45.5105896 C192.16141683 50.94360968 197.61012642 56.38183266 203.05859375 61.8203125 C204.9399958 63.69766334 206.82143073 65.57498124 208.70289803 67.45226669 C216.52450244 75.25689172 224.34486633 83.06275664 232.16162014 90.87224007 C234.18154901 92.89025949 236.20148337 94.90827343 238.22143555 96.92626953 C238.72339811 97.42774836 239.22536068 97.92922718 239.74253423 98.44590233 C247.89378647 106.58883466 256.05353457 114.72319821 264.21681606 122.85406937 C272.61497877 131.21916186 281.00559331 139.59176536 289.38883549 147.97181118 C294.08930072 152.67011356 298.79321914 157.36486791 303.50515556 162.05167007 C307.93066352 166.4539459 312.34660949 170.86559074 316.75536537 175.28464127 C318.37445465 176.90422695 319.99697246 178.52039349 321.62314606 180.13286591 C323.84235445 182.33441711 326.04887781 184.54795581 328.25267029 186.7649231 C329.22152252 187.71732146 329.22152252 187.71732146 330.20994753 188.68896019 C334.75292788 193.29779177 338.42308547 198.2732575 338.4375 205.0625 C337.64610241 212.1850783 332.68954462 216.60237908 327.81335449 221.44061279 C327.19614265 222.06094462 326.57893081 222.68127644 325.94301558 223.3204062 C323.8827482 225.3886228 321.81543986 227.44965021 319.74804688 229.51074219 C318.26586625 230.99563397 316.78411121 232.48095066 315.30274963 233.96665955 C311.28479174 237.99372713 307.26054281 242.01445233 303.23485756 246.03379345 C299.0230017 250.2405839 294.81602984 254.45225396 290.60827637 258.66314697 C283.54371525 265.73134535 276.47495032 272.79531901 269.40380859 279.85693359 C261.22482148 288.02502823 253.05307567 296.20031431 244.8850379 304.3793571 C237.87292044 311.40054422 230.85692081 318.41783416 223.83764887 325.43186879 C219.64477058 329.62162671 215.4532609 333.81272978 211.26524353 338.00734711 C207.3299578 341.94840126 203.38982873 345.88454762 199.44587517 349.81692696 C197.99773068 351.26242254 196.55129361 352.70963093 195.1066761 354.15865135 C193.13791277 356.13286211 191.16312139 358.1008369 189.18664551 360.06732178 C188.32691549 360.93374396 188.32691549 360.93374396 187.44981718 361.81766963 C183.17231227 366.05319953 180.2411446 368.27966701 174.1875 368.375 C173.37667969 368.40335937 172.56585938 368.43171875 171.73046875 368.4609375 C164.48955873 367.23858073 159.5110102 361.9424872 154.55491638 356.93586731 C153.83854714 356.22417804 153.1221779 355.51248877 152.3841005 354.77923316 C149.99425694 352.40132052 147.61523872 350.01287098 145.23608398 347.62426758 C143.52129146 345.91354164 141.80586169 344.20345425 140.08984375 342.49395752 C135.91929644 338.33566205 131.75580387 334.17038626 127.59573679 330.00161264 C124.21235595 326.61144551 120.82604475 323.22423143 117.43763924 319.83908653 C116.95463179 319.35653878 116.47162434 318.87399103 115.9739803 318.37682062 C114.9925971 317.39639665 114.0112072 316.41597939 113.02981067 315.43556877 C103.83411745 306.24842372 94.64763002 297.0521178 85.46427996 287.85263696 C77.59539237 279.97035524 69.71868455 272.09596011 61.83618164 264.22729492 C52.67180435 255.07899827 43.51234733 245.92582073 34.36060578 236.76488227 C33.38325845 235.78657935 32.40590488 234.80828267 31.428545 233.82999229 C30.94773489 233.34871936 30.46692478 232.86744642 29.97154466 232.37158946 C26.59369335 228.99115506 23.21238823 225.61419956 19.82971001 222.23859596 C15.26962613 217.68784009 10.71760911 213.12911283 6.17084503 208.56504822 C4.50374811 206.89399468 2.8341118 205.22546997 1.16172218 203.55971336 C-1.12651454 201.27971475 -3.40524767 198.99060887 -5.68190002 196.6990509 C-6.34056409 196.047079 -6.99922815 195.3951071 -7.67785174 194.72337848 C-13.51467707 188.81257202 -18.61674445 182.25725976 -21.3125 174.3125 C-21.61800781 173.44238281 -21.92351562 172.57226562 -22.23828125 171.67578125 C-24.03093826 165.37849894 -24.31492532 159.02736956 -24.66430664 152.52612305 C-24.75230782 150.96107529 -24.75230782 150.96107529 -24.84208679 149.3644104 C-25.0350283 145.91370143 -25.22288898 142.46274001 -25.41015625 139.01171875 C-25.5431511 136.59153212 -25.67624497 134.17135093 -25.80943298 131.75117493 C-26.08833589 126.66635736 -26.36444825 121.58139669 -26.63891602 116.49633789 C-26.98726801 110.05056709 -27.34481855 103.6053447 -27.7049036 97.16022015 C-27.98329994 92.15056882 -28.2553856 87.14058813 -28.52584648 82.1305027 C-28.65481759 79.759083 -28.78592083 77.38777809 -28.91938972 75.01660728 C-29.60582628 62.77543235 -30.13931274 50.54156909 -30.26733398 38.28051758 C-30.28766473 37.2488959 -30.30799547 36.21727423 -30.3289423 35.15439129 C-30.34668042 29.32823701 -29.87962228 25.11625341 -27 20 C-23.35729664 18.17864832 -19.66259005 18.47857839 -15.8203125 19.68359375 C-2.04603767 25.42684675 5.78679664 35.67760747 12.06640625 48.921875 C13.13443257 52.44323376 12.83623967 54.45570512 12 58 C11.46203777 64.56313924 12.4632752 69.37244672 16 75 C19.91998765 79.55067873 23.98998478 82.09849772 30 83 C37.06409506 83.26839267 42.43406079 82.09333295 48.1171875 77.78515625 C52.97934845 73.17518207 54.22518573 68.61219783 54.5 62 C54.26326086 55.74219528 52.88307958 51.08844963 48.57421875 46.47265625 C43.69378293 42.12188013 39.09059864 40.79718233 32.6875 40.375 C31.61886719 40.30023438 30.55023438 40.22546875 29.44921875 40.1484375 C28.64097656 40.09945312 27.83273438 40.05046875 27 40 C26.78085938 39.24976563 26.56171875 38.49953125 26.3359375 37.7265625 C22.27723932 24.62653668 15.31665595 11.784749 2.9375 4.875 C1.63504084 4.22933648 0.32608237 3.59563983 -1 3 C-0.67 2.01 -0.34 1.02 0 0 Z M116 101 C115.16210938 101.76183594 114.32421875 102.52367187 113.4609375 103.30859375 C103.28982988 112.89714567 95.11886202 124.37081082 93.625 138.5625 C94.82185603 149.53368025 100.63708533 158.55299331 108.546875 166.0703125 C115.98951961 171.92487689 124.40503937 176.22235798 134.0703125 175.54296875 C152.61538131 172.10594933 169.64498793 155.59914577 180.09716797 140.46411133 C185.83782795 131.61727043 189.78812979 122.44891326 187.53125 111.78515625 C185.84205465 105.90313673 183.01009647 101.56846434 179 97 C178.26523437 96.15953125 177.53046875 95.3190625 176.7734375 94.453125 C169.42518533 86.56833378 162.41239612 81.862584 151.4375 81.4375 C136.76250424 82.08007378 126.21856509 91.33166534 116 101 Z M222.6015625 155.11328125 C221.32283768 155.60066772 221.32283768 155.60066772 220.01828003 156.09790039 C217.21919943 157.16601267 214.42206863 158.23913113 211.625 159.3125 C209.67778987 160.05702992 207.7305239 160.80141381 205.78320312 161.5456543 C195.66808909 165.41631765 185.56968212 169.32505288 175.5 173.3125 C157.14922657 180.57905588 138.66746822 187.50743397 120.2124939 194.50372314 C110.42681167 198.21463351 100.6492043 201.9464769 90.875 205.6875 C90.14786804 205.96575623 89.42073608 206.24401245 88.67156982 206.53070068 C84.78075858 208.01971584 80.89022066 209.50944241 77 211 C78.81423646 214.88831908 81.2831212 217.75414906 84.25 220.8125 C84.71535156 221.32748047 85.18070313 221.84246094 85.66015625 222.37304688 C87.22843615 224.06482998 87.22843615 224.06482998 90 226 C94.93167617 225.65782769 99.38539379 223.899171 103.96484375 222.1484375 C105.12310417 221.7130088 105.12310417 221.7130088 106.30476379 221.26878357 C108.8511316 220.30970855 111.39433462 219.3425317 113.9375 218.375 C115.74433909 217.69196523 117.55130751 217.00927251 119.35839844 216.3269043 C135.21490955 210.33079534 151.03858674 204.24877027 166.85275269 198.14201355 C174.00127447 195.3826105 181.15456578 192.63571658 188.30859375 189.890625 C191.79182095 188.55341845 195.27500488 187.21609922 198.75817871 185.87875366 C201.00500441 185.01636944 203.2519876 184.15439541 205.49914551 183.2928772 C219.37782448 177.97130346 233.21643747 172.56357501 247 167 C246.04785625 165.88347369 245.09489874 164.76764129 244.14160156 163.65209961 C243.34571625 162.71991859 243.34571625 162.71991859 242.53375244 161.76890564 C240.67593678 159.62625177 238.74533946 157.57747863 236.75 155.5625 C235.75226563 154.54349609 235.75226563 154.54349609 234.734375 153.50390625 C231.05456704 150.31308178 226.62321633 153.56711869 222.6015625 155.11328125 Z M145.375 234.6875 C138.55028104 243.97638537 134.02382402 253.36097872 135 265 C136.97264487 276.28352867 146.03511063 285.45766164 155 292 C161.7850085 296.08891275 168.07564118 298.30648135 176 297 C194.99528845 292.17708279 211.95700461 275.57709545 222.375 259.5625 C227.55159884 250.75918222 230.57722277 242.16392231 228 232 C223.73236973 219.82582258 214.30551196 210.71550991 202.97265625 204.97265625 C180.85196974 195.46733155 157.83423109 218.7372882 145.375 234.6875 Z " fill="#030303" transform="translate(155,101)"/>
<path d="M0 0 C7.20478923 6.80875431 10.95853486 15.01572578 11.72900391 24.80249023 C11.93518259 32.54760087 10.27212682 39.72995229 8.5625 47.25 C6.20789307 56.97244992 6.20789307 56.97244992 5.55078125 66.8984375 C5.5625 70.6875 5.5625 70.6875 4.35620117 72.33447266 C1.72346811 74.65467121 0.10795401 75.6875 -3.4375 75.6875 C-8.64495628 64.60335611 -5.04295457 51.21863252 -2.21655273 39.93408203 C-0.06386785 31.13468538 1.39933065 21.84759525 -3.4375 13.6875 C-8.87439958 6.32677441 -16.05686287 2.91654143 -24.4375 -0.3125 C-25.11425781 -0.580625 -25.79101562 -0.84875 -26.48828125 -1.125 C-38.77047062 -5.04658596 -52.84974996 -2.38363799 -64.1484375 2.97265625 C-76.82780471 9.97556829 -84.15905631 20.49049008 -88.53515625 34.1015625 C-95.21713858 61.14028168 -85.98560892 89.62965011 -71.96875 112.875 C-66.59818397 121.47031443 -60.6181843 129.60719949 -54.57324219 137.73510742 C-45.56918007 149.85586487 -37.76250346 161.95341605 -31.4375 175.6875 C-30.95410156 176.72648438 -30.47070312 177.76546875 -29.97265625 178.8359375 C-20.04999672 201.33534179 -17.57770374 227.50493076 -26.21728516 250.7890625 C-28.08168826 255.52488667 -30.19360577 260.12097841 -32.4375 264.6875 C-32.91058594 265.66203125 -33.38367188 266.6365625 -33.87109375 267.640625 C-39.76387793 279.05893768 -47.96167139 289.15455457 -55.80078125 299.27734375 C-75.9971465 325.37101702 -91.21906207 349.51421002 -87.16064453 384.04296875 C-84.8107991 399.32196374 -78.00048578 414.2236062 -65.4375 423.6875 C-47.09764968 435.67539993 -25.94779045 436.84752294 -4.8125 432.7265625 C5.60953989 430.42731423 14.64201239 425.84456711 22.5625 418.6875 C23.16320312 418.18992187 23.76390625 417.69234375 24.3828125 417.1796875 C36.36605864 406.48611807 41.28768792 390.09054472 42.4375 374.5625 C43.2317235 359.09192104 39.77614449 343.63381632 29.5625 331.6875 C28.593125 330.945 27.62375 330.2025 26.625 329.4375 C24.5625 327.6875 24.5625 327.6875 24.125 324.5625 C24.5625 321.6875 24.5625 321.6875 26.5625 319.6875 C29.72179473 319.01050827 31.70769999 319.16386997 34.48828125 320.8671875 C45.70102145 329.96801352 51.15570885 343.7573623 53.5625 357.6875 C55.19543629 381.1935145 52.50102791 402.76326752 36.73828125 421.31640625 C20.33662169 439.19038713 0.0082305 445.51076731 -23.6953125 446.875 C-35.72376489 447.13160698 -47.26351552 445.12583789 -58.4375 440.6875 C-59.68080078 440.20023437 -59.68080078 440.20023437 -60.94921875 439.703125 C-76.6731882 432.71469413 -87.84482205 419.04003241 -94.4453125 403.44921875 C-102.87681446 379.9804318 -101.30948783 353.43364181 -91.4375 330.6875 C-84.65609382 316.99742265 -74.83927464 304.65728003 -65.4375 292.6875 C-44.64297086 266.11131439 -30.04931683 241.41134505 -33.66894531 206.45214844 C-37.01445675 182.72620687 -51.23549108 161.06791157 -65.68701172 142.58984375 C-87.56216321 114.43658358 -104.88026649 80.1889104 -102.4375 43.6875 C-100.17623158 26.71908421 -92.93042542 11.48877557 -80.4375 -0.3125 C-56.01033078 -18.79993203 -24.16816957 -19.37108487 0 0 Z " fill="#151515" transform="translate(130.4375,33.3125)"/>
<path d="M0 0 C4.33466358 2.92800026 8.01063389 6.0753437 10 11 C10.959378 19.31460934 7.22341225 24.60526584 2.3125 30.9375 C-15.10757774 51.93175265 -15.10757774 51.93175265 -27 54 C-32.46934442 54.08821523 -35.15815437 53.25639882 -39.375 49.75 C-42.87128531 46.35674864 -44.80720997 44.01836898 -45.125 39.04296875 C-44.92490397 31.90204154 -41.40693797 27.36391902 -37 22 C-36.25234375 21.08863281 -35.5046875 20.17726563 -34.734375 19.23828125 C-26.94081946 10.22541138 -13.30932181 -5.02572114 0 0 Z " fill="#080808" transform="translate(354,325)"/>
<path d="M0 0 C4.4927271 2.71497581 8.01157297 6.09137096 10 11 C10.83288089 18.0199961 9.13251511 22.33001152 5 28 C1.48059289 32.1538765 -2.22020506 36.08345416 -6 40 C-6.94939453 41.04414063 -6.94939453 41.04414063 -7.91796875 42.109375 C-13.25547068 47.83989964 -20.79647235 53.64970603 -28.75 54.3125 C-34.64773532 54.21651516 -37.75607544 51.24392456 -41.8125 47.1875 C-44.37937648 43.44719427 -45.07686253 41.53488932 -45 37 C-42.95772073 29.02754685 -37.34847202 23.0067455 -32 17 C-31.42121094 16.34902344 -30.84242188 15.69804687 -30.24609375 15.02734375 C-22.36921432 6.69493394 -12.1337769 -2.41585678 0 0 Z " fill="#070707" transform="translate(313,203)"/>
<path d="M0 0 C2.98637831 1.29842535 5.43349056 3.00901086 8 5 C8.66902344 5.495 9.33804688 5.99 10.02734375 6.5 C18.05568246 12.91034339 24.65877214 22.91206233 27 33 C26.64302519 36.7180299 26.33940987 37.67799577 23.5625 40.3125 C21 42 21 42 19 42 C18.59910156 41.17757812 18.19820312 40.35515625 17.78515625 39.5078125 C11.25185795 26.67825167 3.4375113 17.29779877 -10.1875 11.6875 C-13.44155588 10.89206412 -16.67539473 10.39895263 -20 10 C-19.43997584 6.46340908 -18.32225676 5.04440308 -15.5625 2.8125 C-14.94503906 2.30332031 -14.32757813 1.79414062 -13.69140625 1.26953125 C-9.3566611 -1.98403035 -5.09814794 -1.0796078 0 0 Z " fill="#131313" transform="translate(151,106)"/>
<path d="M0 0 C0.66 0.33 1.32 0.66 2 1 C-5.33333333 8.33333333 -12.66666667 15.66666667 -20 23 C-20 19.44367951 -19.50125436 19.09404113 -17.1484375 16.6015625 C-16.54386719 15.95703125 -15.93929688 15.3125 -15.31640625 14.6484375 C-14.67574219 13.98070312 -14.03507812 13.31296875 -13.375 12.625 C-12.75753906 11.965 -12.14007813 11.305 -11.50390625 10.625 C-7.86902956 6.78350926 -4.13574584 3.2958713 0 0 Z " fill="#3E3E3E" transform="translate(294,208)"/>
<path d="M0 0 C0.66 0.33 1.32 0.66 2 1 C-3.28 6.28 -8.56 11.56 -14 17 C-14.66 16.67 -15.32 16.34 -16 16 C-5.62642369 4.29384966 -5.62642369 4.29384966 0 0 Z " fill="#3D3D3D" transform="translate(333,331)"/>
<path d="M0 0 C0.66 0.33 1.32 0.66 2 1 C-1.96 4.96 -5.92 8.92 -10 13 C-10.66 12.67 -11.32 12.34 -12 12 C-10.75479583 10.55834372 -9.50362077 9.12184348 -8.25 7.6875 C-7.55390625 6.88699219 -6.8578125 6.08648437 -6.140625 5.26171875 C-4.20854665 3.22034399 -2.30056874 1.60107149 0 0 Z " fill="#474747" transform="translate(54,30)"/>
</svg>
