<?xml version="1.0" encoding="UTF-8"?>
<svg version="1.1" xmlns="http://www.w3.org/2000/svg" width="980" height="968">
<path d="M0 0 C1.3054484 -0.00465992 2.6108968 -0.00931984 3.95590425 -0.01412097 C7.57533759 -0.02661021 11.1945347 -0.02048991 14.81396903 -0.01128729 C18.75323575 -0.0045726 22.69246207 -0.01524606 26.63172019 -0.02368313 C33.5345131 -0.03605585 40.43723804 -0.03725986 47.3400383 -0.0311327 C57.60480878 -0.02204567 67.86951635 -0.03007043 78.13428201 -0.04142394 C96.46724682 -0.06110054 114.80018337 -0.06343635 133.13315622 -0.05822874 C149.17779889 -0.05367333 165.22243037 -0.05426853 181.26707268 -0.06006908 C183.41844382 -0.06082595 185.56981496 -0.06158193 187.72118611 -0.06233703 C190.96302394 -0.06348221 194.20486177 -0.06463209 197.44669959 -0.06579627 C227.59054554 -0.07650296 257.73438777 -0.08122479 287.87823486 -0.07332611 C289.58305685 -0.07288035 289.58305685 -0.07288035 291.32231969 -0.07242559 C300.55216444 -0.0699766 309.78200914 -0.06736504 319.01185385 -0.06474145 C355.0165345 -0.05463853 391.02116852 -0.0629946 427.02584267 -0.086236 C467.46998658 -0.11230083 507.91410241 -0.12515862 548.35825503 -0.11804825 C552.66962726 -0.11733218 556.9809995 -0.11665779 561.29237175 -0.1160078 C562.88474559 -0.11575309 562.88474559 -0.11575309 564.50928861 -0.11549323 C580.54284638 -0.11318906 596.57637811 -0.12117287 612.60993004 -0.13429928 C630.84171119 -0.14919865 649.07343123 -0.1500696 667.30521105 -0.13222837 C677.50987495 -0.12265371 687.71439641 -0.12412401 697.91905084 -0.14146306 C704.73492031 -0.1519363 711.55068106 -0.14787505 718.36653979 -0.13198302 C722.25034829 -0.12333437 726.13387728 -0.12096752 730.01767163 -0.13625234 C734.20380501 -0.15257155 738.38926586 -0.13789728 742.57539368 -0.12025452 C743.77766554 -0.12990503 744.97993741 -0.13955554 746.21864176 -0.14949849 C757.17786957 -0.05441772 766.8542311 2.67882264 774.91353798 10.38031673 C782.52802963 18.77617473 786.04028375 26.62309244 786.03658581 38.02386093 C786.03773965 38.6813424 786.0388935 39.33882386 786.04008231 40.016229 C786.0427324 42.22272551 786.03824005 44.42914927 786.0337925 46.63564205 C786.03422853 48.23213044 786.03510402 49.82861876 786.03638166 51.4251067 C786.03862037 55.81482658 786.03461383 60.20452211 786.0296036 64.59423888 C786.02529037 69.32698321 786.02674615 74.05972614 786.02750587 78.79247189 C786.02803055 86.99318232 786.02488958 95.1938848 786.01926804 103.39459324 C786.01114548 115.25148239 786.00853704 127.1083677 786.00728004 138.96525934 C786.00509072 158.20167713 785.99843385 177.43809069 785.98897743 196.67450619 C785.97980024 215.36233149 785.97272091 234.05015565 785.96846962 252.73798275 C785.9682069 253.88964943 785.96794417 255.0413161 785.96767349 256.22788177 C785.96636846 262.00538009 785.96510475 267.78287842 785.96386158 273.56037676 C785.95349268 321.50035968 785.93587759 369.440338 785.91353798 417.38031673 C781.11500508 417.11539503 776.31649915 416.84999104 771.51801491 416.58418941 C769.89454766 416.4943232 768.2710738 416.40457616 766.64759254 416.31496334 C719.59979414 413.71756797 719.59979414 413.71756797 712.91353798 412.38031673 C712.91353798 299.19031673 712.91353798 186.00031673 712.91353798 69.38031673 C487.85353798 69.38031673 262.79353798 69.38031673 30.91353798 69.38031673 C30.91353798 341.96031673 30.91353798 614.54031673 30.91353798 895.38031673 C168.82112147 894.94458458 168.82112147 894.94458458 306.72823524 894.38934994 C333.35677528 894.33966732 333.35677528 894.33966732 345.80939674 894.33043575 C354.53608548 894.3201572 363.26200393 894.27972272 371.98847389 894.21898556 C382.04690584 894.149081 392.10459632 894.11709376 402.16327315 894.13242228 C407.31170006 894.1390642 412.45846883 894.12836584 417.60659325 894.0689503 C422.26014373 894.0155679 426.91085849 894.01264941 431.56453705 894.05040455 C433.24866693 894.05507923 434.93297189 894.0410362 436.61675632 894.00660837 C449.23227755 893.76377359 449.23227755 893.76377359 453.43230712 897.8021301 C455.24372967 900.60167817 456.6247218 903.31094943 457.91353798 906.38031673 C458.5370414 907.46482113 459.16054482 908.54932552 459.80294228 909.66669369 C460.51317543 911.00413631 460.51317543 911.00413631 461.23775673 912.36859798 C461.78536659 913.3938055 462.33297646 914.41901302 462.89718056 915.47528744 C463.45945351 916.53707211 464.02172646 917.59885677 464.60103798 918.69281673 C465.82733282 920.98462664 467.05390008 923.2762908 468.28072548 925.56781673 C470.04914702 928.88161565 471.8157602 932.19634541 473.57857704 935.51312923 C479.04549752 945.78329745 484.50066979 955.80204171 491.36666298 965.21234798 C492.91353798 967.38031673 492.91353798 967.38031673 492.91353798 968.38031673 C444.71887922 968.44879382 396.52421698 968.51247582 348.32952309 968.54968929 C347.25948854 968.55051764 347.25948854 968.55051764 346.16783714 968.55136271 C330.66448544 968.56333449 315.16113322 968.5744152 299.65778024 968.58457805 C292.05488166 968.58956738 284.45198323 968.59475359 276.84908485 968.6000433 C275.71421837 968.60082785 275.71421837 968.60082785 274.55642529 968.60162826 C250.03588597 968.61867204 225.51538353 968.64871608 200.99486654 968.68550562 C175.79574181 968.72324462 150.59663749 968.74786051 125.39748498 968.75597669 C121.83785256 968.7571293 118.27822021 968.75843185 114.71858788 968.75982571 C113.66771328 968.76023024 113.66771328 968.76023024 112.59560889 968.76064296 C101.320538 968.76536886 90.04553023 968.78391847 78.77048506 968.80764487 C67.43379553 968.83120572 56.0971875 968.83986198 44.7604676 968.83432224 C38.61854793 968.83175689 32.47681346 968.83572652 26.33492661 968.85713863 C20.71148639 968.8766003 15.08835601 968.87758894 9.46490155 968.86391231 C7.43108348 968.8622219 5.39724609 968.86729913 3.36346604 968.87984946 C-16.18620388 968.99346963 -16.18620388 968.99346963 -24.08646202 964.38031673 C-24.97720421 963.86211361 -25.8679464 963.34391048 -26.78568077 962.81000423 C-34.10593635 957.08611087 -39.51428339 950.40341388 -42.08646202 941.38031673 C-42.33769502 938.23210151 -42.33769502 938.23210151 -42.33946168 934.78488702 C-42.34404133 933.8230015 -42.34404133 933.8230015 -42.34871349 932.84168395 C-42.35650978 930.69199352 -42.35008306 928.54258458 -42.34373093 926.39289284 C-42.34642421 924.82986059 -42.34999198 923.26682966 -42.35435539 921.70380118 C-42.36383201 917.39187293 -42.36080673 913.08002896 -42.35579985 908.76809651 C-42.35253947 904.08335041 -42.36081054 899.39862258 -42.3676182 894.71388227 C-42.37793831 886.49760946 -42.38075851 878.28136024 -42.37870598 870.0650816 C-42.37566122 857.84723908 -42.38396828 845.62942273 -42.39445523 833.41158529 C-42.41381852 810.32311728 -42.41942431 787.23465814 -42.42056935 764.14618298 C-42.42148764 746.31983569 -42.42560022 728.49349189 -42.4319706 710.66714573 C-42.43376562 705.53999641 -42.43554525 700.41284708 -42.43732035 695.28569776 C-42.43776245 694.01115621 -42.43820454 692.73661466 -42.43866004 691.42345063 C-42.45097203 655.56277807 -42.45887257 619.70210712 -42.45797348 583.84143257 C-42.45794192 582.47515862 -42.45791045 581.10888466 -42.45787906 579.74261071 C-42.4577323 573.57392433 -42.45755596 567.40523796 -42.45737129 561.23655158 C-42.45728905 558.48574735 -42.45720875 555.73494311 -42.45712867 552.98413887 C-42.45708788 551.6073115 -42.45704584 550.23048414 -42.45700255 548.85365677 C-42.45564195 505.31329452 -42.47027826 461.77296479 -42.49808311 418.23261166 C-42.50508507 407.26208506 -42.51202395 396.29155843 -42.51861191 385.32103157 C-42.51901766 384.64554682 -42.5194234 383.97006208 -42.51984145 383.2741081 C-42.5416128 346.80914516 -42.54556627 310.3441814 -42.54415667 273.8792122 C-42.5440074 268.75111981 -42.54390999 263.62302743 -42.54384804 258.49493504 C-42.54382473 257.23222131 -42.54380142 255.96950758 -42.54377741 254.66852979 C-42.54371579 234.32401657 -42.55650239 213.97953074 -42.57371257 193.63502567 C-42.59064335 173.19852501 -42.59266294 152.76206456 -42.57949392 132.32556077 C-42.57208781 120.17643555 -42.57581222 108.02743228 -42.59537861 95.87831991 C-42.6073384 87.76877864 -42.60483227 79.65932611 -42.59043761 71.54978898 C-42.58264071 66.9254092 -42.58121983 62.30126617 -42.59735231 57.67690267 C-42.6118993 53.47029721 -42.60805049 49.26412585 -42.58950458 45.05753978 C-42.58606063 43.54492259 -42.58932317 42.0322715 -42.60010699 40.51968883 C-42.68515432 27.73476317 -40.05268688 18.77097827 -31.08646202 9.38031673 C-21.60016715 1.4201534 -12.09761423 -0.06753322 0 0 Z " fill="#030303" transform="translate(42.08646202087402,-0.38031673431396484)"/>
<path d="M0 0 C0.87971466 -0.00701431 1.75942932 -0.01402863 2.665802 -0.02125549 C5.49339974 -0.03868058 8.32078801 -0.04510899 11.1484375 -0.046875 C12.11463013 -0.04754974 13.08082275 -0.04822449 14.07629395 -0.04891968 C28.44372417 -0.03296382 42.38356299 0.46066475 56.5234375 3.203125 C57.42191406 3.36409668 58.32039063 3.52506836 59.24609375 3.69091797 C109.93354886 12.86436038 154.50694503 37.91839825 191.5234375 73.203125 C192.32265625 73.96109375 193.121875 74.7190625 193.9453125 75.5 C199.62836371 81.02627739 204.62086208 86.98158259 209.5234375 93.203125 C210.71259766 94.68425781 210.71259766 94.68425781 211.92578125 96.1953125 C234.94064855 125.35474942 250.54755312 158.9580498 258.5234375 195.203125 C258.73371582 196.09870117 258.94399414 196.99427734 259.16064453 197.91699219 C262.83358882 214.09190597 262.91584809 230.32301149 262.9609375 246.828125 C262.97033356 248.43814392 262.97033356 248.43814392 262.97991943 250.08068848 C263.05310289 269.94639505 261.5768379 289.71446846 256.8984375 309.078125 C256.64465332 310.14216553 256.39086914 311.20620605 256.12939453 312.30249023 C246.20404021 352.33592797 226.83926726 390.62853978 198.12109375 420.48828125 C195.99374085 422.71160496 193.99396201 424.96824384 192.0234375 427.328125 C158.72053072 465.49102535 105.51879928 489.78586508 56.5234375 498.203125 C55.59547363 498.36538574 54.66750977 498.52764648 53.71142578 498.69482422 C-12.16492568 509.66855373 -81.50095377 493.55403438 -135.75390625 454.890625 C-145.91492881 447.41339421 -155.76926969 439.34821465 -164.4765625 430.203125 C-165.2603125 429.419375 -166.0440625 428.635625 -166.8515625 427.828125 C-167.7178125 426.961875 -168.5840625 426.095625 -169.4765625 425.203125 C-170.11078125 424.60371094 -170.745 424.00429688 -171.3984375 423.38671875 C-186.08885775 409.24328224 -197.34959544 391.78479303 -207.4765625 374.203125 C-208.13398438 373.0790625 -208.79140625 371.955 -209.46875 370.796875 C-229.7481974 334.63593265 -238.9749197 292.31092731 -238.7890625 251.078125 C-238.78723969 250.23072754 -238.78541687 249.38333008 -238.78353882 248.51025391 C-238.73326271 234.55740447 -237.98314591 220.95573008 -235.4765625 207.203125 C-235.31559082 206.28321777 -235.15461914 205.36331055 -234.98876953 204.41552734 C-227.71914322 164.00310901 -209.93222801 124.69122081 -183.4765625 93.203125 C-182.54652711 92.06929569 -181.6168451 90.93517643 -180.6875 89.80078125 C-138.45004639 38.84287378 -77.42965948 7.55071443 -11.88165283 0.4135437 C-7.92198641 0.06711685 -3.97290218 0.02126853 0 0 Z M-115.4765625 91.203125 C-116.48589844 92.00878906 -117.49523437 92.81445312 -118.53515625 93.64453125 C-161.2998168 128.44316097 -187.67777102 177.55546842 -194.4765625 232.203125 C-194.67378906 233.74033203 -194.67378906 233.74033203 -194.875 235.30859375 C-199.12574414 276.03531797 -189.8132103 317.36191636 -170.4765625 353.203125 C-170.16251465 353.79641602 -169.8484668 354.38970703 -169.52490234 355.00097656 C-144.62554888 401.80815061 -99.66664005 437.30060051 -49.40429688 453.17333984 C4.69921748 469.10733457 61.64977138 463.71074267 111.5234375 437.203125 C126.94785835 428.64757715 141.33250843 417.94105507 153.99755859 405.67773438 C155.05401272 404.65677711 156.11733167 403.64289355 157.18603516 402.63476562 C171.36696348 389.24944055 182.76586168 374.05972639 192.5234375 357.203125 C192.90983398 356.53877441 193.29623047 355.87442383 193.69433594 355.18994141 C220.16466099 309.07211189 226.36601434 252.4783021 212.95703125 201.28125 C203.7813218 168.04238578 187.03270384 137.55100309 162.99804688 112.72900391 C161.97708961 111.67254978 160.96320605 110.60923083 159.95507812 109.54052734 C146.56975305 95.35959902 131.38003889 83.96070082 114.5234375 74.203125 C113.85908691 73.81672852 113.19473633 73.43033203 112.51025391 73.03222656 C41.71211233 32.39610296 -51.98334445 40.11160842 -115.4765625 91.203125 Z " fill="#060606" transform="translate(717.4765625,449.796875)"/>
<path d="M0 0 C140.25 0 280.5 0 425 0 C425 22.77 425 45.54 425 69 C284.75 69 144.5 69 0 69 C0 46.23 0 23.46 0 0 Z " fill="#040404" transform="translate(161,208)"/>
<path d="M0 0 C9.42502859 6.14564248 12.6585128 15.99179363 16.75 25.9375 C17.40698028 27.50900942 18.06527449 29.07997016 18.72485352 30.65039062 C19.71479074 33.00838797 20.70361152 35.3667932 21.68727112 37.72741699 C24.91074284 45.46035982 28.28317274 53.12467652 31.70605469 60.77148438 C32.08020508 61.62033203 32.45435547 62.46917969 32.83984375 63.34375 C33.16331787 64.06884766 33.48679199 64.79394531 33.82006836 65.54101562 C34.5 67.4375 34.5 67.4375 34.5 70.4375 C35.16217529 70.47198242 35.82435059 70.50646484 36.5065918 70.54199219 C47.11738183 71.22127585 57.60493754 72.70119345 68.12182617 74.22900391 C70.25672054 74.53578573 72.39282854 74.83423254 74.5300293 75.12451172 C77.65443197 75.54905799 80.77440942 75.99830178 83.89453125 76.453125 C84.84052689 76.57729797 85.78652252 76.70147095 86.76118469 76.82940674 C95.81782226 78.20582844 102.17127127 82.12949279 107.953125 89.2109375 C112.46488844 95.70514246 114.03131195 101.55042455 113.34765625 109.40625 C110.86445381 118.28627346 106.05024191 124.62524829 99.625 131.0625 C98.25123784 132.47002191 96.87883304 133.87886994 95.5078125 135.2890625 C94.50089355 136.31918457 94.50089355 136.31918457 93.47363281 137.37011719 C90.94295589 140.0210044 88.54361968 142.77182436 86.14794922 145.54443359 C83.19294078 148.93897218 80.1083452 152.21304431 77.0390625 155.50390625 C76.07285661 156.54423905 75.11724365 157.5945368 74.17384338 158.65559387 C72.5 160.4375 72.5 160.4375 70.63218689 162.03105164 C67.49262679 164.94895517 65.63791749 167.07538607 65.19680786 171.43191528 C65.4610516 175.06429553 65.96385464 178.58391144 66.56640625 182.17578125 C66.75946648 183.5050993 66.94876676 184.83496828 67.13450623 186.16532898 C67.63117866 189.65701825 68.17370331 193.13995343 68.72784424 196.6229248 C69.49675531 201.51013088 70.20217261 206.40697323 70.91551208 211.30253601 C71.29471162 213.90347052 71.69237179 216.4992598 72.10072327 219.09602356 C75.48304564 241.20464199 75.48304564 241.20464199 70.5 249.4375 C66.15300767 253.67303099 61.65713045 257.54158205 55.4375 257.75 C54.72464844 257.78738281 54.01179687 257.82476563 53.27734375 257.86328125 C44.42264927 256.50581051 36.10710833 250.68022468 28.28433228 246.49603271 C26.1586202 245.35955995 24.03009952 244.22848845 21.90112305 243.09814453 C15.60432198 239.74808262 9.3304666 236.37115883 3.1328125 232.83984375 C2.21798096 232.32107666 1.30314941 231.80230957 0.3605957 231.26782227 C-1.29155243 230.32421251 -2.93678866 229.36835499 -4.57348633 228.39819336 C-5.29560303 227.98577393 -6.01771973 227.57335449 -6.76171875 227.1484375 C-7.36975342 226.79056152 -7.97778809 226.43268555 -8.60424805 226.06396484 C-12.11089514 224.90516814 -14.83449599 226.1291496 -18.07348633 227.62988281 C-18.98380615 228.12842773 -19.89412598 228.62697266 -20.83203125 229.140625 C-22.38458618 229.98391357 -22.38458618 229.98391357 -23.96850586 230.84423828 C-25.62378296 231.75665283 -25.62378296 231.75665283 -27.3125 232.6875 C-29.04987247 233.63698997 -30.78724981 234.58647122 -32.52497864 235.53530884 C-33.71768458 236.18705077 -34.90988998 236.8397095 -36.10160828 237.49325562 C-40.19750672 239.73731107 -44.31480293 241.93722902 -48.4453125 244.1171875 C-49.53739014 244.69694336 -50.62946777 245.27669922 -51.75463867 245.87402344 C-53.8398645 246.98021519 -55.9284663 248.08007176 -58.02075195 249.17285156 C-58.96136475 249.67526367 -59.90197754 250.17767578 -60.87109375 250.6953125 C-61.69536865 251.1298877 -62.51964355 251.56446289 -63.36889648 252.01220703 C-65.61439707 253.34006079 -65.61439707 253.34006079 -67.07910156 255.57568359 C-68.5 257.4375 -68.5 257.4375 -71.86328125 257.96875 C-73.16652344 257.9584375 -74.46976563 257.948125 -75.8125 257.9375 C-77.10800781 257.9478125 -78.40351562 257.958125 -79.73828125 257.96875 C-84.71593085 257.26577976 -87.79469998 255.4136169 -91.07421875 251.61328125 C-92.2872883 249.5829859 -93.43003201 247.54718954 -94.5 245.4375 C-94.83386719 244.78007813 -95.16773438 244.12265625 -95.51171875 243.4453125 C-99.54969266 233.76148367 -96.71663424 222.24186732 -94.93991089 212.28419495 C-94.12404493 207.70947772 -93.36735439 203.12546896 -92.60986328 198.54077148 C-92.2027331 196.17703686 -91.76737002 193.81799485 -91.30419922 191.46459961 C-88.34843153 178.49440294 -88.34843153 178.49440294 -90.76074219 165.85418701 C-94.05787219 161.23784662 -98.07477041 157.67792233 -102.48751831 154.15699768 C-105.28081963 151.77035478 -107.59809499 149.06784159 -109.96109009 146.26327515 C-111.87485009 143.99277482 -113.89469815 141.83608623 -115.92578125 139.67114258 C-136.57363868 117.64235533 -136.57363868 117.64235533 -137.6015625 103.86328125 C-137.29534398 96.54936977 -135.37458872 89.00845853 -130.5 83.4375 C-125.29986775 79.15068212 -120.39108765 78.40055524 -113.8125 77.5 C-112.75119873 77.34305664 -111.68989746 77.18611328 -110.59643555 77.02441406 C-107.58101605 76.58187006 -104.56386164 76.15382164 -101.54589844 75.72906494 C-98.58169919 75.30663118 -95.62021139 74.86638962 -92.65852356 74.42674255 C-88.71067773 73.84131997 -84.76160394 73.26436307 -80.8125 72.6875 C-80.0447525 72.57463654 -79.277005 72.46177307 -78.48599243 72.3454895 C-76.27905615 72.02260752 -74.071338 71.70574235 -71.86328125 71.390625 C-70.58751221 71.20661133 -69.31174316 71.02259766 -67.99731445 70.83300781 C-64.79214011 70.47053783 -61.72144812 70.36194167 -58.5 70.4375 C-58.38081711 69.72794159 -58.26163422 69.01838318 -58.13883972 68.287323 C-57.46514642 65.28202043 -56.47519759 62.67724755 -55.27856445 59.84033203 C-54.81750809 58.74214142 -54.35645172 57.64395081 -53.88142395 56.51248169 C-53.38043686 55.33531586 -52.87944977 54.15815002 -52.36328125 52.9453125 C-51.8409476 51.71371577 -51.31866553 50.48209716 -50.7964325 49.25045776 C-49.7013254 46.67176031 -48.60195301 44.09492621 -47.50024414 41.51904297 C-46.09753331 38.23703005 -44.7111171 34.94840335 -43.32861042 31.65783882 C-42.25536407 29.11118728 -41.17058279 26.5695665 -40.0826931 24.02914047 C-39.31824911 22.23628009 -38.56563468 20.43839041 -37.81330872 18.64041138 C-34.66566789 11.34924493 -31.180572 3.48413044 -23.5 0 C-16.29570411 -2.8158923 -7.14424378 -3.16760137 0 0 Z M-12.5 55.4375 C-13.03572632 56.87246826 -13.03572632 56.87246826 -13.58227539 58.33642578 C-14.93700872 61.95882558 -16.30195349 65.57731171 -17.66967773 69.19482422 C-18.25505817 70.74719487 -18.83783451 72.30055055 -19.41772461 73.85498047 C-22.87897033 83.12692356 -26.59850318 92.04585557 -31.21264648 100.80810547 C-32.64657536 103.24893963 -32.64657536 103.24893963 -32.5 105.4375 C-33.04785156 105.48140869 -33.59570312 105.52531738 -34.16015625 105.57055664 C-41.34220831 106.2121241 -48.41575358 107.33222446 -55.52246094 108.53930664 C-57.49611441 108.87434041 -59.47071518 109.20377773 -61.4453125 109.53320312 C-68.4893443 110.7178812 -75.50820602 111.97436429 -82.5 113.4375 C-79.2782413 117.60994159 -75.90994778 121.00798433 -71.80429077 124.33105469 C-51.59652446 140.72825785 -51.59652446 140.72825785 -49.75341797 150.32470703 C-49.92832461 158.27653628 -52.04539839 165.66596134 -54.49560547 173.18945312 C-55.79147428 177.38007992 -56.40041269 181.45996125 -56.8125 185.8125 C-56.95300781 186.93398438 -57.09351563 188.05546875 -57.23828125 189.2109375 C-57.54361196 192.97516388 -57.54524394 196.66168727 -57.5 200.4375 C-48.82103275 196.3405962 -40.52948622 191.66659717 -32.23950195 186.84082031 C-29.67064187 185.35270651 -27.08860802 183.89095183 -24.5 182.4375 C-23.6327832 181.93621582 -22.76556641 181.43493164 -21.87207031 180.91845703 C-18.10399582 178.85491983 -15.38776416 177.4717222 -11.0546875 177.3046875 C-5.99116287 178.91833821 -1.36603705 181.17781738 3.375 183.5625 C10.63028727 187.12736755 17.88630127 190.57634439 25.375 193.625 C26.08769043 193.91584473 26.80038086 194.20668945 27.53466797 194.50634766 C30.42898111 195.85966666 30.42898111 195.85966666 33.5 196.4375 C33.13549154 187.5510351 32.39012972 178.80363667 31.125 170 C31.01115967 169.20440674 30.89731934 168.40881348 30.7800293 167.58911133 C30.65926025 166.77724365 30.53849121 165.96537598 30.4140625 165.12890625 C30.30199463 164.2562915 30.18992676 163.38367676 30.07446289 162.48461914 C29.60812408 160.01102171 29.00538986 157.94471189 28.17358398 155.59155273 C26.76686715 151.17752024 25.65327787 147.07018052 26.5 142.4375 C30.13567646 135.54224822 36.57738129 130.48307118 42.3125 125.375 C43.87233627 123.91559975 45.42773249 122.45143853 46.97851562 120.98242188 C50.76942475 117.41080598 54.61140727 113.90234908 58.5 110.4375 C58.17 109.7775 57.84 109.1175 57.5 108.4375 C54.4476042 107.7276381 54.4476042 107.7276381 50.7109375 107.25390625 C50.01545807 107.15287094 49.31997864 107.05183563 48.60342407 106.94773865 C46.36174212 106.62328674 44.11859626 106.31091485 41.875 106 C36.79293668 105.28406546 31.71529666 104.5458851 26.64334106 103.76132202 C25.2134459 103.54528942 23.78195249 103.33958489 22.34909058 103.14419556 C11.01147061 101.5834688 11.01147061 101.5834688 7.6796875 99.05737305 C6.37502779 97.25357406 5.60159663 95.58021045 4.8125 93.5 C4.48838135 92.787229 4.1642627 92.07445801 3.83032227 91.34008789 C3.09679302 89.69968673 2.39187596 88.04630915 1.70996094 86.38378906 C0.29037118 82.9270479 -1.20868544 79.50724126 -2.7109375 76.0859375 C-5.70762317 69.23075181 -8.62197675 62.34343662 -11.5 55.4375 C-11.83 55.4375 -12.16 55.4375 -12.5 55.4375 Z " fill="#070707" transform="translate(741.5,574.5625)"/>
<path d="M0 0 C112.2 0 224.4 0 340 0 C340 22.77 340 45.54 340 69 C227.8 69 115.6 69 0 69 C0 46.23 0 23.46 0 0 Z " fill="#040404" transform="translate(161,382)"/>
<path d="M0 0 C56.1 0 112.2 0 170 0 C170 22.77 170 45.54 170 69 C113.9 69 57.8 69 0 69 C0 46.23 0 23.46 0 0 Z " fill="#040404" transform="translate(161,581)"/>
<path d="M0 0 C0.66 0.33 1.32 0.66 2 1 C-8.23 11.23 -18.46 21.46 -29 32 C-29.66 31.67 -30.32 31.34 -31 31 C-10.94954128 8.9587156 -10.94954128 8.9587156 0 0 Z " fill="#616161" transform="translate(569,507)"/>
<path d="M0 0 C0.66 0.33 1.32 0.66 2 1 C-1.96 4.96 -5.92 8.92 -10 13 C-10 8.41771462 -7.08388033 6.1816619 -4 3 C-1.625 1.0625 -1.625 1.0625 0 0 Z " fill="#717171" transform="translate(16,5)"/>
<path d="M0 0 C0.66 0.33 1.32 0.66 2 1 C-0.97 3.97 -3.94 6.94 -7 10 C-7 5.69032084 -4.83274712 4.10253255 -2 1 C-1.34 0.67 -0.68 0.34 0 0 Z " fill="#6B6B6B" transform="translate(716,576)"/>
</svg>
