<?xml version="1.0" encoding="UTF-8"?>
<svg version="1.1" xmlns="http://www.w3.org/2000/svg" width="1200" height="1200">
<path d="M0 0 C0.81807129 0.04108887 1.63614258 0.08217773 2.47900391 0.12451172 C52.84501431 2.88296513 100.58861808 21.77745635 137.39453125 56.546875 C139.60731071 58.63027155 141.86248316 60.60747601 144.1875 62.5625 C164.86601255 80.70377175 180.35014185 106.89326545 191 132 C191.27005859 132.63260742 191.54011719 133.26521484 191.81835938 133.91699219 C195.28400505 142.18747749 197.86900655 150.65534659 200.1875 159.3125 C200.42549316 160.18793457 200.66348633 161.06336914 200.90869141 161.96533203 C205.05061458 178.07732609 206.49577737 193.86619662 206.39111328 210.47021484 C206.37501314 213.49752835 206.39107371 216.52350745 206.41015625 219.55078125 C206.42423695 231.97659208 205.41757 243.81319593 203 256 C202.77570313 257.15322754 202.55140625 258.30645508 202.3203125 259.49462891 C201.69616334 262.52979061 201.02160794 265.54612683 200.3125 268.5625 C200.05686279 269.65127441 199.80122559 270.74004883 199.5378418 271.86181641 C192.47403469 301.18240592 181.37312765 328.9119965 169.14355469 356.41601562 C168.05275622 358.88079167 166.98036512 361.3526703 165.9140625 363.828125 C162.05422123 372.74024809 157.81509407 381.34292052 153.19921875 389.88671875 C151.14627017 393.69476499 149.21831167 397.55432053 147.3125 401.4375 C130.11760845 436.17030141 109.88330647 469.38357266 89 502 C88.51273438 502.76248047 88.02546875 503.52496094 87.5234375 504.31054688 C80.55422225 515.1931042 73.38183901 525.93299799 66.125 536.625 C65.7223996 537.21828094 65.31979919 537.81156189 64.90499878 538.42282104 C59.99324 545.65522426 55.03426107 552.85224798 50 560 C49.51901855 560.68529785 49.03803711 561.3705957 48.54248047 562.07666016 C38.10295383 576.94795782 27.53958803 591.72251634 16.625 606.25 C15.97112305 607.13139648 15.31724609 608.01279297 14.64355469 608.92089844 C10.52581181 614.36017876 6.23575761 619.8821212 0 623 C-5.58221141 623.56470132 -11.39678463 623.9203486 -16.21484375 620.6171875 C-24.6407507 612.98409017 -31.01091997 602.98402199 -37.57421875 593.78125 C-41.01587151 588.95918124 -44.53488164 584.19684632 -48.0625 579.4375 C-77.24612603 539.92791345 -104.22101756 498.62151672 -129.34765625 456.42578125 C-131.63917328 452.58361361 -133.99715941 448.78926204 -136.375 445 C-139.38093648 440.14473223 -141.96743218 435.18837492 -144.4609375 430.0546875 C-146.07181437 426.85746488 -147.82255907 423.78057764 -149.625 420.6875 C-155.45327811 410.65867402 -160.69867921 400.31368466 -166 390 C-166.36593262 389.29149902 -166.73186523 388.58299805 -167.10888672 387.85302734 C-169.47201545 383.26674615 -171.75543043 378.64538253 -174 374 C-174.45955078 373.05189453 -174.91910156 372.10378906 -175.39257812 371.12695312 C-193.55937092 333.42447766 -208.80619366 294.13674121 -217 253 C-217.28810547 251.56430664 -217.28810547 251.56430664 -217.58203125 250.09960938 C-222.20018212 225.93363669 -221.78823604 199.0906666 -217 175 C-216.82839355 174.13165527 -216.65678711 173.26331055 -216.47998047 172.36865234 C-208.85654565 135.12350654 -191.89288446 100.23633394 -166.06640625 72.25390625 C-164.23259442 70.2536994 -162.48962633 68.20656762 -160.75 66.125 C-125.51918503 25.86121147 -70.8994726 4.05900596 -18.55078125 0.34765625 C-12.33430319 -0.05563609 -6.22680419 -0.32195797 0 0 Z M-81 109 C-81.20001978 111.815972 -81.2735954 114.5339452 -81.26069641 117.35131836 C-81.26452196 118.22549628 -81.26834751 119.09967421 -81.27228898 120.00034237 C-81.28265658 122.94690296 -81.27861975 125.89327005 -81.2746582 128.83984375 C-81.27900257 130.94524314 -81.28418479 133.05064094 -81.29014587 135.15603638 C-81.30357594 140.88729212 -81.30411016 146.61848209 -81.30158257 152.34975052 C-81.30051569 157.1264687 -81.30538889 161.90317342 -81.310188 166.67988873 C-81.32129679 177.94382922 -81.32171271 189.20773636 -81.31567383 200.47167969 C-81.30962999 212.11081163 -81.32195236 223.7498228 -81.3432439 235.38893414 C-81.36082722 245.36600105 -81.36686648 255.34302942 -81.36360615 265.32011127 C-81.36178811 271.28602186 -81.36448121 277.25184629 -81.37832069 283.21774292 C-81.39084157 288.82538017 -81.38900967 294.43282834 -81.37590981 300.04046249 C-81.37353199 302.10369809 -81.37632142 304.16694676 -81.38453293 306.23016739 C-81.39490063 309.03656231 -81.38698083 311.84231091 -81.3742218 314.64868164 C-81.38159609 315.47415465 -81.38897037 316.29962767 -81.39656812 317.15011501 C-81.40825967 319.64186399 -81.40825967 319.64186399 -81 323 C-77.24736442 325.50175706 -74.31538644 325.28154243 -69.97119141 325.25878906 C-68.74364639 325.26404602 -68.74364639 325.26404602 -67.49130249 325.26940918 C-64.77797012 325.27822962 -62.06489768 325.27237083 -59.3515625 325.265625 C-57.45885163 325.26697286 -55.56614109 325.2689144 -53.6734314 325.27142334 C-49.69713053 325.27437609 -45.72091936 325.2700769 -41.74462891 325.26074219 C-36.68011008 325.24942528 -31.61580506 325.25585649 -26.55129433 325.26788712 C-22.63559405 325.27516834 -18.71994307 325.27278794 -14.80424118 325.26763153 C-12.9393753 325.26630822 -11.07450476 325.2678959 -9.20964432 325.27259064 C13.53966344 325.31723938 34.3924961 322.21912556 51.75 305.9375 C63.40463798 293.65970942 68.5365715 279.8472274 68.42016602 262.98974609 C67.98577823 249.03659976 61.16364627 238.39004546 51.2265625 228.875 C44.27174338 223.01831021 36.18783816 218.85414508 28 215 C28 214.34 28 213.68 28 213 C29.54287884 211.95825306 31.13800326 210.9937241 32.75 210.0625 C47.20698805 201.06414275 58.61351462 188.47158087 62.5859375 171.49609375 C64.73208787 158.5584514 60.8364191 145.97386146 54 135 C51.2220049 131.41744894 48.22058155 128.18619812 45 125 C44.48179687 124.44828125 43.96359375 123.8965625 43.4296875 123.328125 C31.07984721 111.30157896 12.13877142 106.8446068 -4.49560547 106.85473633 C-5.30310745 106.85137772 -6.11060944 106.8480191 -6.94258118 106.84455872 C-9.58413267 106.83513812 -12.22562031 106.83311095 -14.8671875 106.83203125 C-16.71184312 106.82881541 -18.55649848 106.82545109 -20.40115356 106.82194519 C-24.25246778 106.81597837 -28.10375962 106.81410306 -31.95507812 106.81469727 C-36.89833266 106.81479943 -41.8414453 106.80108106 -46.78466606 106.78392506 C-50.58666653 106.77283657 -54.38863214 106.77077699 -58.19064713 106.77130699 C-60.01436991 106.77012466 -61.83809353 106.76568876 -63.66180038 106.75797462 C-66.20155786 106.74822669 -68.74099965 106.75103062 -71.28076172 106.75708008 C-72.03711411 106.75146057 -72.79346649 106.74584106 -73.57273865 106.74005127 C-77.74275867 106.62764405 -77.74275867 106.62764405 -81 109 Z " fill="#000000" transform="translate(994,406)"/>
<path d="M0 0 C3.94991606 1.74757034 7.91416865 3.46071324 11.87890625 5.17431641 C19.43693152 8.44668615 26.98307821 11.74566532 34.52561951 15.05354309 C40.37030769 17.61630131 46.21860506 20.17059643 52.0703125 22.71728516 C52.86445053 23.06291504 53.65858856 23.40854492 54.47679138 23.76464844 C56.07893552 24.46192161 57.68108294 25.15918724 59.28323364 25.85644531 C77.71069845 33.87839753 96.11500318 41.9528198 114.51416016 50.03944397 C120.69696752 52.75658243 126.88135435 55.47010405 133.06640625 58.18212891 C148.70510163 65.04029402 164.33962726 71.90588856 179.93676758 78.8581543 C190.06806534 83.36872146 200.22294812 87.82508524 210.37890625 92.27978516 C231.52437259 101.5556535 231.52437259 101.5556535 240.23828125 105.39306641 C241.29359291 105.85779358 241.29359291 105.85779358 242.370224 106.33190918 C245.82403759 107.85370415 249.27650852 109.37845347 252.72680664 110.90820312 C254.09647929 111.51522165 255.46618968 112.12215502 256.8359375 112.72900391 C257.51483536 113.02979858 258.19373322 113.33059326 258.89320374 113.64050293 C263.4480297 115.65389628 268.01566472 117.63577113 272.59062195 119.60296631 C275.87540969 121.01770133 279.15494185 122.44437927 282.43392944 123.87249756 C283.99520269 124.5489713 285.55879892 125.22011435 287.12490845 125.88531494 C301.21382176 131.87351035 314.10209103 139.33822432 320.88671875 153.81884766 C326.01530869 166.80150675 327.57104426 180.18526658 322.31640625 193.46728516 C319.95243472 198.34021847 317.31986544 202.96209636 314.31640625 207.46728516 C313.65640625 207.46728516 312.99640625 207.46728516 312.31640625 207.46728516 C311.95494507 208.35444214 311.95494507 208.35444214 311.58618164 209.25952148 C307.07468477 217.10367957 295.12382683 221.37172682 287.37890625 225.27978516 C286.17200758 225.896199 284.96555184 226.51348079 283.75952148 227.1315918 C281.36840086 228.35659378 278.97575544 229.57841047 276.58203125 230.79833984 C272.33167415 232.97054686 268.10099104 235.17822712 263.87890625 237.40478516 C263.13987061 237.79375977 262.40083496 238.18273437 261.6394043 238.58349609 C257.10993204 240.97382496 252.59502974 243.39029866 248.0859375 245.81884766 C245.78790028 247.05608664 243.48971834 248.29305685 241.19140625 249.52978516 C240.31643997 250.00067566 240.31643997 250.00067566 239.42379761 250.4810791 C228.7848783 256.20070527 218.058516 261.74070459 207.30822754 267.24749756 C198.79287479 271.61207557 190.32168107 276.03412737 181.94140625 280.65478516 C174.14885341 284.95110226 166.30597997 289.14345001 158.41424561 293.25430298 C157.19023639 293.89218259 155.96695848 294.5314676 154.7444458 295.17221069 C153.04669891 296.06128824 151.34568659 296.94412184 149.64453125 297.82666016 C148.66387695 298.33680664 147.68322266 298.84695313 146.67285156 299.37255859 C144.31640625 300.46728516 144.31640625 300.46728516 142.31640625 300.46728516 C142.31640625 301.12728516 142.31640625 301.78728516 142.31640625 302.46728516 C143.48429687 302.79212891 143.48429687 302.79212891 144.67578125 303.12353516 C149.58456073 304.93535934 154.00033233 307.42798086 158.56640625 309.96728516 C159.53642578 310.50119873 160.50644531 311.0351123 161.50585938 311.58520508 C166.10310867 314.11903608 170.68891822 316.67305439 175.26953125 319.23681641 C176.78502379 320.08470946 178.30064488 320.93237279 179.81640625 321.77978516 C180.55568359 322.19309082 181.29496094 322.60639648 182.05664062 323.03222656 C186.34291706 325.41423739 190.66465814 327.67791849 195.06640625 329.84228516 C201.85157764 333.18065145 208.46911748 336.791952 215.09667969 340.43164062 C223.13661352 344.84050592 231.22029398 349.16286994 239.31640625 353.46728516 C248.77893082 358.49947213 258.21290449 363.57832566 267.60693359 368.73754883 C273.31588166 371.86082748 279.05372002 374.92585038 284.80859375 377.96337891 C285.55886841 378.35950378 286.30914307 378.75562866 287.08215332 379.16375732 C290.81654121 381.13426953 294.55291959 383.10089235 298.29199219 385.0625 C305.57145588 388.89098398 312.74493482 392.82930061 319.82666016 397.01733398 C322.72093742 398.70287161 325.67063668 400.20918899 328.69140625 401.65478516 C334.65305295 404.59014933 340.49223704 407.70586839 346.31640625 410.90478516 C355.2805963 415.82792274 364.2864722 420.66630919 373.31640625 425.46728516 C381.96658283 430.06774753 390.60158611 434.69221242 399.19140625 439.40478516 C408.14977079 444.31757327 417.16383779 449.12086767 426.19140625 453.90478516 C436.63640063 459.43990253 447.05873265 465.01247067 457.4453125 470.65673828 C465.01257008 474.76715822 472.5983323 478.84228021 480.19140625 482.90478516 C490.31034553 488.31908645 500.42004504 493.75022419 510.52246094 499.1953125 C517.8953522 503.16765031 525.27593054 507.12545166 532.66015625 511.07666016 C541.89188161 516.01644302 551.1139748 520.97310488 560.31640625 525.96728516 C568.88622348 530.61765658 577.47044909 535.2404136 586.06640625 539.84228516 C586.64900208 540.15420807 587.2315979 540.46613098 587.83184814 540.7875061 C593.19721607 543.6598327 598.56354158 546.53036738 603.93066406 549.39941406 C607.51799524 551.31709184 611.10488942 553.23558479 614.69140625 555.15478516 C615.28020569 555.46980988 615.86900513 555.78483459 616.47564697 556.10940552 C623.98519455 560.12862364 631.47366603 564.1834996 638.94140625 568.27978516 C648.34941407 573.43829935 657.82820332 578.45848801 667.31640625 583.46728516 C677.67110434 588.9335028 688.00090199 594.43630666 698.26708984 600.06762695 C705.4686982 604.01517022 712.7001889 607.90544644 719.94140625 611.77978516 C720.52809082 612.09375244 721.11477539 612.40771973 721.71923828 612.73120117 C725.91765328 614.97776187 730.11692627 617.222716 734.31640625 619.46728516 C739.10866174 622.02868535 743.90050301 624.59085643 748.69140625 627.15478516 C749.27935974 627.4693869 749.86731323 627.78398865 750.4730835 628.10812378 C758.89531698 632.61621263 767.28804557 637.17515286 775.66503906 641.76660156 C784.58163242 646.63917191 793.56198907 651.39048428 802.54354858 656.1418457 C810.70383792 660.4592698 818.82343401 664.83132008 826.87890625 669.34228516 C833.79655675 673.20378827 840.84162726 676.70730029 848.00390625 680.09228516 C862.98178274 687.17443224 877.16757269 694.30836724 890.31640625 704.46728516 C891.50363281 705.37607422 891.50363281 705.37607422 892.71484375 706.30322266 C901.53780879 713.50357344 907.34626817 722.5994033 908.59375 734.00244141 C909.01998352 745.03336497 904.35513269 754.03301023 897.44140625 762.34228516 C883.7844049 777.04982507 864.3418407 783.12159941 845.31640625 787.46728516 C844.55021973 787.64759277 843.7840332 787.82790039 842.99462891 788.01367188 C825.36492696 790.99963233 804.36709871 789.47090972 787.31640625 784.46728516 C786.63400879 784.27424805 785.95161133 784.08121094 785.24853516 783.88232422 C772.30197654 780.10352997 760.34198648 773.84914909 748.28613281 767.90869141 C745.66412756 766.63605749 743.02950836 765.41143931 740.37109375 764.21728516 C727.65015399 758.48200408 715.89789092 751.38580835 704.00830078 744.10302734 C700.85016967 742.18397434 697.66125135 740.34321481 694.44140625 738.52978516 C687.82341976 734.78953457 681.28923768 730.9122602 674.75390625 727.02978516 C665.16600182 721.33512667 655.56405196 715.66555547 645.94140625 710.02978516 C645.34242523 709.6788681 644.74344421 709.32795105 644.12631226 708.96640015 C638.00850496 705.38237625 631.88885473 701.80151539 625.76725769 698.22396851 C622.69975157 696.43102326 619.63286501 694.63702107 616.56640625 692.84228516 C615.96367889 692.48952515 615.36095154 692.13676514 614.73995972 691.77331543 C605.26130164 686.22258221 595.83282304 680.59208345 586.42358398 674.92431641 C578.36072265 670.0748629 570.24689907 665.31763115 562.11279297 660.58886719 C555.60244583 656.80368254 549.10855838 652.99226636 542.62890625 649.15478516 C534.14334388 644.12999208 525.63956182 639.13689564 517.12890625 634.15478516 C507.67481653 628.61993794 498.23668147 623.05955778 488.81640625 617.46728516 C475.29663282 609.44260718 461.73442746 601.49156799 448.16583252 593.54986572 C442.56929167 590.27387335 436.97384829 586.9960072 431.37890625 583.71728516 C430.77200958 583.36163483 430.16511292 583.0059845 429.53982544 582.63955688 C417.24428711 575.43307551 404.9739301 568.18436559 392.70996094 560.92431641 C390.05822823 559.35482273 387.40617505 557.78587272 384.75390625 556.21728516 C383.86171387 555.6895752 382.96952148 555.16186523 382.05029297 554.61816406 C376.82819334 551.53258632 371.59920857 548.45902263 366.36328125 545.39697266 C363.91011906 543.96214038 361.4569676 542.52728982 359.00390625 541.09228516 C358.38922485 540.73270721 357.77454346 540.37312927 357.14123535 540.00265503 C348.56276113 534.9819626 340.01842487 529.90848 331.50390625 524.77978516 C320.57688064 518.19925494 309.57343065 511.75791275 298.54589844 505.34765625 C292.58754842 501.8784083 286.63927398 498.39196534 280.69140625 494.90478516 C280.07582855 494.54390808 279.46025085 494.18303101 278.82601929 493.81121826 C266.43579194 486.54633112 254.06964161 479.24102509 241.70996094 471.92431641 C230.57166203 465.33183833 219.42065175 458.76144843 208.25390625 452.21728516 C207.64533783 451.86059753 207.03676941 451.50390991 206.40975952 451.13641357 C200.18992858 447.49114321 193.96888514 443.847963 187.74456787 440.21035767 C184.68464258 438.4219195 181.62534194 436.63241534 178.56640625 434.84228516 C177.96346741 434.48946472 177.36052856 434.13664429 176.73931885 433.77313232 C167.31044501 428.2525967 157.93614397 422.64581714 148.57958984 417.00341797 C139.89944867 411.78393215 131.13471068 406.7184347 122.35180664 401.67431641 C115.55294407 397.76712589 108.800261 393.79727087 102.08984375 389.74072266 C89.3637297 382.0527457 76.50953109 374.57481095 63.68081665 367.0597229 C61.82168523 365.97037833 59.96290544 364.88043635 58.10424805 363.7902832 C56.87939894 363.07193258 55.65454546 362.35358943 54.4296875 361.63525391 C53.82962387 361.28331467 53.22956024 360.93137543 52.61131287 360.56877136 C48.69782584 358.27443819 44.77947283 355.98859346 40.859375 353.70556641 C38.90746523 352.5637878 36.95563717 351.42186946 35.00390625 350.27978516 C34.13378906 349.77576172 33.26367188 349.27173828 32.3671875 348.75244141 C20.96795229 342.06393116 11.08564427 334.51732957 5.12890625 322.40478516 C4.61972656 321.38255859 4.11054688 320.36033203 3.5859375 319.30712891 C-1.05000413 308.9368841 -0.42508792 293.61361064 3.44140625 283.09228516 C5.79887598 278.01415007 8.58059129 273.62903626 12.31640625 269.46728516 C12.89003906 268.79052734 13.46367187 268.11376953 14.0546875 267.41650391 C23.1953186 257.36748711 37.36375454 253.26580205 49.68014526 248.29458618 C54.57839775 246.31742408 59.47029174 244.3246148 64.36328125 242.33447266 C65.86331947 241.72515648 65.86331947 241.72515648 67.3936615 241.10353088 C76.51945275 237.39369424 85.61919775 233.62264747 94.71377563 229.83706665 C109.13884466 223.83290354 123.59129479 217.9029895 138.07974243 212.05349731 C152.30163312 206.30955098 166.47313243 200.44787541 180.63476562 194.55712891 C188.37013508 191.34061663 196.10798564 188.13200001 203.87109375 184.98291016 C204.51853546 184.72020325 205.16597717 184.45749634 205.83303833 184.18682861 C208.79209507 182.98729224 211.75275546 181.79189296 214.71533203 180.60107422 C215.71806152 180.19598633 216.72079102 179.79089844 217.75390625 179.37353516 C219.05134766 178.85243164 219.05134766 178.85243164 220.375 178.32080078 C222.28224501 177.62235609 222.28224501 177.62235609 223.31640625 176.46728516 C222.26404785 176.01627441 221.21168945 175.56526367 220.12744141 175.10058594 C191.63183594 162.88818359 163.13623047 150.67578125 134.640625 138.46337891 C133.89070282 138.14198441 133.14078064 137.8205899 132.36813354 137.48945618 C130.88320712 136.85305769 129.39828278 136.21665434 127.9133606 135.58024597 C124.28978325 134.02725905 120.66616995 132.47435612 117.04248047 130.92163086 C110.78545068 128.24044567 104.52861272 125.5588215 98.27326965 122.873703 C79.63448557 114.87308952 60.97914847 106.91185796 42.31640625 98.96728516 C25.71041086 91.89825223 9.10527731 84.82745994 -7.47729492 77.70361328 C-8.82469857 77.12481753 -10.17211062 76.54604137 -11.51953125 75.96728516 C-12.17756241 75.68461792 -12.83559357 75.40195068 -13.51356506 75.11071777 C-17.90406798 73.22639149 -22.29935347 71.35357343 -26.69725037 69.48657227 C-29.86825075 68.14006673 -33.03787448 66.79033692 -36.20742798 65.44042969 C-37.69713051 64.80700567 -39.18747566 64.17509014 -40.67855835 63.54492188 C-81.37762998 46.34196118 -81.37762998 46.34196118 -89.18359375 30.40478516 C-90.53881272 22.44287368 -89.58151746 16.56499699 -85.68359375 9.46728516 C-77.55195107 -1.81282085 -63.03994769 -6.6297276 -49.99609375 -9.28271484 C-32.23677359 -10.62304089 -16.16800348 -7.15736617 0 0 Z M-61.68359375 17.46728516 C-63.2970834 20.69426445 -63.26854638 23.97774017 -62.68359375 27.46728516 C-58.53552699 32.99804084 -52.49444616 36.43085109 -45.68359375 37.46728516 C-36.11657187 38.18776458 -26.47810999 38.11414964 -18.671875 31.85400391 C-16.10487677 29.15536474 -14.84100248 27.09692007 -13.93359375 23.46728516 C-15.24800084 18.20965679 -18.23525225 15.04850571 -22.74609375 12.13525391 C-35.19343949 6.18491802 -51.76043361 7.79220402 -61.68359375 17.46728516 Z M787.81640625 724.77978516 C784.81854213 728.62931523 783.59225295 732.61772214 783.31640625 737.46728516 C784.39018843 743.43274174 787.66072578 748.39129613 792.41015625 752.10400391 C807.59606785 761.8910281 825.07105471 763.21545585 842.33984375 759.49853516 C852.54559876 757.02916381 860.29384048 752.12987976 866.31640625 743.46728516 C867.98260012 738.46870356 867.9446316 734.15357426 866.12890625 729.27978516 C859.59909539 719.14732003 850.58166112 715.28705447 839.31640625 712.46728516 C821.81448257 708.95760325 800.73715091 711.42628828 787.81640625 724.77978516 Z " fill="#000000" transform="translate(164.68359375,410.53271484375)"/>
<path d="M0 0 C2.43120824 0.00848886 4.86003857 -0.02033838 7.29101562 -0.05200195 C39.68882465 -0.19717816 68.6929534 14.10745234 91.69726562 36.44604492 C110.25251054 54.94312293 122.82991008 79.45381813 126.69726562 105.44604492 C126.808125 106.17049805 126.91898438 106.89495117 127.03320312 107.64135742 C130.90734101 138.52975405 122.1542534 168.09750475 110.69726562 196.44604492 C110.24351562 197.59717773 109.78976563 198.74831055 109.32226562 199.93432617 C106.47088248 207.01588629 103.09942804 213.81017515 99.62988281 220.60424805 C98.70273325 222.43524708 97.79477507 224.2745121 96.89257812 226.11791992 C87.2156061 245.84650577 76.33209016 264.81251888 64.69726562 283.44604492 C64.11154785 284.38512695 63.52583008 285.32420898 62.92236328 286.29174805 C51.37701554 304.74644916 39.1735318 322.69268343 26.30566406 340.24975586 C25.21982882 341.73247806 24.13721967 343.21756744 23.05761719 344.70483398 C21.46631242 346.89537485 19.8646357 349.07792992 18.25976562 351.25854492 C17.78788818 351.91040771 17.31601074 352.56227051 16.82983398 353.23388672 C13.82301808 357.28326426 10.79543306 360.47821443 6.69726562 363.44604492 C1.57053944 364.16558544 -1.17094917 363.448189 -5.30273438 360.44604492 C-7.31471524 358.21848134 -9.05281505 355.81974742 -10.80273438 353.38354492 C-11.31827881 352.68036133 -11.83382324 351.97717773 -12.36499023 351.25268555 C-14.01979119 348.99013583 -15.66127165 346.71828388 -17.30273438 344.44604492 C-18.3971431 342.94687714 -19.49219271 341.44817699 -20.58789062 339.94995117 C-37.77389694 316.3819619 -54.04807503 292.11984655 -68.81835938 266.96166992 C-70.41267618 264.2597225 -72.02801773 261.57109045 -73.64648438 258.88354492 C-79.59052266 248.98276699 -85.28698551 239.07073472 -90.25 228.64135742 C-91.44002798 226.15974063 -92.6600321 223.69390068 -93.88085938 221.22729492 C-103.96065213 200.717309 -113.02324951 179.74738588 -118.30273438 157.44604492 C-118.56908691 156.35211426 -118.83543945 155.25818359 -119.10986328 154.13110352 C-121.35157983 144.12129966 -121.862393 134.54456631 -121.80273438 124.32104492 C-121.80097198 123.51066772 -121.79920959 122.70029053 -121.7973938 121.86535645 C-121.73435643 108.8363504 -120.66470728 96.81918699 -116.30273438 84.44604492 C-116.0563623 83.7112793 -115.80999023 82.97651367 -115.55615234 82.21948242 C-104.62046464 50.29376099 -79.72014816 25.4309479 -49.94726562 10.60620117 C-43.60500548 7.57930237 -37.12142145 5.17551053 -30.30273438 3.44604492 C-29.34415527 3.18927979 -28.38557617 2.93251465 -27.39794922 2.66796875 C-18.19566353 0.42102292 -9.43718719 -0.04997711 0 0 Z M-0.30273438 63.44604492 C-0.56900635 64.0391748 -0.83527832 64.63230469 -1.10961914 65.2434082 C-9.89611593 84.78282241 -9.89611593 84.78282241 -13.74023438 92.32104492 C-20.88604911 106.37672769 -27.18385416 120.86721869 -33.53173828 135.29638672 C-35.44000834 139.60146349 -37.46593583 143.81665059 -39.61523438 148.00854492 C-44.53354719 157.66385026 -48.7346103 167.65193218 -53.05419922 177.58520508 C-54.78357403 181.54782025 -56.53894937 185.49864527 -58.30273438 189.44604492 C-54.80477517 192.94400412 -49.66499368 191.81529582 -44.92773438 191.82104492 C-43.87328125 191.84553711 -42.81882812 191.8700293 -41.73242188 191.89526367 C-40.71664062 191.89913086 -39.70085937 191.90299805 -38.65429688 191.90698242 C-37.25945068 191.91930908 -37.25945068 191.91930908 -35.83642578 191.93188477 C-32.53242394 191.29833652 -31.40458312 190.01876802 -29.30273438 187.44604492 C-27.54452257 184.27240116 -27.54452257 184.27240116 -26.05273438 180.82104492 C-25.53195313 179.6737793 -25.01117188 178.52651367 -24.47460938 177.34448242 C-23.17778942 174.65807717 -23.17778942 174.65807717 -23.30273438 172.44604492 C-6.14273438 172.44604492 11.01726562 172.44604492 28.69726562 172.44604492 C29.68726563 175.41604492 30.67726563 178.38604492 31.69726562 181.44604492 C32.93536859 184.18885547 32.93536859 184.18885547 34.25976562 186.44604492 C34.67355469 187.18854492 35.08734375 187.93104492 35.51367188 188.69604492 C36.59111385 190.59727726 36.59111385 190.59727726 38.69726562 191.44604492 C40.43770732 191.5305412 42.18136284 191.55327516 43.92382812 191.54370117 C44.95507812 191.54047852 45.98632812 191.53725586 47.04882812 191.53393555 C48.1290625 191.52555664 49.20929688 191.51717773 50.32226562 191.50854492 C51.41023438 191.5040332 52.49820313 191.49952148 53.61914062 191.49487305 C56.31190351 191.48306268 59.00455751 191.46659271 61.69726562 191.44604492 C63.28788591 186.67816063 61.81886217 183.54446622 59.75976562 179.23120117 C59.44201172 178.53900986 59.12425781 177.84681854 58.796875 177.13365173 C57.77624956 174.91920353 56.73691386 172.71411543 55.69726562 170.50854492 C55.0281028 169.06052842 54.3601227 167.61196475 53.69335938 166.1628418 C50.58512184 159.43857122 47.38200716 152.77258312 44.04101562 146.16088867 C40.85844528 139.84942229 37.98861607 133.43818911 35.19726562 126.94604492 C31.85185016 119.25261069 28.408854 111.68948084 24.57617188 104.22729492 C20.42757068 96.01811423 16.75579898 87.56249379 12.94824219 79.19165039 C10.55241354 73.93335824 8.12458017 68.68986368 5.69726562 63.44604492 C3.71726563 63.44604492 1.73726562 63.44604492 -0.30273438 63.44604492 Z " fill="#000000" transform="translate(121.302734375,-0.446044921875)"/>
<path d="M0 0 C4.888125 -0.0825 9.77625 -0.165 14.8125 -0.25 C16.33077393 -0.28641602 17.84904785 -0.32283203 19.41333008 -0.36035156 C29.86554018 -0.44515651 39.70243274 0.73975488 47.5625 8.31640625 C52.33273538 13.90328519 53.62316856 19.08169883 53.3203125 26.390625 C52.52700204 32.85320288 49.47747801 37.42076113 45 42 C38.78274607 46.38700614 33.61845113 47.15103823 26.171875 47.09765625 C25.17534912 47.09614563 25.17534912 47.09614563 24.15869141 47.09460449 C21.68910992 47.08939262 19.21955313 47.07543139 16.75 47.0625 C11.2225 47.041875 5.695 47.02125 0 47 C0 31.49 0 15.98 0 0 Z " fill="#000000" transform="translate(959,641)"/>
<path d="M0 0 C1.25554688 -0.020625 2.51109375 -0.04125 3.8046875 -0.0625 C12.22126176 -0.09778962 19.89040974 0.28526636 26.8125 5.5 C31.69684423 10.49793363 34.2142768 15.53559839 34.75 22.5 C34.301804 29.22294001 31.78918701 35.0334212 27.5 40.25 C21.52460061 44.72550157 16.94622812 46.37835195 9.42578125 46.34765625 C8.40003242 46.34553383 8.40003242 46.34553383 7.3535614 46.34336853 C5.17316278 46.33777876 2.99286749 46.32522822 0.8125 46.3125 C-0.66731622 46.30748367 -2.14713406 46.302921 -3.62695312 46.29882812 C-7.25133557 46.28781271 -10.8756577 46.27055512 -14.5 46.25 C-14.52527062 39.85962769 -14.54283317 33.46926817 -14.55493164 27.07885742 C-14.55997308 24.90307127 -14.56680607 22.72728853 -14.57543945 20.55151367 C-14.58751338 17.43146933 -14.59323005 14.31146962 -14.59765625 11.19140625 C-14.60281754 10.21224747 -14.60797882 9.23308868 -14.61329651 8.22425842 C-14.61337204 7.32340012 -14.61344757 6.42254181 -14.61352539 5.49438477 C-14.615746 4.69718521 -14.61796661 3.89998566 -14.62025452 3.07862854 C-14.27173903 -2.22100913 -3.8994912 0.01562922 0 0 Z " fill="#000000" transform="translate(973.5,555.75)"/>
<path d="M0 0 C1.79785156 0.10180664 1.79785156 0.10180664 4 1 C5.64746094 3.74389648 5.64746094 3.74389648 7.234375 7.37109375 C7.51726379 8.00862076 7.80015259 8.64614777 8.09161377 9.30299377 C8.68662425 10.65087698 9.27457824 12.00189411 9.85595703 13.35571289 C10.74760796 15.43193012 11.65875745 17.49863919 12.57421875 19.56445312 C17 29.64135241 17 29.64135241 17 32 C7.1 32 -2.8 32 -13 32 C-12.28307573 28.41537866 -11.73785785 26.07328096 -10.29296875 22.890625 C-9.95330078 22.13523438 -9.61363281 21.37984375 -9.26367188 20.6015625 C-8.90853516 19.82554687 -8.55339844 19.04953125 -8.1875 18.25 C-7.84396484 17.48945313 -7.50042969 16.72890625 -7.14648438 15.9453125 C-6.45415556 14.41257703 -5.75999035 12.88066969 -5.06396484 11.34960938 C-3.35504725 7.57571701 -1.67736556 3.78799897 0 0 Z " fill="#000000" transform="translate(122,117)"/>
</svg>
