<?xml version="1.0" encoding="UTF-8"?>
<svg version="1.1" xmlns="http://www.w3.org/2000/svg" width="432" height="416">
<path d="M0 0 C1.24224335 0.00323273 1.24224335 0.00323273 2.50958252 0.00653076 C30.43608888 0.12263673 57.37046275 4.87972732 83.375 15.3125 C84.08785156 15.59818848 84.80070312 15.88387695 85.53515625 16.17822266 C130.08615771 34.35809561 170.07769638 68.44475141 192.36914062 111.37841797 C193.37728842 113.3169002 194.413907 115.23818788 195.453125 117.16015625 C203.95041207 133.17233852 209.49754145 150.64002695 213.375 168.3125 C213.54016113 169.05854492 213.70532227 169.80458984 213.87548828 170.57324219 C219.33728991 196.74696374 218.18687219 226.36203699 212.375 252.3125 C212.19308105 253.1571582 212.01116211 254.00181641 211.82373047 254.87207031 C201.93965426 299.7258138 174.36378932 341.14300195 138.375 369.3125 C137.44945312 370.07820313 136.52390625 370.84390625 135.5703125 371.6328125 C121.37568438 383.09912249 105.13970466 392.17898571 88.375 399.3125 C87.27414062 399.80878906 86.17328125 400.30507813 85.0390625 400.81640625 C67.84718319 408.21470937 48.90571756 412.82387058 30.375 415.3125 C29.71145508 415.4053125 29.04791016 415.498125 28.36425781 415.59375 C-8.90789696 420.11354356 -47.82136135 415.27538836 -82.625 401.3125 C-83.33785156 401.02681152 -84.05070313 400.74112305 -84.78515625 400.44677734 C-112.67125246 389.067332 -135.81699247 371.76356484 -157.625 351.3125 C-158.25792969 350.73371094 -158.89085937 350.15492188 -159.54296875 349.55859375 C-185.90681393 324.57243169 -203.14968332 288.25276188 -211.3125 253.375 C-211.61655762 252.08928101 -211.61655762 252.08928101 -211.92675781 250.77758789 C-215.05691273 236.7715817 -216.00857195 222.92224371 -215.9375 208.625 C-215.93534485 207.83847046 -215.9331897 207.05194092 -215.93096924 206.24157715 C-215.87610953 193.71770806 -215.26305123 181.59259293 -212.625 169.3125 C-212.42632324 168.36552246 -212.22764648 167.41854492 -212.02294922 166.44287109 C-200.4988074 112.96567368 -167.5888714 65.61654429 -121.75854492 35.7512207 C-112.6769567 29.94549433 -103.43503601 24.77454366 -93.625 20.3125 C-92.89345703 19.97766602 -92.16191406 19.64283203 -91.40820312 19.29785156 C-76.40482317 12.51000124 -61.02563035 7.56136845 -44.9375 4.0625 C-44.25107422 3.91135742 -43.56464844 3.76021484 -42.85742188 3.60449219 C-28.66473083 0.70709028 -14.44415921 -0.06819992 0 0 Z " fill="#FDFEFE" transform="translate(215.625,-0.3125)"/>
<path d="M0 0 C1.24224335 0.00323273 1.24224335 0.00323273 2.50958252 0.00653076 C30.43608888 0.12263673 57.37046275 4.87972732 83.375 15.3125 C84.08785156 15.59818848 84.80070312 15.88387695 85.53515625 16.17822266 C130.08615771 34.35809561 170.07769638 68.44475141 192.36914062 111.37841797 C193.37728842 113.3169002 194.413907 115.23818788 195.453125 117.16015625 C203.95041207 133.17233852 209.49754145 150.64002695 213.375 168.3125 C213.54016113 169.05854492 213.70532227 169.80458984 213.87548828 170.57324219 C219.33728991 196.74696374 218.18687219 226.36203699 212.375 252.3125 C212.19308105 253.1571582 212.01116211 254.00181641 211.82373047 254.87207031 C201.93965426 299.7258138 174.36378932 341.14300195 138.375 369.3125 C137.44945312 370.07820313 136.52390625 370.84390625 135.5703125 371.6328125 C121.37568438 383.09912249 105.13970466 392.17898571 88.375 399.3125 C87.27414062 399.80878906 86.17328125 400.30507813 85.0390625 400.81640625 C67.84718319 408.21470937 48.90571756 412.82387058 30.375 415.3125 C29.71145508 415.4053125 29.04791016 415.498125 28.36425781 415.59375 C-8.90789696 420.11354356 -47.82136135 415.27538836 -82.625 401.3125 C-83.33785156 401.02681152 -84.05070313 400.74112305 -84.78515625 400.44677734 C-112.67125246 389.067332 -135.81699247 371.76356484 -157.625 351.3125 C-158.25792969 350.73371094 -158.89085937 350.15492188 -159.54296875 349.55859375 C-185.90681393 324.57243169 -203.14968332 288.25276188 -211.3125 253.375 C-211.61655762 252.08928101 -211.61655762 252.08928101 -211.92675781 250.77758789 C-215.05691273 236.7715817 -216.00857195 222.92224371 -215.9375 208.625 C-215.93534485 207.83847046 -215.9331897 207.05194092 -215.93096924 206.24157715 C-215.87610953 193.71770806 -215.26305123 181.59259293 -212.625 169.3125 C-212.42632324 168.36552246 -212.22764648 167.41854492 -212.02294922 166.44287109 C-200.4988074 112.96567368 -167.5888714 65.61654429 -121.75854492 35.7512207 C-112.6769567 29.94549433 -103.43503601 24.77454366 -93.625 20.3125 C-92.89345703 19.97766602 -92.16191406 19.64283203 -91.40820312 19.29785156 C-76.40482317 12.51000124 -61.02563035 7.56136845 -44.9375 4.0625 C-44.25107422 3.91135742 -43.56464844 3.76021484 -42.85742188 3.60449219 C-28.66473083 0.70709028 -14.44415921 -0.06819992 0 0 Z M-22.61474609 63.05102539 C-24.77246544 63.33168089 -26.93171337 63.53518651 -29.09765625 63.7421875 C-33.58375921 64.23562519 -37.79497146 65.25040098 -42.125 66.5 C-42.89255615 66.717771 -43.6601123 66.93554199 -44.45092773 67.15991211 C-49.91772318 68.74268487 -55.31675715 70.49294996 -60.6875 72.375 C-61.35265625 72.60791748 -62.0178125 72.84083496 -62.703125 73.08081055 C-80.33737599 79.42746899 -96.4601591 89.0806104 -110.625 101.3125 C-111.15174316 101.76625 -111.67848633 102.22 -112.22119141 102.6875 C-138.04798775 125.16918733 -156.61111191 155.63956818 -159.625 190.3125 C-160.25248 202.05361616 -160.28380955 213.81357207 -157.625 225.3125 C-157.36783203 226.76462891 -157.36783203 226.76462891 -157.10546875 228.24609375 C-152.59465437 251.55681836 -139.2651933 274.54302354 -122.1796875 290.765625 C-119.93008984 294.45089554 -120.72011334 297.30680208 -121.625 301.3125 C-121.82158203 302.21258789 -122.01816406 303.11267578 -122.22070312 304.04003906 C-122.92634591 307.13975398 -123.67612282 310.22601928 -124.4375 313.3125 C-124.70594727 314.4152124 -124.97439453 315.5179248 -125.25097656 316.65405273 C-126.03683901 319.87491231 -126.82928608 323.09406152 -127.625 326.3125 C-127.83624512 327.16730957 -128.04749023 328.02211914 -128.26513672 328.90283203 C-131.33302288 341.28645748 -131.33302288 341.28645748 -132.21289062 344.37841797 C-133.24209894 348.11058893 -133.78239365 350.61754638 -132.625 354.3125 C-131.95855469 353.99796875 -131.29210937 353.6834375 -130.60546875 353.359375 C-124.959614 350.73780329 -119.32467283 348.39310498 -113.42578125 346.40234375 C-110.46592276 345.30435098 -110.46592276 345.30435098 -107.15234375 343.54296875 C-101.23228533 340.52677399 -95.03713463 338.15763757 -88.875 335.6875 C-86.46296414 334.71758082 -84.051481 333.74628568 -81.640625 332.7734375 C-80.58133789 332.34853027 -79.52205078 331.92362305 -78.43066406 331.48583984 C-75.68667878 330.38419509 -75.68667878 330.38419509 -73.38671875 329.14794922 C-70.31471148 327.69112981 -67.82962253 328.88326669 -64.75585938 329.97851562 C-63.28320182 330.52651285 -61.81238131 331.07946168 -60.34301758 331.63623047 C-40.1057886 339.23144728 -19.1078923 342.54780812 2.4375 342.625 C3.13931396 342.62761841 3.84112793 342.63023682 4.56420898 342.63293457 C17.8062395 342.63819113 30.4293721 341.18378662 43.375 338.3125 C44.15810547 338.14169922 44.94121094 337.97089844 45.74804688 337.79492188 C58.72013137 334.90594236 70.98636474 330.81797024 82.9375 325 C83.94474121 324.51217041 84.95198242 324.02434082 85.98974609 323.52172852 C92.76081032 320.19998099 99.2701936 316.76735872 105.375 312.3125 C106.40238281 311.56613281 107.42976563 310.81976563 108.48828125 310.05078125 C119.05595374 302.21251796 129.08015973 293.56756371 137.375 283.3125 C138.21417969 282.30509766 138.21417969 282.30509766 139.0703125 281.27734375 C147.19006824 271.24598632 153.36013509 260.17458431 158.375 248.3125 C158.69307617 247.57273926 159.01115234 246.83297852 159.33886719 246.07080078 C172.14906632 215.39755771 169.23844434 181.73775183 157.375 151.3125 C150.60994049 135.78812076 140.233275 122.27423646 128.375 110.3125 C127.89224609 109.82040039 127.40949219 109.32830078 126.91210938 108.82128906 C110.52610492 92.31716793 89.45955109 79.46504493 67.375 72.3125 C66.05881371 71.80105376 64.74563775 71.2816947 63.4375 70.75 C45.14308336 63.87502814 25.25505381 61.11063948 5.8125 61.125 C4.25583618 61.12512085 4.25583618 61.12512085 2.66772461 61.12524414 C-5.85038889 61.18745839 -14.18380154 61.87522434 -22.61474609 63.05102539 Z " fill="#0271C0" transform="translate(215.625,-0.3125)"/>
<path d="M0 0 C1.16692383 -0.0309375 1.16692383 -0.0309375 2.35742188 -0.0625 C9.09657505 -0.10746516 14.30144343 1.33387309 20.0625 5 C26.27143167 11.20893167 28.5979523 18.88018753 28.625 27.5625 C28.47242074 37.93788984 26.13090582 45.5411034 18.5625 52.9375 C10.2086094 58.88161446 2.35933144 59.04856662 -7.6875 58.25 C-13.17382228 57.19110143 -17.79170612 55.36222688 -21.6875 51.25 C-27.89488556 41.85074857 -28.75703989 32.29543019 -27.6875 21.25 C-25.81083416 13.54886348 -22.31952994 7.82023596 -15.625 3.5 C-10.44972287 0.36106032 -5.96263633 0.03856192 0 0 Z " fill="#0472C1" transform="translate(302.6875,178.75)"/>
<path d="M0 0 C0.91442368 -0.00637985 1.82884735 -0.0127597 2.77098083 -0.01933289 C3.76573929 -0.02044571 4.76049774 -0.02155853 5.78540039 -0.02270508 C6.80026016 -0.02603348 7.81511993 -0.02936188 8.86073303 -0.03279114 C11.01196844 -0.03786483 13.16321174 -0.04019933 15.31445312 -0.04003906 C18.615447 -0.04222467 21.91610639 -0.0603734 25.21704102 -0.0793457 C27.30232632 -0.08227964 29.38761323 -0.08426443 31.47290039 -0.08520508 C32.46563461 -0.09239059 33.45836884 -0.09957611 34.48118591 -0.10697937 C35.39876175 -0.10390274 36.31633759 -0.10082611 37.26171875 -0.09765625 C38.07144638 -0.09908127 38.88117401 -0.10050629 39.71543884 -0.10197449 C41.69555664 0.14526367 41.69555664 0.14526367 43.69555664 2.14526367 C45.36014961 11.02831512 42.26013441 16.92933477 37.44555664 24.14526367 C36.81528564 25.13276611 36.18501465 26.12026855 35.53564453 27.13769531 C34.23926218 29.16515336 32.9326799 31.18612569 31.6159668 33.20043945 C29.25473527 36.8212346 26.95803631 40.48015032 24.66333008 44.14331055 C23.22277383 46.43974291 21.77211193 48.72935114 20.31665039 51.01635742 C17.75391278 55.0454283 15.22023443 59.09225781 12.69555664 63.14526367 C14.14176392 63.1828479 14.14176392 63.1828479 15.6171875 63.22119141 C19.18243506 63.31511673 22.74748097 63.41537306 26.3125 63.51757812 C27.85769953 63.56098352 29.40294878 63.60265438 30.94824219 63.64257812 C33.1649476 63.70014566 35.38140144 63.76387791 37.59790039 63.82885742 C38.64009987 63.85392616 38.64009987 63.85392616 39.70335388 63.87950134 C44.58168493 64.03139197 44.58168493 64.03139197 45.69555664 65.14526367 C45.7937966 66.62175243 45.82529183 68.10301784 45.82055664 69.58276367 C45.82442383 70.78739258 45.82442383 70.78739258 45.82836914 72.01635742 C45.69555664 74.14526367 45.69555664 74.14526367 44.69555664 76.14526367 C37.75389586 76.22114417 30.81234146 76.27379163 23.87036133 76.31005859 C21.50736494 76.32517267 19.14439673 76.34566443 16.78149414 76.37158203 C13.39079855 76.40784996 10.00047285 76.42496366 6.60961914 76.43823242 C5.54812653 76.45371628 4.48663391 76.46920013 3.39297485 76.4851532 C1.92167618 76.48549309 1.92167618 76.48549309 0.4206543 76.48583984 C-0.87840347 76.4958326 -0.87840347 76.4958326 -2.20370483 76.50602722 C-2.89694855 76.38697525 -3.59019226 76.26792328 -4.30444336 76.14526367 C-7.03122604 72.05508965 -7.04478543 68.94938817 -6.30444336 64.14526367 C-4.99087933 60.85019731 -3.1743157 57.98624461 -1.24194336 55.02026367 C-0.71334717 54.17496094 -0.18475098 53.3296582 0.35986328 52.45874023 C2.11429255 49.67135297 3.90104075 46.9069964 5.69555664 44.14526367 C6.34234375 43.14333984 6.98913086 42.14141602 7.65551758 41.10913086 C11.38674555 35.33474145 15.14651215 29.58016158 18.94140625 23.84741211 C21.23832035 20.30917339 23.45980603 16.72246465 25.69555664 13.14526367 C10.84555664 12.65026367 10.84555664 12.65026367 -4.30444336 12.14526367 C-5.49427396 9.76560247 -5.43794301 8.23040633 -5.42944336 5.58276367 C-5.43331055 4.37426758 -5.43331055 4.37426758 -5.43725586 3.14135742 C-5.18902526 -0.58940254 -3.26577493 0.01538878 0 0 Z " fill="#0372C0" transform="translate(134.304443359375,159.854736328125)"/>
<path d="M0 0 C0.80308594 -0.03287109 1.60617188 -0.06574219 2.43359375 -0.09960938 C8.60994826 -0.15466602 12.73343692 1.49230817 17.5 5.4375 C20.70926547 9.68201239 21.62895389 13.59317606 21.61352539 18.83886719 C21.61344986 19.6994574 21.61337433 20.56004761 21.61329651 21.44671631 C21.60813522 22.36664368 21.60297394 23.28657104 21.59765625 24.234375 C21.5962413 25.18314514 21.59482635 26.13191528 21.59336853 27.10943604 C21.58777742 30.13548962 21.57522652 33.16146883 21.5625 36.1875 C21.55748385 38.24088435 21.55292115 40.29426986 21.54882812 42.34765625 C21.53781089 47.37763276 21.52055233 52.40755378 21.5 57.4375 C17.87 57.4375 14.24 57.4375 10.5 57.4375 C10.17 55.7875 9.84 54.1375 9.5 52.4375 C8.95730469 52.78683594 8.41460937 53.13617188 7.85546875 53.49609375 C7.14003906 53.95113281 6.42460937 54.40617187 5.6875 54.875 C4.62595703 55.55369141 4.62595703 55.55369141 3.54296875 56.24609375 C-1.9877085 59.4714409 -8.30424457 59.08121485 -14.5 58.4375 C-18.92409857 56.85111535 -21.63143136 54.55035358 -24.5 50.875 C-26.36300381 44.47092439 -26.6819737 38.0851211 -23.9375 31.9375 C-19.63815772 27.52791817 -14.64472367 24.66087697 -8.39355469 24.32397461 C-7.29382324 24.33182983 -7.29382324 24.33182983 -6.171875 24.33984375 C-4.97304687 24.34467773 -4.97304687 24.34467773 -3.75 24.34960938 C-2.925 24.35798828 -2.1 24.36636719 -1.25 24.375 C-0.40953125 24.37951172 0.4309375 24.38402344 1.296875 24.38867188 C3.36461401 24.40042039 5.43231624 24.41835478 7.5 24.4375 C7.24476126 22.80997769 6.97025506 21.18546804 6.6875 19.5625 C6.53667969 18.65757812 6.38585937 17.75265625 6.23046875 16.8203125 C5.66948699 14.09337522 5.66948699 14.09337522 2.5 12.4375 C-5.71915918 11.4705401 -11.38577962 12.4276667 -18.5 16.4375 C-20.65234375 16.18359375 -20.65234375 16.18359375 -22.5 15.4375 C-23.962958 12.511584 -23.94523109 10.68132653 -23.5 7.4375 C-17.19338415 0.50022257 -8.9205637 0.06443425 0 0 Z " fill="#0372C0" transform="translate(212.5,178.5625)"/>
<path d="M0 0 C1.08410156 0.00257813 2.16820312 0.00515625 3.28515625 0.0078125 C4.90744141 0.00394531 4.90744141 0.00394531 6.5625 0 C9.34765625 0.1328125 9.34765625 0.1328125 11.34765625 1.1328125 C11.34765625 27.2028125 11.34765625 53.2728125 11.34765625 80.1328125 C8.60260162 81.50533981 6.34438213 81.26510505 3.28515625 81.2578125 C1.65900391 81.26167969 1.65900391 81.26167969 0 81.265625 C-2.65234375 81.1328125 -2.65234375 81.1328125 -3.65234375 80.1328125 C-3.75266255 77.67376029 -3.78852555 75.24277822 -3.78173828 72.78320312 C-3.7834906 72.01413132 -3.78524292 71.24505951 -3.78704834 70.4526825 C-3.79146715 67.89811987 -3.78852877 65.34362589 -3.78515625 62.7890625 C-3.78582928 61.02168769 -3.7867993 59.25431297 -3.78805542 57.48693848 C-3.78953243 53.77790447 -3.78737773 50.0688945 -3.78271484 46.35986328 C-3.77701755 41.59458757 -3.78029654 36.82936818 -3.78628731 32.06409454 C-3.78989283 28.41310193 -3.78875437 24.76212277 -3.78615952 21.11112976 C-3.78549022 19.35357151 -3.78631875 17.59601205 -3.78863907 15.8384552 C-3.79116546 13.38641096 -3.78732521 10.93445919 -3.78173828 8.48242188 C-3.78376251 7.74887985 -3.78578674 7.01533783 -3.78787231 6.25956726 C-3.7621148 0.18838277 -3.7621148 0.18838277 0 0 Z " fill="#0874C2" transform="translate(252.65234375,154.8671875)"/>
<path d="M0 0 C4.07998469 3.62665306 5.90866919 7.46242952 6.63671875 12.875 C6.88265957 19.52388286 6.08734235 25.42164121 2.25 31 C-0.79406391 33.89879405 -3.02176662 34.45377827 -7.1875 34.5 C-11.16053465 34.38345765 -12.46050178 34.20087632 -15.8125 31.875 C-20.37909509 25.09876213 -20.53337603 17.93047343 -19.75 10 C-18.52675715 5.74179247 -16.80361622 2.93654775 -13.5 0 C-8.7901996 -1.71265469 -4.7098004 -1.71265469 0 0 Z " fill="#F8FBFD" transform="translate(309.75,191)"/>
<path d="M0 0 C1.18851563 0.00902344 2.37703125 0.01804688 3.6015625 0.02734375 C4.51679688 0.03894531 5.43203125 0.05054688 6.375 0.0625 C6.87580857 3.19255357 7.02849411 5.94700481 6.375 9.0625 C3.17389669 13.09442402 -0.3557828 14.8509638 -5.375 15.6875 C-8.625 15.0625 -8.625 15.0625 -11.0625 13.4375 C-13.09661336 10.34564769 -13.23105429 8.69882575 -12.625 5.0625 C-8.71509481 0.2402836 -6.03712674 -0.05918752 0 0 Z " fill="#F5F9FC" transform="translate(213.625,211.9375)"/>
<path d="M0 0 C0.66 0.33 1.32 0.66 2 1 C-7.57 10.57 -17.14 20.14 -27 30 C-27 26.53892535 -26.65521356 26.25439895 -24.39453125 23.84765625 C-23.54592529 22.93802124 -23.54592529 22.93802124 -22.68017578 22.01000977 C-22.06384277 21.36733154 -21.44750977 20.72465332 -20.8125 20.0625 C-20.18843262 19.40241943 -19.56436523 18.74233887 -18.92138672 18.06225586 C-12.88387794 11.74451554 -6.51881668 5.81495774 0 0 Z " fill="#539ED4" transform="translate(74,50)"/>
</svg>
